G04 EAGLE Gerber RS-274X export*
G75*
%MOMM*%
%FSLAX34Y34*%
%LPD*%
%INSoldermask Top*%
%IPPOS*%
%AMOC8*
5,1,8,0,0,1.08239X$1,22.5*%
G01*
%ADD10C,1.981200*%
%ADD11C,1.701800*%
%ADD12C,1.422400*%
%ADD13C,1.625600*%
%ADD14C,0.200616*%
%ADD15C,0.179816*%
%ADD16R,0.762000X2.133600*%
%ADD17C,1.524000*%
%ADD18C,4.117600*%

G36*
X1066918Y633746D02*
X1066918Y633746D01*
X1067037Y633753D01*
X1067075Y633766D01*
X1067116Y633771D01*
X1067226Y633814D01*
X1067339Y633851D01*
X1067374Y633873D01*
X1067411Y633888D01*
X1067507Y633958D01*
X1067608Y634021D01*
X1067636Y634051D01*
X1067669Y634074D01*
X1067745Y634166D01*
X1067826Y634253D01*
X1067846Y634288D01*
X1067871Y634319D01*
X1067922Y634427D01*
X1067980Y634531D01*
X1067990Y634571D01*
X1068007Y634607D01*
X1068029Y634724D01*
X1068059Y634839D01*
X1068063Y634900D01*
X1068067Y634920D01*
X1068065Y634940D01*
X1068069Y635000D01*
X1068069Y711200D01*
X1068054Y711318D01*
X1068047Y711437D01*
X1068034Y711475D01*
X1068029Y711516D01*
X1067986Y711626D01*
X1067949Y711739D01*
X1067927Y711774D01*
X1067912Y711811D01*
X1067843Y711907D01*
X1067779Y712008D01*
X1067749Y712036D01*
X1067726Y712069D01*
X1067634Y712145D01*
X1067547Y712226D01*
X1067512Y712246D01*
X1067481Y712271D01*
X1067373Y712322D01*
X1067269Y712380D01*
X1067229Y712390D01*
X1067193Y712407D01*
X1067076Y712429D01*
X1066961Y712459D01*
X1066901Y712463D01*
X1066881Y712467D01*
X1066860Y712465D01*
X1066800Y712469D01*
X990600Y712469D01*
X990482Y712454D01*
X990363Y712447D01*
X990325Y712434D01*
X990284Y712429D01*
X990174Y712386D01*
X990061Y712349D01*
X990026Y712327D01*
X989989Y712312D01*
X989893Y712243D01*
X989792Y712179D01*
X989764Y712149D01*
X989731Y712126D01*
X989656Y712034D01*
X989574Y711947D01*
X989554Y711912D01*
X989529Y711881D01*
X989478Y711773D01*
X989420Y711669D01*
X989410Y711629D01*
X989393Y711593D01*
X989371Y711476D01*
X989341Y711361D01*
X989337Y711301D01*
X989333Y711281D01*
X989335Y711260D01*
X989331Y711200D01*
X989331Y635000D01*
X989346Y634882D01*
X989353Y634763D01*
X989366Y634725D01*
X989371Y634684D01*
X989414Y634574D01*
X989451Y634461D01*
X989473Y634426D01*
X989488Y634389D01*
X989558Y634293D01*
X989621Y634192D01*
X989651Y634164D01*
X989674Y634131D01*
X989766Y634056D01*
X989853Y633974D01*
X989888Y633954D01*
X989919Y633929D01*
X990027Y633878D01*
X990131Y633820D01*
X990171Y633810D01*
X990207Y633793D01*
X990324Y633771D01*
X990439Y633741D01*
X990500Y633737D01*
X990520Y633733D01*
X990540Y633735D01*
X990600Y633731D01*
X1066800Y633731D01*
X1066918Y633746D01*
G37*
G36*
X76318Y633746D02*
X76318Y633746D01*
X76437Y633753D01*
X76475Y633766D01*
X76516Y633771D01*
X76626Y633814D01*
X76739Y633851D01*
X76774Y633873D01*
X76811Y633888D01*
X76907Y633958D01*
X77008Y634021D01*
X77036Y634051D01*
X77069Y634074D01*
X77145Y634166D01*
X77226Y634253D01*
X77246Y634288D01*
X77271Y634319D01*
X77322Y634427D01*
X77380Y634531D01*
X77390Y634571D01*
X77407Y634607D01*
X77429Y634724D01*
X77459Y634839D01*
X77463Y634900D01*
X77467Y634920D01*
X77465Y634940D01*
X77469Y635000D01*
X77469Y711200D01*
X77454Y711318D01*
X77447Y711437D01*
X77434Y711475D01*
X77429Y711516D01*
X77386Y711626D01*
X77349Y711739D01*
X77327Y711774D01*
X77312Y711811D01*
X77243Y711907D01*
X77179Y712008D01*
X77149Y712036D01*
X77126Y712069D01*
X77034Y712145D01*
X76947Y712226D01*
X76912Y712246D01*
X76881Y712271D01*
X76773Y712322D01*
X76669Y712380D01*
X76629Y712390D01*
X76593Y712407D01*
X76476Y712429D01*
X76361Y712459D01*
X76301Y712463D01*
X76281Y712467D01*
X76260Y712465D01*
X76200Y712469D01*
X0Y712469D01*
X-118Y712454D01*
X-237Y712447D01*
X-275Y712434D01*
X-316Y712429D01*
X-426Y712386D01*
X-539Y712349D01*
X-574Y712327D01*
X-611Y712312D01*
X-707Y712243D01*
X-808Y712179D01*
X-836Y712149D01*
X-869Y712126D01*
X-945Y712034D01*
X-1026Y711947D01*
X-1046Y711912D01*
X-1071Y711881D01*
X-1122Y711773D01*
X-1180Y711669D01*
X-1190Y711629D01*
X-1207Y711593D01*
X-1229Y711476D01*
X-1259Y711361D01*
X-1263Y711301D01*
X-1267Y711281D01*
X-1265Y711260D01*
X-1269Y711200D01*
X-1269Y635000D01*
X-1254Y634882D01*
X-1247Y634763D01*
X-1234Y634725D01*
X-1229Y634684D01*
X-1186Y634574D01*
X-1149Y634461D01*
X-1127Y634426D01*
X-1112Y634389D01*
X-1043Y634293D01*
X-979Y634192D01*
X-949Y634164D01*
X-926Y634131D01*
X-834Y634056D01*
X-747Y633974D01*
X-712Y633954D01*
X-681Y633929D01*
X-573Y633878D01*
X-469Y633820D01*
X-429Y633810D01*
X-393Y633793D01*
X-276Y633771D01*
X-161Y633741D01*
X-101Y633737D01*
X-81Y633733D01*
X-60Y633735D01*
X0Y633731D01*
X76200Y633731D01*
X76318Y633746D01*
G37*
G36*
X1066918Y-77454D02*
X1066918Y-77454D01*
X1067037Y-77447D01*
X1067075Y-77434D01*
X1067116Y-77429D01*
X1067226Y-77386D01*
X1067339Y-77349D01*
X1067374Y-77327D01*
X1067411Y-77312D01*
X1067507Y-77243D01*
X1067608Y-77179D01*
X1067636Y-77149D01*
X1067669Y-77126D01*
X1067745Y-77034D01*
X1067826Y-76947D01*
X1067846Y-76912D01*
X1067871Y-76881D01*
X1067922Y-76773D01*
X1067980Y-76669D01*
X1067990Y-76629D01*
X1068007Y-76593D01*
X1068029Y-76476D01*
X1068059Y-76361D01*
X1068063Y-76301D01*
X1068067Y-76281D01*
X1068065Y-76260D01*
X1068069Y-76200D01*
X1068069Y0D01*
X1068054Y118D01*
X1068047Y237D01*
X1068034Y275D01*
X1068029Y316D01*
X1067986Y426D01*
X1067949Y539D01*
X1067927Y574D01*
X1067912Y611D01*
X1067843Y707D01*
X1067779Y808D01*
X1067749Y836D01*
X1067726Y869D01*
X1067634Y945D01*
X1067547Y1026D01*
X1067512Y1046D01*
X1067481Y1071D01*
X1067373Y1122D01*
X1067269Y1180D01*
X1067229Y1190D01*
X1067193Y1207D01*
X1067076Y1229D01*
X1066961Y1259D01*
X1066901Y1263D01*
X1066881Y1267D01*
X1066860Y1265D01*
X1066800Y1269D01*
X990600Y1269D01*
X990482Y1254D01*
X990363Y1247D01*
X990325Y1234D01*
X990284Y1229D01*
X990174Y1186D01*
X990061Y1149D01*
X990026Y1127D01*
X989989Y1112D01*
X989893Y1043D01*
X989792Y979D01*
X989764Y949D01*
X989731Y926D01*
X989656Y834D01*
X989574Y747D01*
X989554Y712D01*
X989529Y681D01*
X989478Y573D01*
X989420Y469D01*
X989410Y429D01*
X989393Y393D01*
X989371Y276D01*
X989341Y161D01*
X989337Y101D01*
X989333Y81D01*
X989335Y60D01*
X989331Y0D01*
X989331Y-76200D01*
X989346Y-76318D01*
X989353Y-76437D01*
X989366Y-76475D01*
X989371Y-76516D01*
X989414Y-76626D01*
X989451Y-76739D01*
X989473Y-76774D01*
X989488Y-76811D01*
X989558Y-76907D01*
X989621Y-77008D01*
X989651Y-77036D01*
X989674Y-77069D01*
X989766Y-77145D01*
X989853Y-77226D01*
X989888Y-77246D01*
X989919Y-77271D01*
X990027Y-77322D01*
X990131Y-77380D01*
X990171Y-77390D01*
X990207Y-77407D01*
X990324Y-77429D01*
X990439Y-77459D01*
X990500Y-77463D01*
X990520Y-77467D01*
X990540Y-77465D01*
X990600Y-77469D01*
X1066800Y-77469D01*
X1066918Y-77454D01*
G37*
G36*
X76318Y-77454D02*
X76318Y-77454D01*
X76437Y-77447D01*
X76475Y-77434D01*
X76516Y-77429D01*
X76626Y-77386D01*
X76739Y-77349D01*
X76774Y-77327D01*
X76811Y-77312D01*
X76907Y-77243D01*
X77008Y-77179D01*
X77036Y-77149D01*
X77069Y-77126D01*
X77145Y-77034D01*
X77226Y-76947D01*
X77246Y-76912D01*
X77271Y-76881D01*
X77322Y-76773D01*
X77380Y-76669D01*
X77390Y-76629D01*
X77407Y-76593D01*
X77429Y-76476D01*
X77459Y-76361D01*
X77463Y-76301D01*
X77467Y-76281D01*
X77465Y-76260D01*
X77469Y-76200D01*
X77469Y0D01*
X77454Y118D01*
X77447Y237D01*
X77434Y275D01*
X77429Y316D01*
X77386Y426D01*
X77349Y539D01*
X77327Y574D01*
X77312Y611D01*
X77243Y707D01*
X77179Y808D01*
X77149Y836D01*
X77126Y869D01*
X77034Y945D01*
X76947Y1026D01*
X76912Y1046D01*
X76881Y1071D01*
X76773Y1122D01*
X76669Y1180D01*
X76629Y1190D01*
X76593Y1207D01*
X76476Y1229D01*
X76361Y1259D01*
X76301Y1263D01*
X76281Y1267D01*
X76260Y1265D01*
X76200Y1269D01*
X0Y1269D01*
X-118Y1254D01*
X-237Y1247D01*
X-275Y1234D01*
X-316Y1229D01*
X-426Y1186D01*
X-539Y1149D01*
X-574Y1127D01*
X-611Y1112D01*
X-707Y1043D01*
X-808Y979D01*
X-836Y949D01*
X-869Y926D01*
X-945Y834D01*
X-1026Y747D01*
X-1046Y712D01*
X-1071Y681D01*
X-1122Y573D01*
X-1180Y469D01*
X-1190Y429D01*
X-1207Y393D01*
X-1229Y276D01*
X-1259Y161D01*
X-1263Y101D01*
X-1267Y81D01*
X-1265Y60D01*
X-1269Y0D01*
X-1269Y-76200D01*
X-1254Y-76318D01*
X-1247Y-76437D01*
X-1234Y-76475D01*
X-1229Y-76516D01*
X-1186Y-76626D01*
X-1149Y-76739D01*
X-1127Y-76774D01*
X-1112Y-76811D01*
X-1043Y-76907D01*
X-979Y-77008D01*
X-949Y-77036D01*
X-926Y-77069D01*
X-834Y-77145D01*
X-747Y-77226D01*
X-712Y-77246D01*
X-681Y-77271D01*
X-573Y-77322D01*
X-469Y-77380D01*
X-429Y-77390D01*
X-393Y-77407D01*
X-276Y-77429D01*
X-161Y-77459D01*
X-101Y-77463D01*
X-81Y-77467D01*
X-60Y-77465D01*
X0Y-77469D01*
X76200Y-77469D01*
X76318Y-77454D01*
G37*
D10*
X1054100Y63500D03*
X1028700Y63500D03*
X1054100Y88900D03*
X1028700Y88900D03*
X1054100Y114300D03*
X1028700Y114300D03*
X1054100Y139700D03*
X1028700Y139700D03*
X1054100Y165100D03*
X1028700Y165100D03*
X1054100Y190500D03*
X1028700Y190500D03*
X1054100Y215900D03*
X1028700Y215900D03*
X1054100Y241300D03*
X1028700Y241300D03*
X1054100Y266700D03*
X1028700Y266700D03*
X1054100Y292100D03*
X1028700Y292100D03*
X1054100Y317500D03*
X1028700Y317500D03*
X1054100Y342900D03*
X1028700Y342900D03*
X1054100Y368300D03*
X1028700Y368300D03*
X1054100Y393700D03*
X1028700Y393700D03*
X1054100Y419100D03*
X1028700Y419100D03*
X1054100Y444500D03*
X1028700Y444500D03*
X1054100Y469900D03*
X1028700Y469900D03*
X1054100Y495300D03*
X1028700Y495300D03*
X1054100Y520700D03*
X1028700Y520700D03*
X1054100Y546100D03*
X1028700Y546100D03*
D11*
X195580Y609600D03*
X160020Y609600D03*
D10*
X38100Y342900D03*
X12700Y342900D03*
X38100Y368300D03*
X12700Y368300D03*
X38100Y393700D03*
X12700Y393700D03*
X38100Y419100D03*
X12700Y419100D03*
X38100Y444500D03*
X12700Y444500D03*
X38100Y469900D03*
X12700Y469900D03*
X38100Y495300D03*
X12700Y495300D03*
X38100Y520700D03*
X12700Y520700D03*
X38100Y546100D03*
X12700Y546100D03*
X38100Y571500D03*
X12700Y571500D03*
D12*
X546100Y444500D03*
X546100Y419100D03*
X520700Y444500D03*
X520700Y419100D03*
X495300Y444500D03*
X495300Y419100D03*
X469900Y444500D03*
X469900Y419100D03*
X444500Y444500D03*
X444500Y419100D03*
X419100Y444500D03*
X393700Y419100D03*
X419100Y419100D03*
X393700Y393700D03*
X419100Y393700D03*
X393700Y368300D03*
X419100Y368300D03*
X393700Y342900D03*
X419100Y342900D03*
X393700Y317500D03*
X419100Y317500D03*
X393700Y292100D03*
X419100Y292100D03*
X393700Y266700D03*
X419100Y266700D03*
X393700Y241300D03*
X419100Y241300D03*
X393700Y215900D03*
X419100Y215900D03*
X393700Y190500D03*
X393700Y165100D03*
X419100Y190500D03*
X419100Y139700D03*
X419100Y165100D03*
X444500Y165100D03*
X444500Y139700D03*
X469900Y165100D03*
X469900Y139700D03*
X495300Y165100D03*
X495300Y139700D03*
X520700Y139700D03*
X520700Y165100D03*
X546100Y139700D03*
X546100Y165100D03*
X571500Y139700D03*
X571500Y165100D03*
X596900Y139700D03*
X596900Y165100D03*
X622300Y165100D03*
X622300Y139700D03*
X647700Y165100D03*
X647700Y139700D03*
X673100Y139700D03*
X673100Y419100D03*
X698500Y419100D03*
X673100Y393700D03*
X698500Y393700D03*
X673100Y368300D03*
X698500Y368300D03*
X673100Y342900D03*
X698500Y342900D03*
X673100Y317500D03*
X698500Y317500D03*
X673100Y292100D03*
X698500Y292100D03*
X673100Y266700D03*
X698500Y266700D03*
X673100Y241300D03*
X698500Y241300D03*
X673100Y215900D03*
X698500Y215900D03*
X673100Y190500D03*
X673100Y165100D03*
X698500Y190500D03*
X698500Y165100D03*
X596900Y419100D03*
X596900Y444500D03*
X622300Y419100D03*
X622300Y444500D03*
X647700Y419100D03*
X647700Y444500D03*
X673100Y444500D03*
X571500Y444500D03*
X571500Y419100D03*
X266700Y444500D03*
X266700Y419100D03*
X266700Y292100D03*
X266700Y266700D03*
X266700Y393700D03*
X266700Y368300D03*
X266700Y317500D03*
X266700Y342900D03*
X266700Y241300D03*
X266700Y215900D03*
X266700Y190500D03*
X266700Y165100D03*
X266700Y139700D03*
X266700Y114300D03*
X342900Y114300D03*
X342900Y139700D03*
X342900Y165100D03*
X342900Y190500D03*
X342900Y215900D03*
X342900Y241300D03*
X342900Y266700D03*
X342900Y292100D03*
X342900Y317500D03*
X342900Y342900D03*
X342900Y368300D03*
X342900Y393700D03*
X342900Y419100D03*
X342900Y444500D03*
D13*
X139900Y674100D03*
X114900Y674100D03*
X164900Y674100D03*
X189900Y674100D03*
D12*
X419100Y596900D03*
X419100Y520700D03*
X495300Y520700D03*
X495300Y596900D03*
X165100Y444500D03*
X165100Y419100D03*
X165100Y292100D03*
X165100Y266700D03*
X165100Y393700D03*
X165100Y368300D03*
X165100Y317500D03*
X165100Y342900D03*
X165100Y241300D03*
X165100Y215900D03*
X165100Y190500D03*
X165100Y165100D03*
X165100Y139700D03*
X165100Y114300D03*
X241300Y114300D03*
X241300Y139700D03*
X241300Y165100D03*
X241300Y190500D03*
X241300Y215900D03*
X241300Y241300D03*
X241300Y266700D03*
X241300Y292100D03*
X241300Y317500D03*
X241300Y342900D03*
X241300Y368300D03*
X241300Y393700D03*
X241300Y419100D03*
X241300Y444500D03*
D14*
X561955Y59155D02*
X561955Y51645D01*
X556245Y51645D01*
X556245Y59155D01*
X561955Y59155D01*
X561955Y53551D02*
X556245Y53551D01*
X556245Y55457D02*
X561955Y55457D01*
X561955Y57363D02*
X556245Y57363D01*
D15*
X570059Y59259D02*
X570059Y51541D01*
X564941Y51541D01*
X564941Y59259D01*
X570059Y59259D01*
X570059Y53249D02*
X564941Y53249D01*
X564941Y54957D02*
X570059Y54957D01*
X570059Y56665D02*
X564941Y56665D01*
X564941Y58373D02*
X570059Y58373D01*
X578059Y59259D02*
X578059Y51541D01*
X572941Y51541D01*
X572941Y59259D01*
X578059Y59259D01*
X578059Y53249D02*
X572941Y53249D01*
X572941Y54957D02*
X578059Y54957D01*
X578059Y56665D02*
X572941Y56665D01*
X572941Y58373D02*
X578059Y58373D01*
D14*
X586755Y59155D02*
X586755Y51645D01*
X581045Y51645D01*
X581045Y59155D01*
X586755Y59155D01*
X586755Y53551D02*
X581045Y53551D01*
X581045Y55457D02*
X586755Y55457D01*
X586755Y57363D02*
X581045Y57363D01*
X586755Y67845D02*
X586755Y75355D01*
X586755Y67845D02*
X581045Y67845D01*
X581045Y75355D01*
X586755Y75355D01*
X586755Y69751D02*
X581045Y69751D01*
X581045Y71657D02*
X586755Y71657D01*
X586755Y73563D02*
X581045Y73563D01*
D15*
X578059Y75459D02*
X578059Y67741D01*
X572941Y67741D01*
X572941Y75459D01*
X578059Y75459D01*
X578059Y69449D02*
X572941Y69449D01*
X572941Y71157D02*
X578059Y71157D01*
X578059Y72865D02*
X572941Y72865D01*
X572941Y74573D02*
X578059Y74573D01*
X570059Y75459D02*
X570059Y67741D01*
X564941Y67741D01*
X564941Y75459D01*
X570059Y75459D01*
X570059Y69449D02*
X564941Y69449D01*
X564941Y71157D02*
X570059Y71157D01*
X570059Y72865D02*
X564941Y72865D01*
X564941Y74573D02*
X570059Y74573D01*
D14*
X561955Y75355D02*
X561955Y67845D01*
X556245Y67845D01*
X556245Y75355D01*
X561955Y75355D01*
X561955Y69751D02*
X556245Y69751D01*
X556245Y71657D02*
X561955Y71657D01*
X561955Y73563D02*
X556245Y73563D01*
X561955Y8355D02*
X561955Y845D01*
X556245Y845D01*
X556245Y8355D01*
X561955Y8355D01*
X561955Y2751D02*
X556245Y2751D01*
X556245Y4657D02*
X561955Y4657D01*
X561955Y6563D02*
X556245Y6563D01*
D15*
X570059Y8459D02*
X570059Y741D01*
X564941Y741D01*
X564941Y8459D01*
X570059Y8459D01*
X570059Y2449D02*
X564941Y2449D01*
X564941Y4157D02*
X570059Y4157D01*
X570059Y5865D02*
X564941Y5865D01*
X564941Y7573D02*
X570059Y7573D01*
X578059Y8459D02*
X578059Y741D01*
X572941Y741D01*
X572941Y8459D01*
X578059Y8459D01*
X578059Y2449D02*
X572941Y2449D01*
X572941Y4157D02*
X578059Y4157D01*
X578059Y5865D02*
X572941Y5865D01*
X572941Y7573D02*
X578059Y7573D01*
D14*
X586755Y8355D02*
X586755Y845D01*
X581045Y845D01*
X581045Y8355D01*
X586755Y8355D01*
X586755Y2751D02*
X581045Y2751D01*
X581045Y4657D02*
X586755Y4657D01*
X586755Y6563D02*
X581045Y6563D01*
X586755Y17045D02*
X586755Y24555D01*
X586755Y17045D02*
X581045Y17045D01*
X581045Y24555D01*
X586755Y24555D01*
X586755Y18951D02*
X581045Y18951D01*
X581045Y20857D02*
X586755Y20857D01*
X586755Y22763D02*
X581045Y22763D01*
D15*
X578059Y24659D02*
X578059Y16941D01*
X572941Y16941D01*
X572941Y24659D01*
X578059Y24659D01*
X578059Y18649D02*
X572941Y18649D01*
X572941Y20357D02*
X578059Y20357D01*
X578059Y22065D02*
X572941Y22065D01*
X572941Y23773D02*
X578059Y23773D01*
X570059Y24659D02*
X570059Y16941D01*
X564941Y16941D01*
X564941Y24659D01*
X570059Y24659D01*
X570059Y18649D02*
X564941Y18649D01*
X564941Y20357D02*
X570059Y20357D01*
X570059Y22065D02*
X564941Y22065D01*
X564941Y23773D02*
X570059Y23773D01*
D14*
X561955Y24555D02*
X561955Y17045D01*
X556245Y17045D01*
X556245Y24555D01*
X561955Y24555D01*
X561955Y18951D02*
X556245Y18951D01*
X556245Y20857D02*
X561955Y20857D01*
X561955Y22763D02*
X556245Y22763D01*
X612755Y51645D02*
X612755Y59155D01*
X612755Y51645D02*
X607045Y51645D01*
X607045Y59155D01*
X612755Y59155D01*
X612755Y53551D02*
X607045Y53551D01*
X607045Y55457D02*
X612755Y55457D01*
X612755Y57363D02*
X607045Y57363D01*
D15*
X620859Y59259D02*
X620859Y51541D01*
X615741Y51541D01*
X615741Y59259D01*
X620859Y59259D01*
X620859Y53249D02*
X615741Y53249D01*
X615741Y54957D02*
X620859Y54957D01*
X620859Y56665D02*
X615741Y56665D01*
X615741Y58373D02*
X620859Y58373D01*
X628859Y59259D02*
X628859Y51541D01*
X623741Y51541D01*
X623741Y59259D01*
X628859Y59259D01*
X628859Y53249D02*
X623741Y53249D01*
X623741Y54957D02*
X628859Y54957D01*
X628859Y56665D02*
X623741Y56665D01*
X623741Y58373D02*
X628859Y58373D01*
D14*
X637555Y59155D02*
X637555Y51645D01*
X631845Y51645D01*
X631845Y59155D01*
X637555Y59155D01*
X637555Y53551D02*
X631845Y53551D01*
X631845Y55457D02*
X637555Y55457D01*
X637555Y57363D02*
X631845Y57363D01*
X637555Y67845D02*
X637555Y75355D01*
X637555Y67845D02*
X631845Y67845D01*
X631845Y75355D01*
X637555Y75355D01*
X637555Y69751D02*
X631845Y69751D01*
X631845Y71657D02*
X637555Y71657D01*
X637555Y73563D02*
X631845Y73563D01*
D15*
X628859Y75459D02*
X628859Y67741D01*
X623741Y67741D01*
X623741Y75459D01*
X628859Y75459D01*
X628859Y69449D02*
X623741Y69449D01*
X623741Y71157D02*
X628859Y71157D01*
X628859Y72865D02*
X623741Y72865D01*
X623741Y74573D02*
X628859Y74573D01*
X620859Y75459D02*
X620859Y67741D01*
X615741Y67741D01*
X615741Y75459D01*
X620859Y75459D01*
X620859Y69449D02*
X615741Y69449D01*
X615741Y71157D02*
X620859Y71157D01*
X620859Y72865D02*
X615741Y72865D01*
X615741Y74573D02*
X620859Y74573D01*
D14*
X612755Y75355D02*
X612755Y67845D01*
X607045Y67845D01*
X607045Y75355D01*
X612755Y75355D01*
X612755Y69751D02*
X607045Y69751D01*
X607045Y71657D02*
X612755Y71657D01*
X612755Y73563D02*
X607045Y73563D01*
X612755Y8355D02*
X612755Y845D01*
X607045Y845D01*
X607045Y8355D01*
X612755Y8355D01*
X612755Y2751D02*
X607045Y2751D01*
X607045Y4657D02*
X612755Y4657D01*
X612755Y6563D02*
X607045Y6563D01*
D15*
X620859Y8459D02*
X620859Y741D01*
X615741Y741D01*
X615741Y8459D01*
X620859Y8459D01*
X620859Y2449D02*
X615741Y2449D01*
X615741Y4157D02*
X620859Y4157D01*
X620859Y5865D02*
X615741Y5865D01*
X615741Y7573D02*
X620859Y7573D01*
X628859Y8459D02*
X628859Y741D01*
X623741Y741D01*
X623741Y8459D01*
X628859Y8459D01*
X628859Y2449D02*
X623741Y2449D01*
X623741Y4157D02*
X628859Y4157D01*
X628859Y5865D02*
X623741Y5865D01*
X623741Y7573D02*
X628859Y7573D01*
D14*
X637555Y8355D02*
X637555Y845D01*
X631845Y845D01*
X631845Y8355D01*
X637555Y8355D01*
X637555Y2751D02*
X631845Y2751D01*
X631845Y4657D02*
X637555Y4657D01*
X637555Y6563D02*
X631845Y6563D01*
X637555Y17045D02*
X637555Y24555D01*
X637555Y17045D02*
X631845Y17045D01*
X631845Y24555D01*
X637555Y24555D01*
X637555Y18951D02*
X631845Y18951D01*
X631845Y20857D02*
X637555Y20857D01*
X637555Y22763D02*
X631845Y22763D01*
D15*
X628859Y24659D02*
X628859Y16941D01*
X623741Y16941D01*
X623741Y24659D01*
X628859Y24659D01*
X628859Y18649D02*
X623741Y18649D01*
X623741Y20357D02*
X628859Y20357D01*
X628859Y22065D02*
X623741Y22065D01*
X623741Y23773D02*
X628859Y23773D01*
X620859Y24659D02*
X620859Y16941D01*
X615741Y16941D01*
X615741Y24659D01*
X620859Y24659D01*
X620859Y18649D02*
X615741Y18649D01*
X615741Y20357D02*
X620859Y20357D01*
X620859Y22065D02*
X615741Y22065D01*
X615741Y23773D02*
X620859Y23773D01*
D14*
X612755Y24555D02*
X612755Y17045D01*
X607045Y17045D01*
X607045Y24555D01*
X612755Y24555D01*
X612755Y18951D02*
X607045Y18951D01*
X607045Y20857D02*
X612755Y20857D01*
X612755Y22763D02*
X607045Y22763D01*
X663555Y51645D02*
X663555Y59155D01*
X663555Y51645D02*
X657845Y51645D01*
X657845Y59155D01*
X663555Y59155D01*
X663555Y53551D02*
X657845Y53551D01*
X657845Y55457D02*
X663555Y55457D01*
X663555Y57363D02*
X657845Y57363D01*
D15*
X671659Y59259D02*
X671659Y51541D01*
X666541Y51541D01*
X666541Y59259D01*
X671659Y59259D01*
X671659Y53249D02*
X666541Y53249D01*
X666541Y54957D02*
X671659Y54957D01*
X671659Y56665D02*
X666541Y56665D01*
X666541Y58373D02*
X671659Y58373D01*
X679659Y59259D02*
X679659Y51541D01*
X674541Y51541D01*
X674541Y59259D01*
X679659Y59259D01*
X679659Y53249D02*
X674541Y53249D01*
X674541Y54957D02*
X679659Y54957D01*
X679659Y56665D02*
X674541Y56665D01*
X674541Y58373D02*
X679659Y58373D01*
D14*
X688355Y59155D02*
X688355Y51645D01*
X682645Y51645D01*
X682645Y59155D01*
X688355Y59155D01*
X688355Y53551D02*
X682645Y53551D01*
X682645Y55457D02*
X688355Y55457D01*
X688355Y57363D02*
X682645Y57363D01*
X688355Y67845D02*
X688355Y75355D01*
X688355Y67845D02*
X682645Y67845D01*
X682645Y75355D01*
X688355Y75355D01*
X688355Y69751D02*
X682645Y69751D01*
X682645Y71657D02*
X688355Y71657D01*
X688355Y73563D02*
X682645Y73563D01*
D15*
X679659Y75459D02*
X679659Y67741D01*
X674541Y67741D01*
X674541Y75459D01*
X679659Y75459D01*
X679659Y69449D02*
X674541Y69449D01*
X674541Y71157D02*
X679659Y71157D01*
X679659Y72865D02*
X674541Y72865D01*
X674541Y74573D02*
X679659Y74573D01*
X671659Y75459D02*
X671659Y67741D01*
X666541Y67741D01*
X666541Y75459D01*
X671659Y75459D01*
X671659Y69449D02*
X666541Y69449D01*
X666541Y71157D02*
X671659Y71157D01*
X671659Y72865D02*
X666541Y72865D01*
X666541Y74573D02*
X671659Y74573D01*
D14*
X663555Y75355D02*
X663555Y67845D01*
X657845Y67845D01*
X657845Y75355D01*
X663555Y75355D01*
X663555Y69751D02*
X657845Y69751D01*
X657845Y71657D02*
X663555Y71657D01*
X663555Y73563D02*
X657845Y73563D01*
X663555Y8355D02*
X663555Y845D01*
X657845Y845D01*
X657845Y8355D01*
X663555Y8355D01*
X663555Y2751D02*
X657845Y2751D01*
X657845Y4657D02*
X663555Y4657D01*
X663555Y6563D02*
X657845Y6563D01*
D15*
X671659Y8459D02*
X671659Y741D01*
X666541Y741D01*
X666541Y8459D01*
X671659Y8459D01*
X671659Y2449D02*
X666541Y2449D01*
X666541Y4157D02*
X671659Y4157D01*
X671659Y5865D02*
X666541Y5865D01*
X666541Y7573D02*
X671659Y7573D01*
X679659Y8459D02*
X679659Y741D01*
X674541Y741D01*
X674541Y8459D01*
X679659Y8459D01*
X679659Y2449D02*
X674541Y2449D01*
X674541Y4157D02*
X679659Y4157D01*
X679659Y5865D02*
X674541Y5865D01*
X674541Y7573D02*
X679659Y7573D01*
D14*
X688355Y8355D02*
X688355Y845D01*
X682645Y845D01*
X682645Y8355D01*
X688355Y8355D01*
X688355Y2751D02*
X682645Y2751D01*
X682645Y4657D02*
X688355Y4657D01*
X688355Y6563D02*
X682645Y6563D01*
X688355Y17045D02*
X688355Y24555D01*
X688355Y17045D02*
X682645Y17045D01*
X682645Y24555D01*
X688355Y24555D01*
X688355Y18951D02*
X682645Y18951D01*
X682645Y20857D02*
X688355Y20857D01*
X688355Y22763D02*
X682645Y22763D01*
D15*
X679659Y24659D02*
X679659Y16941D01*
X674541Y16941D01*
X674541Y24659D01*
X679659Y24659D01*
X679659Y18649D02*
X674541Y18649D01*
X674541Y20357D02*
X679659Y20357D01*
X679659Y22065D02*
X674541Y22065D01*
X674541Y23773D02*
X679659Y23773D01*
X671659Y24659D02*
X671659Y16941D01*
X666541Y16941D01*
X666541Y24659D01*
X671659Y24659D01*
X671659Y18649D02*
X666541Y18649D01*
X666541Y20357D02*
X671659Y20357D01*
X671659Y22065D02*
X666541Y22065D01*
X666541Y23773D02*
X671659Y23773D01*
D14*
X663555Y24555D02*
X663555Y17045D01*
X657845Y17045D01*
X657845Y24555D01*
X663555Y24555D01*
X663555Y18951D02*
X657845Y18951D01*
X657845Y20857D02*
X663555Y20857D01*
X663555Y22763D02*
X657845Y22763D01*
D16*
X406400Y7366D03*
X406400Y68834D03*
X419100Y7366D03*
X431800Y7366D03*
X419100Y68834D03*
X431800Y68834D03*
X444500Y7366D03*
X444500Y68834D03*
X457200Y7366D03*
X469900Y7366D03*
X457200Y68834D03*
X469900Y68834D03*
X482600Y7366D03*
X482600Y68834D03*
D14*
X367455Y28555D02*
X359945Y28555D01*
X367455Y28555D02*
X367455Y22845D01*
X359945Y22845D01*
X359945Y28555D01*
X359945Y24751D02*
X367455Y24751D01*
X367455Y26657D02*
X359945Y26657D01*
D15*
X359841Y36659D02*
X367559Y36659D01*
X367559Y31541D01*
X359841Y31541D01*
X359841Y36659D01*
X359841Y33249D02*
X367559Y33249D01*
X367559Y34957D02*
X359841Y34957D01*
X359841Y44659D02*
X367559Y44659D01*
X367559Y39541D01*
X359841Y39541D01*
X359841Y44659D01*
X359841Y41249D02*
X367559Y41249D01*
X367559Y42957D02*
X359841Y42957D01*
D14*
X359945Y53355D02*
X367455Y53355D01*
X367455Y47645D01*
X359945Y47645D01*
X359945Y53355D01*
X359945Y49551D02*
X367455Y49551D01*
X367455Y51457D02*
X359945Y51457D01*
X351255Y53355D02*
X343745Y53355D01*
X351255Y53355D02*
X351255Y47645D01*
X343745Y47645D01*
X343745Y53355D01*
X343745Y49551D02*
X351255Y49551D01*
X351255Y51457D02*
X343745Y51457D01*
D15*
X343641Y44659D02*
X351359Y44659D01*
X351359Y39541D01*
X343641Y39541D01*
X343641Y44659D01*
X343641Y41249D02*
X351359Y41249D01*
X351359Y42957D02*
X343641Y42957D01*
X343641Y36659D02*
X351359Y36659D01*
X351359Y31541D01*
X343641Y31541D01*
X343641Y36659D01*
X343641Y33249D02*
X351359Y33249D01*
X351359Y34957D02*
X343641Y34957D01*
D14*
X343745Y28555D02*
X351255Y28555D01*
X351255Y22845D01*
X343745Y22845D01*
X343745Y28555D01*
X343745Y24751D02*
X351255Y24751D01*
X351255Y26657D02*
X343745Y26657D01*
D13*
X38100Y38100D03*
X38100Y63500D03*
X38100Y88900D03*
X38100Y114300D03*
X38100Y139700D03*
X12700Y38100D03*
X12700Y63500D03*
X12700Y88900D03*
X12700Y114300D03*
X12700Y139700D03*
D12*
X530860Y76200D03*
X510540Y76200D03*
X952500Y190500D03*
X952500Y215900D03*
X952500Y342900D03*
X952500Y368300D03*
X952500Y241300D03*
X952500Y266700D03*
X952500Y317500D03*
X952500Y292100D03*
X952500Y393700D03*
X952500Y419100D03*
X952500Y444500D03*
X952500Y469900D03*
X952500Y495300D03*
X952500Y520700D03*
X952500Y546100D03*
X952500Y571500D03*
X952500Y596900D03*
X952500Y622300D03*
X952500Y647700D03*
X952500Y673100D03*
X800100Y673100D03*
X800100Y647700D03*
X800100Y622300D03*
X800100Y596900D03*
X800100Y571500D03*
X800100Y546100D03*
X800100Y520700D03*
X800100Y495300D03*
X800100Y469900D03*
X800100Y444500D03*
X800100Y419100D03*
X800100Y393700D03*
X800100Y368300D03*
X800100Y342900D03*
X800100Y317500D03*
X800100Y292100D03*
X800100Y266700D03*
X800100Y241300D03*
X800100Y215900D03*
X800100Y190500D03*
X495300Y673100D03*
X520700Y673100D03*
X647700Y673100D03*
X673100Y673100D03*
X546100Y673100D03*
X571500Y673100D03*
X622300Y673100D03*
X596900Y673100D03*
X698500Y673100D03*
X723900Y673100D03*
X723900Y749300D03*
X698500Y749300D03*
X673100Y749300D03*
X647700Y749300D03*
X622300Y749300D03*
X596900Y749300D03*
X571500Y749300D03*
X546100Y749300D03*
X520700Y749300D03*
X495300Y749300D03*
X266700Y673100D03*
X292100Y673100D03*
X419100Y673100D03*
X444500Y673100D03*
X317500Y673100D03*
X342900Y673100D03*
X393700Y673100D03*
X368300Y673100D03*
X444500Y749300D03*
X419100Y749300D03*
X393700Y749300D03*
X368300Y749300D03*
X342900Y749300D03*
X317500Y749300D03*
X292100Y749300D03*
X266700Y749300D03*
D17*
X571500Y596900D03*
X571500Y622300D03*
X571500Y647700D03*
X596900Y596900D03*
X596900Y622300D03*
X596900Y647700D03*
X622300Y596900D03*
X622300Y622300D03*
X622300Y647700D03*
X647700Y596900D03*
X647700Y622300D03*
X647700Y647700D03*
X673100Y596900D03*
X673100Y622300D03*
X673100Y647700D03*
X698500Y596900D03*
X698500Y622300D03*
X698500Y647700D03*
X723900Y596900D03*
X723900Y622300D03*
X723900Y647700D03*
X977900Y38100D03*
X977900Y12700D03*
X952500Y38100D03*
X952500Y12700D03*
X927100Y38100D03*
X927100Y12700D03*
X901700Y38100D03*
X901700Y12700D03*
X876300Y38100D03*
X876300Y12700D03*
X850900Y38100D03*
X850900Y12700D03*
X825500Y38100D03*
X825500Y12700D03*
X800100Y38100D03*
X800100Y12700D03*
X774700Y38100D03*
X774700Y12700D03*
X749300Y38100D03*
X749300Y12700D03*
X927100Y749300D03*
X927100Y723900D03*
X901700Y749300D03*
X901700Y723900D03*
X876300Y749300D03*
X876300Y723900D03*
X850900Y723900D03*
X850900Y749300D03*
D18*
X38100Y-38100D03*
X1028700Y-38100D03*
X38100Y673100D03*
X1028700Y673100D03*
M02*
