G04 EAGLE Gerber RS-274X export*
G75*
%MOMM*%
%FSLAX34Y34*%
%LPD*%
%INSilkscreen Bottom*%
%IPPOS*%
%AMOC8*
5,1,8,0,0,1.08239X$1,22.5*%
G01*
%ADD10C,0.101600*%


D10*
X505968Y555968D02*
X505968Y553372D01*
X505970Y553273D01*
X505976Y553173D01*
X505985Y553074D01*
X505998Y552976D01*
X506015Y552878D01*
X506036Y552780D01*
X506061Y552684D01*
X506089Y552589D01*
X506121Y552495D01*
X506156Y552402D01*
X506195Y552310D01*
X506238Y552220D01*
X506283Y552132D01*
X506333Y552045D01*
X506385Y551961D01*
X506441Y551878D01*
X506499Y551798D01*
X506561Y551720D01*
X506626Y551645D01*
X506694Y551572D01*
X506764Y551502D01*
X506837Y551434D01*
X506912Y551369D01*
X506990Y551307D01*
X507070Y551249D01*
X507153Y551193D01*
X507237Y551141D01*
X507324Y551091D01*
X507412Y551046D01*
X507502Y551003D01*
X507594Y550964D01*
X507687Y550929D01*
X507781Y550897D01*
X507876Y550869D01*
X507972Y550844D01*
X508070Y550823D01*
X508168Y550806D01*
X508266Y550793D01*
X508365Y550784D01*
X508465Y550778D01*
X508564Y550776D01*
X508564Y550775D02*
X515056Y550775D01*
X515056Y550776D02*
X515155Y550778D01*
X515255Y550784D01*
X515354Y550793D01*
X515452Y550806D01*
X515550Y550823D01*
X515648Y550844D01*
X515744Y550869D01*
X515839Y550897D01*
X515933Y550929D01*
X516026Y550964D01*
X516118Y551003D01*
X516208Y551046D01*
X516296Y551091D01*
X516383Y551141D01*
X516467Y551193D01*
X516550Y551249D01*
X516630Y551307D01*
X516708Y551369D01*
X516783Y551434D01*
X516856Y551502D01*
X516926Y551572D01*
X516994Y551645D01*
X517059Y551720D01*
X517121Y551798D01*
X517179Y551878D01*
X517235Y551961D01*
X517287Y552045D01*
X517337Y552132D01*
X517382Y552220D01*
X517425Y552310D01*
X517464Y552402D01*
X517499Y552494D01*
X517531Y552589D01*
X517559Y552684D01*
X517584Y552780D01*
X517605Y552878D01*
X517622Y552976D01*
X517635Y553074D01*
X517644Y553173D01*
X517650Y553273D01*
X517652Y553372D01*
X517652Y555968D01*
X515056Y560334D02*
X517652Y563579D01*
X505968Y563579D01*
X505968Y560334D02*
X505968Y566825D01*
X488028Y371348D02*
X485432Y371348D01*
X488028Y371348D02*
X488127Y371350D01*
X488227Y371356D01*
X488326Y371365D01*
X488424Y371378D01*
X488522Y371395D01*
X488620Y371416D01*
X488716Y371441D01*
X488811Y371469D01*
X488905Y371501D01*
X488998Y371536D01*
X489090Y371575D01*
X489180Y371618D01*
X489268Y371663D01*
X489355Y371713D01*
X489439Y371765D01*
X489522Y371821D01*
X489602Y371879D01*
X489680Y371941D01*
X489755Y372006D01*
X489828Y372074D01*
X489898Y372144D01*
X489966Y372217D01*
X490031Y372292D01*
X490093Y372370D01*
X490151Y372450D01*
X490207Y372533D01*
X490259Y372617D01*
X490309Y372704D01*
X490354Y372792D01*
X490397Y372882D01*
X490436Y372974D01*
X490471Y373067D01*
X490503Y373161D01*
X490531Y373256D01*
X490556Y373352D01*
X490577Y373450D01*
X490594Y373548D01*
X490607Y373646D01*
X490616Y373745D01*
X490622Y373845D01*
X490624Y373944D01*
X490625Y373944D02*
X490625Y380436D01*
X490624Y380436D02*
X490622Y380535D01*
X490616Y380635D01*
X490607Y380734D01*
X490594Y380832D01*
X490577Y380930D01*
X490556Y381028D01*
X490531Y381124D01*
X490503Y381219D01*
X490471Y381313D01*
X490436Y381406D01*
X490397Y381498D01*
X490354Y381588D01*
X490309Y381676D01*
X490259Y381763D01*
X490207Y381847D01*
X490151Y381930D01*
X490093Y382010D01*
X490031Y382088D01*
X489966Y382163D01*
X489898Y382236D01*
X489828Y382306D01*
X489755Y382374D01*
X489680Y382439D01*
X489602Y382501D01*
X489522Y382559D01*
X489439Y382615D01*
X489355Y382667D01*
X489268Y382717D01*
X489180Y382762D01*
X489090Y382805D01*
X488998Y382844D01*
X488905Y382879D01*
X488811Y382911D01*
X488716Y382939D01*
X488620Y382964D01*
X488522Y382985D01*
X488424Y383002D01*
X488326Y383015D01*
X488227Y383024D01*
X488127Y383030D01*
X488028Y383032D01*
X485432Y383032D01*
X477496Y383032D02*
X477389Y383030D01*
X477283Y383024D01*
X477177Y383014D01*
X477071Y383001D01*
X476965Y382983D01*
X476861Y382962D01*
X476757Y382937D01*
X476654Y382908D01*
X476553Y382876D01*
X476453Y382839D01*
X476354Y382799D01*
X476256Y382756D01*
X476160Y382709D01*
X476066Y382658D01*
X475974Y382604D01*
X475884Y382547D01*
X475796Y382487D01*
X475711Y382423D01*
X475628Y382356D01*
X475547Y382286D01*
X475469Y382214D01*
X475393Y382138D01*
X475321Y382060D01*
X475251Y381979D01*
X475184Y381896D01*
X475120Y381811D01*
X475060Y381723D01*
X475003Y381633D01*
X474949Y381541D01*
X474898Y381447D01*
X474851Y381351D01*
X474808Y381253D01*
X474768Y381154D01*
X474731Y381054D01*
X474699Y380953D01*
X474670Y380850D01*
X474645Y380746D01*
X474624Y380642D01*
X474606Y380536D01*
X474593Y380430D01*
X474583Y380324D01*
X474577Y380218D01*
X474575Y380111D01*
X477496Y383032D02*
X477617Y383030D01*
X477738Y383024D01*
X477858Y383014D01*
X477979Y383001D01*
X478098Y382983D01*
X478218Y382962D01*
X478336Y382937D01*
X478453Y382908D01*
X478570Y382875D01*
X478685Y382839D01*
X478799Y382798D01*
X478912Y382755D01*
X479024Y382707D01*
X479133Y382656D01*
X479241Y382601D01*
X479348Y382543D01*
X479452Y382482D01*
X479554Y382417D01*
X479654Y382349D01*
X479752Y382278D01*
X479848Y382204D01*
X479941Y382127D01*
X480031Y382046D01*
X480119Y381963D01*
X480204Y381877D01*
X480287Y381788D01*
X480366Y381697D01*
X480443Y381603D01*
X480516Y381507D01*
X480586Y381409D01*
X480653Y381308D01*
X480717Y381205D01*
X480778Y381100D01*
X480835Y380993D01*
X480888Y380885D01*
X480938Y380775D01*
X480984Y380663D01*
X481027Y380550D01*
X481066Y380435D01*
X475550Y377839D02*
X475471Y377917D01*
X475395Y377997D01*
X475322Y378080D01*
X475252Y378166D01*
X475185Y378253D01*
X475121Y378344D01*
X475061Y378436D01*
X475003Y378530D01*
X474949Y378627D01*
X474899Y378725D01*
X474852Y378825D01*
X474808Y378926D01*
X474768Y379029D01*
X474732Y379134D01*
X474700Y379239D01*
X474671Y379346D01*
X474646Y379453D01*
X474624Y379562D01*
X474607Y379671D01*
X474593Y379780D01*
X474584Y379890D01*
X474578Y380001D01*
X474576Y380111D01*
X475549Y377839D02*
X481066Y371348D01*
X474575Y371348D01*
X536232Y371348D02*
X538828Y371348D01*
X538927Y371350D01*
X539027Y371356D01*
X539126Y371365D01*
X539224Y371378D01*
X539322Y371395D01*
X539420Y371416D01*
X539516Y371441D01*
X539611Y371469D01*
X539705Y371501D01*
X539798Y371536D01*
X539890Y371575D01*
X539980Y371618D01*
X540068Y371663D01*
X540155Y371713D01*
X540239Y371765D01*
X540322Y371821D01*
X540402Y371879D01*
X540480Y371941D01*
X540555Y372006D01*
X540628Y372074D01*
X540698Y372144D01*
X540766Y372217D01*
X540831Y372292D01*
X540893Y372370D01*
X540951Y372450D01*
X541007Y372533D01*
X541059Y372617D01*
X541109Y372704D01*
X541154Y372792D01*
X541197Y372882D01*
X541236Y372974D01*
X541271Y373067D01*
X541303Y373161D01*
X541331Y373256D01*
X541356Y373352D01*
X541377Y373450D01*
X541394Y373548D01*
X541407Y373646D01*
X541416Y373745D01*
X541422Y373845D01*
X541424Y373944D01*
X541425Y373944D02*
X541425Y380436D01*
X541424Y380436D02*
X541422Y380535D01*
X541416Y380635D01*
X541407Y380734D01*
X541394Y380832D01*
X541377Y380930D01*
X541356Y381028D01*
X541331Y381124D01*
X541303Y381219D01*
X541271Y381313D01*
X541236Y381406D01*
X541197Y381498D01*
X541154Y381588D01*
X541109Y381676D01*
X541059Y381763D01*
X541007Y381847D01*
X540951Y381930D01*
X540893Y382010D01*
X540831Y382088D01*
X540766Y382163D01*
X540698Y382236D01*
X540628Y382306D01*
X540555Y382374D01*
X540480Y382439D01*
X540402Y382501D01*
X540322Y382559D01*
X540239Y382615D01*
X540155Y382667D01*
X540068Y382717D01*
X539980Y382762D01*
X539890Y382805D01*
X539798Y382844D01*
X539705Y382879D01*
X539611Y382911D01*
X539516Y382939D01*
X539420Y382964D01*
X539322Y382985D01*
X539224Y383002D01*
X539126Y383015D01*
X539027Y383024D01*
X538927Y383030D01*
X538828Y383032D01*
X536232Y383032D01*
X531866Y371348D02*
X528621Y371348D01*
X528508Y371350D01*
X528395Y371356D01*
X528282Y371366D01*
X528169Y371380D01*
X528057Y371397D01*
X527946Y371419D01*
X527836Y371444D01*
X527726Y371474D01*
X527618Y371507D01*
X527511Y371544D01*
X527405Y371584D01*
X527301Y371629D01*
X527198Y371677D01*
X527097Y371728D01*
X526998Y371783D01*
X526901Y371841D01*
X526806Y371903D01*
X526713Y371968D01*
X526623Y372036D01*
X526535Y372107D01*
X526449Y372182D01*
X526366Y372259D01*
X526286Y372339D01*
X526209Y372422D01*
X526134Y372508D01*
X526063Y372596D01*
X525995Y372686D01*
X525930Y372779D01*
X525868Y372874D01*
X525810Y372971D01*
X525755Y373070D01*
X525704Y373171D01*
X525656Y373274D01*
X525611Y373378D01*
X525571Y373484D01*
X525534Y373591D01*
X525501Y373699D01*
X525471Y373809D01*
X525446Y373919D01*
X525424Y374030D01*
X525407Y374142D01*
X525393Y374255D01*
X525383Y374368D01*
X525377Y374481D01*
X525375Y374594D01*
X525377Y374707D01*
X525383Y374820D01*
X525393Y374933D01*
X525407Y375046D01*
X525424Y375158D01*
X525446Y375269D01*
X525471Y375379D01*
X525501Y375489D01*
X525534Y375597D01*
X525571Y375704D01*
X525611Y375810D01*
X525656Y375914D01*
X525704Y376017D01*
X525755Y376118D01*
X525810Y376217D01*
X525868Y376314D01*
X525930Y376409D01*
X525995Y376502D01*
X526063Y376592D01*
X526134Y376680D01*
X526209Y376766D01*
X526286Y376849D01*
X526366Y376929D01*
X526449Y377006D01*
X526535Y377081D01*
X526623Y377152D01*
X526713Y377220D01*
X526806Y377285D01*
X526901Y377347D01*
X526998Y377405D01*
X527097Y377460D01*
X527198Y377511D01*
X527301Y377559D01*
X527405Y377604D01*
X527511Y377644D01*
X527618Y377681D01*
X527726Y377714D01*
X527836Y377744D01*
X527946Y377769D01*
X528057Y377791D01*
X528169Y377808D01*
X528282Y377822D01*
X528395Y377832D01*
X528508Y377838D01*
X528621Y377840D01*
X527972Y383032D02*
X531866Y383032D01*
X527972Y383032D02*
X527871Y383030D01*
X527771Y383024D01*
X527671Y383014D01*
X527571Y383001D01*
X527472Y382983D01*
X527373Y382962D01*
X527276Y382937D01*
X527179Y382908D01*
X527084Y382875D01*
X526990Y382839D01*
X526898Y382799D01*
X526807Y382756D01*
X526718Y382709D01*
X526631Y382659D01*
X526545Y382605D01*
X526462Y382548D01*
X526382Y382488D01*
X526303Y382425D01*
X526227Y382358D01*
X526154Y382289D01*
X526084Y382217D01*
X526016Y382143D01*
X525951Y382066D01*
X525890Y381986D01*
X525831Y381904D01*
X525776Y381820D01*
X525724Y381734D01*
X525675Y381646D01*
X525630Y381556D01*
X525588Y381464D01*
X525550Y381371D01*
X525516Y381276D01*
X525485Y381181D01*
X525458Y381084D01*
X525435Y380986D01*
X525415Y380887D01*
X525400Y380787D01*
X525388Y380687D01*
X525380Y380587D01*
X525376Y380486D01*
X525376Y380386D01*
X525380Y380285D01*
X525388Y380185D01*
X525400Y380085D01*
X525415Y379985D01*
X525435Y379886D01*
X525458Y379788D01*
X525485Y379691D01*
X525516Y379596D01*
X525550Y379501D01*
X525588Y379408D01*
X525630Y379316D01*
X525675Y379226D01*
X525724Y379138D01*
X525776Y379052D01*
X525831Y378968D01*
X525890Y378886D01*
X525951Y378806D01*
X526016Y378729D01*
X526084Y378655D01*
X526154Y378583D01*
X526227Y378514D01*
X526303Y378447D01*
X526382Y378384D01*
X526462Y378324D01*
X526545Y378267D01*
X526631Y378213D01*
X526718Y378163D01*
X526807Y378116D01*
X526898Y378073D01*
X526990Y378033D01*
X527084Y377997D01*
X527179Y377964D01*
X527276Y377935D01*
X527373Y377910D01*
X527472Y377889D01*
X527571Y377871D01*
X527671Y377858D01*
X527771Y377848D01*
X527871Y377842D01*
X527972Y377840D01*
X527972Y377839D02*
X530568Y377839D01*
X637832Y371348D02*
X640428Y371348D01*
X640527Y371350D01*
X640627Y371356D01*
X640726Y371365D01*
X640824Y371378D01*
X640922Y371395D01*
X641020Y371416D01*
X641116Y371441D01*
X641211Y371469D01*
X641305Y371501D01*
X641398Y371536D01*
X641490Y371575D01*
X641580Y371618D01*
X641668Y371663D01*
X641755Y371713D01*
X641839Y371765D01*
X641922Y371821D01*
X642002Y371879D01*
X642080Y371941D01*
X642155Y372006D01*
X642228Y372074D01*
X642298Y372144D01*
X642366Y372217D01*
X642431Y372292D01*
X642493Y372370D01*
X642551Y372450D01*
X642607Y372533D01*
X642659Y372617D01*
X642709Y372704D01*
X642754Y372792D01*
X642797Y372882D01*
X642836Y372974D01*
X642871Y373067D01*
X642903Y373161D01*
X642931Y373256D01*
X642956Y373352D01*
X642977Y373450D01*
X642994Y373548D01*
X643007Y373646D01*
X643016Y373745D01*
X643022Y373845D01*
X643024Y373944D01*
X643025Y373944D02*
X643025Y380436D01*
X643024Y380436D02*
X643022Y380535D01*
X643016Y380635D01*
X643007Y380734D01*
X642994Y380832D01*
X642977Y380930D01*
X642956Y381028D01*
X642931Y381124D01*
X642903Y381219D01*
X642871Y381313D01*
X642836Y381406D01*
X642797Y381498D01*
X642754Y381588D01*
X642709Y381676D01*
X642659Y381763D01*
X642607Y381847D01*
X642551Y381930D01*
X642493Y382010D01*
X642431Y382088D01*
X642366Y382163D01*
X642298Y382236D01*
X642228Y382306D01*
X642155Y382374D01*
X642080Y382439D01*
X642002Y382501D01*
X641922Y382559D01*
X641839Y382615D01*
X641755Y382667D01*
X641668Y382717D01*
X641580Y382762D01*
X641490Y382805D01*
X641398Y382844D01*
X641305Y382879D01*
X641211Y382911D01*
X641116Y382939D01*
X641020Y382964D01*
X640922Y382985D01*
X640824Y383002D01*
X640726Y383015D01*
X640627Y383024D01*
X640527Y383030D01*
X640428Y383032D01*
X637832Y383032D01*
X630870Y383032D02*
X633466Y373944D01*
X626975Y373944D01*
X628923Y371348D02*
X628923Y376541D01*
X637832Y328168D02*
X640428Y328168D01*
X640527Y328170D01*
X640627Y328176D01*
X640726Y328185D01*
X640824Y328198D01*
X640922Y328215D01*
X641020Y328236D01*
X641116Y328261D01*
X641211Y328289D01*
X641305Y328321D01*
X641398Y328356D01*
X641490Y328395D01*
X641580Y328438D01*
X641668Y328483D01*
X641755Y328533D01*
X641839Y328585D01*
X641922Y328641D01*
X642002Y328699D01*
X642080Y328761D01*
X642155Y328826D01*
X642228Y328894D01*
X642298Y328964D01*
X642366Y329037D01*
X642431Y329112D01*
X642493Y329190D01*
X642551Y329270D01*
X642607Y329353D01*
X642659Y329437D01*
X642709Y329524D01*
X642754Y329612D01*
X642797Y329702D01*
X642836Y329794D01*
X642871Y329887D01*
X642903Y329981D01*
X642931Y330076D01*
X642956Y330172D01*
X642977Y330270D01*
X642994Y330368D01*
X643007Y330466D01*
X643016Y330565D01*
X643022Y330665D01*
X643024Y330764D01*
X643025Y330764D02*
X643025Y337256D01*
X643024Y337256D02*
X643022Y337355D01*
X643016Y337455D01*
X643007Y337554D01*
X642994Y337652D01*
X642977Y337750D01*
X642956Y337848D01*
X642931Y337944D01*
X642903Y338039D01*
X642871Y338133D01*
X642836Y338226D01*
X642797Y338318D01*
X642754Y338408D01*
X642709Y338496D01*
X642659Y338583D01*
X642607Y338667D01*
X642551Y338750D01*
X642493Y338830D01*
X642431Y338908D01*
X642366Y338983D01*
X642298Y339056D01*
X642228Y339126D01*
X642155Y339194D01*
X642080Y339259D01*
X642002Y339321D01*
X641922Y339379D01*
X641839Y339435D01*
X641755Y339487D01*
X641668Y339537D01*
X641580Y339582D01*
X641490Y339625D01*
X641398Y339664D01*
X641305Y339699D01*
X641211Y339731D01*
X641116Y339759D01*
X641020Y339784D01*
X640922Y339805D01*
X640824Y339822D01*
X640726Y339835D01*
X640627Y339844D01*
X640527Y339850D01*
X640428Y339852D01*
X637832Y339852D01*
X633466Y328168D02*
X629572Y328168D01*
X629473Y328170D01*
X629373Y328176D01*
X629274Y328185D01*
X629176Y328198D01*
X629078Y328215D01*
X628980Y328236D01*
X628884Y328261D01*
X628789Y328289D01*
X628695Y328321D01*
X628602Y328356D01*
X628510Y328395D01*
X628420Y328438D01*
X628332Y328483D01*
X628245Y328533D01*
X628161Y328585D01*
X628078Y328641D01*
X627998Y328699D01*
X627920Y328761D01*
X627845Y328826D01*
X627772Y328894D01*
X627702Y328964D01*
X627634Y329037D01*
X627569Y329112D01*
X627507Y329190D01*
X627449Y329270D01*
X627393Y329353D01*
X627341Y329437D01*
X627291Y329524D01*
X627246Y329612D01*
X627203Y329702D01*
X627164Y329794D01*
X627129Y329887D01*
X627097Y329981D01*
X627069Y330076D01*
X627044Y330172D01*
X627023Y330270D01*
X627006Y330368D01*
X626993Y330466D01*
X626984Y330565D01*
X626978Y330665D01*
X626976Y330764D01*
X626975Y330764D02*
X626975Y332063D01*
X626976Y332063D02*
X626978Y332162D01*
X626984Y332262D01*
X626993Y332361D01*
X627006Y332459D01*
X627023Y332557D01*
X627044Y332655D01*
X627069Y332751D01*
X627097Y332846D01*
X627129Y332940D01*
X627164Y333033D01*
X627203Y333125D01*
X627246Y333215D01*
X627291Y333303D01*
X627341Y333390D01*
X627393Y333474D01*
X627449Y333557D01*
X627507Y333637D01*
X627569Y333715D01*
X627634Y333790D01*
X627702Y333863D01*
X627772Y333933D01*
X627845Y334001D01*
X627920Y334066D01*
X627998Y334128D01*
X628078Y334186D01*
X628161Y334242D01*
X628245Y334294D01*
X628332Y334344D01*
X628420Y334389D01*
X628510Y334432D01*
X628602Y334471D01*
X628695Y334506D01*
X628789Y334538D01*
X628884Y334566D01*
X628980Y334591D01*
X629078Y334612D01*
X629176Y334629D01*
X629274Y334642D01*
X629373Y334651D01*
X629473Y334657D01*
X629572Y334659D01*
X633466Y334659D01*
X633466Y339852D01*
X626975Y339852D01*
X564228Y201168D02*
X561632Y201168D01*
X564228Y201168D02*
X564327Y201170D01*
X564427Y201176D01*
X564526Y201185D01*
X564624Y201198D01*
X564722Y201215D01*
X564820Y201236D01*
X564916Y201261D01*
X565011Y201289D01*
X565105Y201321D01*
X565198Y201356D01*
X565290Y201395D01*
X565380Y201438D01*
X565468Y201483D01*
X565555Y201533D01*
X565639Y201585D01*
X565722Y201641D01*
X565802Y201699D01*
X565880Y201761D01*
X565955Y201826D01*
X566028Y201894D01*
X566098Y201964D01*
X566166Y202037D01*
X566231Y202112D01*
X566293Y202190D01*
X566351Y202270D01*
X566407Y202353D01*
X566459Y202437D01*
X566509Y202524D01*
X566554Y202612D01*
X566597Y202702D01*
X566636Y202794D01*
X566671Y202887D01*
X566703Y202981D01*
X566731Y203076D01*
X566756Y203172D01*
X566777Y203270D01*
X566794Y203368D01*
X566807Y203466D01*
X566816Y203565D01*
X566822Y203665D01*
X566824Y203764D01*
X566825Y203764D02*
X566825Y210256D01*
X566824Y210256D02*
X566822Y210355D01*
X566816Y210455D01*
X566807Y210554D01*
X566794Y210652D01*
X566777Y210750D01*
X566756Y210848D01*
X566731Y210944D01*
X566703Y211039D01*
X566671Y211133D01*
X566636Y211226D01*
X566597Y211318D01*
X566554Y211408D01*
X566509Y211496D01*
X566459Y211583D01*
X566407Y211667D01*
X566351Y211750D01*
X566293Y211830D01*
X566231Y211908D01*
X566166Y211983D01*
X566098Y212056D01*
X566028Y212126D01*
X565955Y212194D01*
X565880Y212259D01*
X565802Y212321D01*
X565722Y212379D01*
X565639Y212435D01*
X565555Y212487D01*
X565468Y212537D01*
X565380Y212582D01*
X565290Y212625D01*
X565198Y212664D01*
X565105Y212699D01*
X565011Y212731D01*
X564916Y212759D01*
X564820Y212784D01*
X564722Y212805D01*
X564624Y212822D01*
X564526Y212835D01*
X564427Y212844D01*
X564327Y212850D01*
X564228Y212852D01*
X561632Y212852D01*
X557266Y207659D02*
X553372Y207659D01*
X553273Y207657D01*
X553173Y207651D01*
X553074Y207642D01*
X552976Y207629D01*
X552878Y207612D01*
X552780Y207591D01*
X552684Y207566D01*
X552589Y207538D01*
X552495Y207506D01*
X552402Y207471D01*
X552310Y207432D01*
X552220Y207389D01*
X552132Y207344D01*
X552045Y207294D01*
X551961Y207242D01*
X551878Y207186D01*
X551798Y207128D01*
X551720Y207066D01*
X551645Y207001D01*
X551572Y206933D01*
X551502Y206863D01*
X551434Y206790D01*
X551369Y206715D01*
X551307Y206637D01*
X551249Y206557D01*
X551193Y206474D01*
X551141Y206390D01*
X551091Y206303D01*
X551046Y206215D01*
X551003Y206125D01*
X550964Y206033D01*
X550929Y205940D01*
X550897Y205846D01*
X550869Y205751D01*
X550844Y205655D01*
X550823Y205557D01*
X550806Y205459D01*
X550793Y205361D01*
X550784Y205262D01*
X550778Y205162D01*
X550776Y205063D01*
X550775Y205063D02*
X550775Y204414D01*
X550777Y204301D01*
X550783Y204188D01*
X550793Y204075D01*
X550807Y203962D01*
X550824Y203850D01*
X550846Y203739D01*
X550871Y203629D01*
X550901Y203519D01*
X550934Y203411D01*
X550971Y203304D01*
X551011Y203198D01*
X551056Y203094D01*
X551104Y202991D01*
X551155Y202890D01*
X551210Y202791D01*
X551268Y202694D01*
X551330Y202599D01*
X551395Y202506D01*
X551463Y202416D01*
X551534Y202328D01*
X551609Y202242D01*
X551686Y202159D01*
X551766Y202079D01*
X551849Y202002D01*
X551935Y201927D01*
X552023Y201856D01*
X552113Y201788D01*
X552206Y201723D01*
X552301Y201661D01*
X552398Y201603D01*
X552497Y201548D01*
X552598Y201497D01*
X552701Y201449D01*
X552805Y201404D01*
X552911Y201364D01*
X553018Y201327D01*
X553126Y201294D01*
X553236Y201264D01*
X553346Y201239D01*
X553457Y201217D01*
X553569Y201200D01*
X553682Y201186D01*
X553795Y201176D01*
X553908Y201170D01*
X554021Y201168D01*
X554134Y201170D01*
X554247Y201176D01*
X554360Y201186D01*
X554473Y201200D01*
X554585Y201217D01*
X554696Y201239D01*
X554806Y201264D01*
X554916Y201294D01*
X555024Y201327D01*
X555131Y201364D01*
X555237Y201404D01*
X555341Y201449D01*
X555444Y201497D01*
X555545Y201548D01*
X555644Y201603D01*
X555741Y201661D01*
X555836Y201723D01*
X555929Y201788D01*
X556019Y201856D01*
X556107Y201927D01*
X556193Y202002D01*
X556276Y202079D01*
X556356Y202159D01*
X556433Y202242D01*
X556508Y202328D01*
X556579Y202416D01*
X556647Y202506D01*
X556712Y202599D01*
X556774Y202694D01*
X556832Y202791D01*
X556887Y202890D01*
X556938Y202991D01*
X556986Y203094D01*
X557031Y203198D01*
X557071Y203304D01*
X557108Y203411D01*
X557141Y203519D01*
X557171Y203629D01*
X557196Y203739D01*
X557218Y203850D01*
X557235Y203962D01*
X557249Y204075D01*
X557259Y204188D01*
X557265Y204301D01*
X557267Y204414D01*
X557266Y204414D02*
X557266Y207659D01*
X557267Y207659D02*
X557265Y207802D01*
X557259Y207945D01*
X557249Y208088D01*
X557235Y208230D01*
X557218Y208372D01*
X557196Y208514D01*
X557171Y208655D01*
X557141Y208795D01*
X557108Y208934D01*
X557071Y209072D01*
X557030Y209209D01*
X556986Y209345D01*
X556937Y209480D01*
X556885Y209613D01*
X556830Y209745D01*
X556770Y209875D01*
X556707Y210004D01*
X556641Y210131D01*
X556571Y210256D01*
X556498Y210378D01*
X556421Y210499D01*
X556341Y210618D01*
X556258Y210734D01*
X556172Y210849D01*
X556083Y210960D01*
X555990Y211070D01*
X555895Y211176D01*
X555796Y211280D01*
X555695Y211381D01*
X555591Y211480D01*
X555485Y211575D01*
X555375Y211668D01*
X555264Y211757D01*
X555149Y211843D01*
X555033Y211926D01*
X554914Y212006D01*
X554793Y212083D01*
X554671Y212156D01*
X554546Y212226D01*
X554419Y212292D01*
X554290Y212355D01*
X554160Y212415D01*
X554028Y212470D01*
X553895Y212522D01*
X553760Y212571D01*
X553624Y212615D01*
X553487Y212656D01*
X553349Y212693D01*
X553210Y212726D01*
X553070Y212756D01*
X552929Y212781D01*
X552787Y212803D01*
X552645Y212820D01*
X552503Y212834D01*
X552360Y212844D01*
X552217Y212850D01*
X552074Y212852D01*
X637832Y201168D02*
X640428Y201168D01*
X640527Y201170D01*
X640627Y201176D01*
X640726Y201185D01*
X640824Y201198D01*
X640922Y201215D01*
X641020Y201236D01*
X641116Y201261D01*
X641211Y201289D01*
X641305Y201321D01*
X641398Y201356D01*
X641490Y201395D01*
X641580Y201438D01*
X641668Y201483D01*
X641755Y201533D01*
X641839Y201585D01*
X641922Y201641D01*
X642002Y201699D01*
X642080Y201761D01*
X642155Y201826D01*
X642228Y201894D01*
X642298Y201964D01*
X642366Y202037D01*
X642431Y202112D01*
X642493Y202190D01*
X642551Y202270D01*
X642607Y202353D01*
X642659Y202437D01*
X642709Y202524D01*
X642754Y202612D01*
X642797Y202702D01*
X642836Y202794D01*
X642871Y202887D01*
X642903Y202981D01*
X642931Y203076D01*
X642956Y203172D01*
X642977Y203270D01*
X642994Y203368D01*
X643007Y203466D01*
X643016Y203565D01*
X643022Y203665D01*
X643024Y203764D01*
X643025Y203764D02*
X643025Y210256D01*
X643024Y210256D02*
X643022Y210355D01*
X643016Y210455D01*
X643007Y210554D01*
X642994Y210652D01*
X642977Y210750D01*
X642956Y210848D01*
X642931Y210944D01*
X642903Y211039D01*
X642871Y211133D01*
X642836Y211226D01*
X642797Y211318D01*
X642754Y211408D01*
X642709Y211496D01*
X642659Y211583D01*
X642607Y211667D01*
X642551Y211750D01*
X642493Y211830D01*
X642431Y211908D01*
X642366Y211983D01*
X642298Y212056D01*
X642228Y212126D01*
X642155Y212194D01*
X642080Y212259D01*
X642002Y212321D01*
X641922Y212379D01*
X641839Y212435D01*
X641755Y212487D01*
X641668Y212537D01*
X641580Y212582D01*
X641490Y212625D01*
X641398Y212664D01*
X641305Y212699D01*
X641211Y212731D01*
X641116Y212759D01*
X641020Y212784D01*
X640922Y212805D01*
X640824Y212822D01*
X640726Y212835D01*
X640627Y212844D01*
X640527Y212850D01*
X640428Y212852D01*
X637832Y212852D01*
X633466Y212852D02*
X633466Y211554D01*
X633466Y212852D02*
X626975Y212852D01*
X630221Y201168D01*
X488028Y201168D02*
X485432Y201168D01*
X488028Y201168D02*
X488127Y201170D01*
X488227Y201176D01*
X488326Y201185D01*
X488424Y201198D01*
X488522Y201215D01*
X488620Y201236D01*
X488716Y201261D01*
X488811Y201289D01*
X488905Y201321D01*
X488998Y201356D01*
X489090Y201395D01*
X489180Y201438D01*
X489268Y201483D01*
X489355Y201533D01*
X489439Y201585D01*
X489522Y201641D01*
X489602Y201699D01*
X489680Y201761D01*
X489755Y201826D01*
X489828Y201894D01*
X489898Y201964D01*
X489966Y202037D01*
X490031Y202112D01*
X490093Y202190D01*
X490151Y202270D01*
X490207Y202353D01*
X490259Y202437D01*
X490309Y202524D01*
X490354Y202612D01*
X490397Y202702D01*
X490436Y202794D01*
X490471Y202887D01*
X490503Y202981D01*
X490531Y203076D01*
X490556Y203172D01*
X490577Y203270D01*
X490594Y203368D01*
X490607Y203466D01*
X490616Y203565D01*
X490622Y203665D01*
X490624Y203764D01*
X490625Y203764D02*
X490625Y210256D01*
X490624Y210256D02*
X490622Y210355D01*
X490616Y210455D01*
X490607Y210554D01*
X490594Y210652D01*
X490577Y210750D01*
X490556Y210848D01*
X490531Y210944D01*
X490503Y211039D01*
X490471Y211133D01*
X490436Y211226D01*
X490397Y211318D01*
X490354Y211408D01*
X490309Y211496D01*
X490259Y211583D01*
X490207Y211667D01*
X490151Y211750D01*
X490093Y211830D01*
X490031Y211908D01*
X489966Y211983D01*
X489898Y212056D01*
X489828Y212126D01*
X489755Y212194D01*
X489680Y212259D01*
X489602Y212321D01*
X489522Y212379D01*
X489439Y212435D01*
X489355Y212487D01*
X489268Y212537D01*
X489180Y212582D01*
X489090Y212625D01*
X488998Y212664D01*
X488905Y212699D01*
X488811Y212731D01*
X488716Y212759D01*
X488620Y212784D01*
X488522Y212805D01*
X488424Y212822D01*
X488326Y212835D01*
X488227Y212844D01*
X488127Y212850D01*
X488028Y212852D01*
X485432Y212852D01*
X481067Y204414D02*
X481065Y204527D01*
X481059Y204640D01*
X481049Y204753D01*
X481035Y204866D01*
X481018Y204978D01*
X480996Y205089D01*
X480971Y205199D01*
X480941Y205309D01*
X480908Y205417D01*
X480871Y205524D01*
X480831Y205630D01*
X480786Y205734D01*
X480738Y205837D01*
X480687Y205938D01*
X480632Y206037D01*
X480574Y206134D01*
X480512Y206229D01*
X480447Y206322D01*
X480379Y206412D01*
X480308Y206500D01*
X480233Y206586D01*
X480156Y206669D01*
X480076Y206749D01*
X479993Y206826D01*
X479907Y206901D01*
X479819Y206972D01*
X479729Y207040D01*
X479636Y207105D01*
X479541Y207167D01*
X479444Y207225D01*
X479345Y207280D01*
X479244Y207331D01*
X479141Y207379D01*
X479037Y207424D01*
X478931Y207464D01*
X478824Y207501D01*
X478716Y207534D01*
X478606Y207564D01*
X478496Y207589D01*
X478385Y207611D01*
X478273Y207628D01*
X478160Y207642D01*
X478047Y207652D01*
X477934Y207658D01*
X477821Y207660D01*
X477708Y207658D01*
X477595Y207652D01*
X477482Y207642D01*
X477369Y207628D01*
X477257Y207611D01*
X477146Y207589D01*
X477036Y207564D01*
X476926Y207534D01*
X476818Y207501D01*
X476711Y207464D01*
X476605Y207424D01*
X476501Y207379D01*
X476398Y207331D01*
X476297Y207280D01*
X476198Y207225D01*
X476101Y207167D01*
X476006Y207105D01*
X475913Y207040D01*
X475823Y206972D01*
X475735Y206901D01*
X475649Y206826D01*
X475566Y206749D01*
X475486Y206669D01*
X475409Y206586D01*
X475334Y206500D01*
X475263Y206412D01*
X475195Y206322D01*
X475130Y206229D01*
X475068Y206134D01*
X475010Y206037D01*
X474955Y205938D01*
X474904Y205837D01*
X474856Y205734D01*
X474811Y205630D01*
X474771Y205524D01*
X474734Y205417D01*
X474701Y205309D01*
X474671Y205199D01*
X474646Y205089D01*
X474624Y204978D01*
X474607Y204866D01*
X474593Y204753D01*
X474583Y204640D01*
X474577Y204527D01*
X474575Y204414D01*
X474577Y204301D01*
X474583Y204188D01*
X474593Y204075D01*
X474607Y203962D01*
X474624Y203850D01*
X474646Y203739D01*
X474671Y203629D01*
X474701Y203519D01*
X474734Y203411D01*
X474771Y203304D01*
X474811Y203198D01*
X474856Y203094D01*
X474904Y202991D01*
X474955Y202890D01*
X475010Y202791D01*
X475068Y202694D01*
X475130Y202599D01*
X475195Y202506D01*
X475263Y202416D01*
X475334Y202328D01*
X475409Y202242D01*
X475486Y202159D01*
X475566Y202079D01*
X475649Y202002D01*
X475735Y201927D01*
X475823Y201856D01*
X475913Y201788D01*
X476006Y201723D01*
X476101Y201661D01*
X476198Y201603D01*
X476297Y201548D01*
X476398Y201497D01*
X476501Y201449D01*
X476605Y201404D01*
X476711Y201364D01*
X476818Y201327D01*
X476926Y201294D01*
X477036Y201264D01*
X477146Y201239D01*
X477257Y201217D01*
X477369Y201200D01*
X477482Y201186D01*
X477595Y201176D01*
X477708Y201170D01*
X477821Y201168D01*
X477934Y201170D01*
X478047Y201176D01*
X478160Y201186D01*
X478273Y201200D01*
X478385Y201217D01*
X478496Y201239D01*
X478606Y201264D01*
X478716Y201294D01*
X478824Y201327D01*
X478931Y201364D01*
X479037Y201404D01*
X479141Y201449D01*
X479244Y201497D01*
X479345Y201548D01*
X479444Y201603D01*
X479541Y201661D01*
X479636Y201723D01*
X479729Y201788D01*
X479819Y201856D01*
X479907Y201927D01*
X479993Y202002D01*
X480076Y202079D01*
X480156Y202159D01*
X480233Y202242D01*
X480308Y202328D01*
X480379Y202416D01*
X480447Y202506D01*
X480512Y202599D01*
X480574Y202694D01*
X480632Y202791D01*
X480687Y202890D01*
X480738Y202991D01*
X480786Y203094D01*
X480831Y203198D01*
X480871Y203304D01*
X480908Y203411D01*
X480941Y203519D01*
X480971Y203629D01*
X480996Y203739D01*
X481018Y203850D01*
X481035Y203962D01*
X481049Y204075D01*
X481059Y204188D01*
X481065Y204301D01*
X481067Y204414D01*
X480417Y210256D02*
X480415Y210357D01*
X480409Y210457D01*
X480399Y210557D01*
X480386Y210657D01*
X480368Y210756D01*
X480347Y210855D01*
X480322Y210952D01*
X480293Y211049D01*
X480260Y211144D01*
X480224Y211238D01*
X480184Y211330D01*
X480141Y211421D01*
X480094Y211510D01*
X480044Y211597D01*
X479990Y211683D01*
X479933Y211766D01*
X479873Y211846D01*
X479810Y211925D01*
X479743Y212001D01*
X479674Y212074D01*
X479602Y212144D01*
X479528Y212212D01*
X479451Y212277D01*
X479371Y212338D01*
X479289Y212397D01*
X479205Y212452D01*
X479119Y212504D01*
X479031Y212553D01*
X478941Y212598D01*
X478849Y212640D01*
X478756Y212678D01*
X478661Y212712D01*
X478566Y212743D01*
X478469Y212770D01*
X478371Y212793D01*
X478272Y212813D01*
X478172Y212828D01*
X478072Y212840D01*
X477972Y212848D01*
X477871Y212852D01*
X477771Y212852D01*
X477670Y212848D01*
X477570Y212840D01*
X477470Y212828D01*
X477370Y212813D01*
X477271Y212793D01*
X477173Y212770D01*
X477076Y212743D01*
X476981Y212712D01*
X476886Y212678D01*
X476793Y212640D01*
X476701Y212598D01*
X476611Y212553D01*
X476523Y212504D01*
X476437Y212452D01*
X476353Y212397D01*
X476271Y212338D01*
X476191Y212277D01*
X476114Y212212D01*
X476040Y212144D01*
X475968Y212074D01*
X475899Y212001D01*
X475832Y211925D01*
X475769Y211846D01*
X475709Y211766D01*
X475652Y211683D01*
X475598Y211597D01*
X475548Y211510D01*
X475501Y211421D01*
X475458Y211330D01*
X475418Y211238D01*
X475382Y211144D01*
X475349Y211049D01*
X475320Y210952D01*
X475295Y210855D01*
X475274Y210756D01*
X475256Y210657D01*
X475243Y210557D01*
X475233Y210457D01*
X475227Y210357D01*
X475225Y210256D01*
X475227Y210155D01*
X475233Y210055D01*
X475243Y209955D01*
X475256Y209855D01*
X475274Y209756D01*
X475295Y209657D01*
X475320Y209560D01*
X475349Y209463D01*
X475382Y209368D01*
X475418Y209274D01*
X475458Y209182D01*
X475501Y209091D01*
X475548Y209002D01*
X475598Y208915D01*
X475652Y208829D01*
X475709Y208746D01*
X475769Y208666D01*
X475832Y208587D01*
X475899Y208511D01*
X475968Y208438D01*
X476040Y208368D01*
X476114Y208300D01*
X476191Y208235D01*
X476271Y208174D01*
X476353Y208115D01*
X476437Y208060D01*
X476523Y208008D01*
X476611Y207959D01*
X476701Y207914D01*
X476793Y207872D01*
X476886Y207834D01*
X476981Y207800D01*
X477076Y207769D01*
X477173Y207742D01*
X477271Y207719D01*
X477370Y207699D01*
X477470Y207684D01*
X477570Y207672D01*
X477670Y207664D01*
X477771Y207660D01*
X477871Y207660D01*
X477972Y207664D01*
X478072Y207672D01*
X478172Y207684D01*
X478272Y207699D01*
X478371Y207719D01*
X478469Y207742D01*
X478566Y207769D01*
X478661Y207800D01*
X478756Y207834D01*
X478849Y207872D01*
X478941Y207914D01*
X479031Y207959D01*
X479119Y208008D01*
X479205Y208060D01*
X479289Y208115D01*
X479371Y208174D01*
X479451Y208235D01*
X479528Y208300D01*
X479602Y208368D01*
X479674Y208438D01*
X479743Y208511D01*
X479810Y208587D01*
X479873Y208666D01*
X479933Y208746D01*
X479990Y208829D01*
X480044Y208915D01*
X480094Y209002D01*
X480141Y209091D01*
X480184Y209182D01*
X480224Y209274D01*
X480260Y209368D01*
X480293Y209463D01*
X480322Y209560D01*
X480347Y209657D01*
X480368Y209756D01*
X480386Y209855D01*
X480399Y209955D01*
X480409Y210055D01*
X480415Y210155D01*
X480417Y210256D01*
X462628Y251968D02*
X460032Y251968D01*
X462628Y251968D02*
X462727Y251970D01*
X462827Y251976D01*
X462926Y251985D01*
X463024Y251998D01*
X463122Y252015D01*
X463220Y252036D01*
X463316Y252061D01*
X463411Y252089D01*
X463505Y252121D01*
X463598Y252156D01*
X463690Y252195D01*
X463780Y252238D01*
X463868Y252283D01*
X463955Y252333D01*
X464039Y252385D01*
X464122Y252441D01*
X464202Y252499D01*
X464280Y252561D01*
X464355Y252626D01*
X464428Y252694D01*
X464498Y252764D01*
X464566Y252837D01*
X464631Y252912D01*
X464693Y252990D01*
X464751Y253070D01*
X464807Y253153D01*
X464859Y253237D01*
X464909Y253324D01*
X464954Y253412D01*
X464997Y253502D01*
X465036Y253594D01*
X465071Y253687D01*
X465103Y253781D01*
X465131Y253876D01*
X465156Y253972D01*
X465177Y254070D01*
X465194Y254168D01*
X465207Y254266D01*
X465216Y254365D01*
X465222Y254465D01*
X465224Y254564D01*
X465225Y254564D02*
X465225Y261056D01*
X465224Y261056D02*
X465222Y261155D01*
X465216Y261255D01*
X465207Y261354D01*
X465194Y261452D01*
X465177Y261550D01*
X465156Y261648D01*
X465131Y261744D01*
X465103Y261839D01*
X465071Y261933D01*
X465036Y262026D01*
X464997Y262118D01*
X464954Y262208D01*
X464909Y262296D01*
X464859Y262383D01*
X464807Y262467D01*
X464751Y262550D01*
X464693Y262630D01*
X464631Y262708D01*
X464566Y262783D01*
X464498Y262856D01*
X464428Y262926D01*
X464355Y262994D01*
X464280Y263059D01*
X464202Y263121D01*
X464122Y263179D01*
X464039Y263235D01*
X463955Y263287D01*
X463868Y263337D01*
X463780Y263382D01*
X463690Y263425D01*
X463598Y263464D01*
X463505Y263499D01*
X463411Y263531D01*
X463316Y263559D01*
X463220Y263584D01*
X463122Y263605D01*
X463024Y263622D01*
X462926Y263635D01*
X462827Y263644D01*
X462727Y263650D01*
X462628Y263652D01*
X460032Y263652D01*
X453070Y257161D02*
X449175Y257161D01*
X453070Y257161D02*
X453169Y257163D01*
X453269Y257169D01*
X453368Y257178D01*
X453466Y257191D01*
X453564Y257208D01*
X453662Y257229D01*
X453758Y257254D01*
X453853Y257282D01*
X453947Y257314D01*
X454040Y257349D01*
X454132Y257388D01*
X454222Y257431D01*
X454310Y257476D01*
X454397Y257526D01*
X454481Y257578D01*
X454564Y257634D01*
X454644Y257692D01*
X454722Y257754D01*
X454797Y257819D01*
X454870Y257887D01*
X454940Y257957D01*
X455008Y258030D01*
X455073Y258105D01*
X455135Y258183D01*
X455193Y258263D01*
X455249Y258346D01*
X455301Y258430D01*
X455351Y258517D01*
X455396Y258605D01*
X455439Y258695D01*
X455478Y258787D01*
X455513Y258880D01*
X455545Y258974D01*
X455573Y259069D01*
X455598Y259165D01*
X455619Y259263D01*
X455636Y259361D01*
X455649Y259459D01*
X455658Y259558D01*
X455664Y259658D01*
X455666Y259757D01*
X455666Y260406D01*
X455667Y260406D02*
X455665Y260519D01*
X455659Y260632D01*
X455649Y260745D01*
X455635Y260858D01*
X455618Y260970D01*
X455596Y261081D01*
X455571Y261191D01*
X455541Y261301D01*
X455508Y261409D01*
X455471Y261516D01*
X455431Y261622D01*
X455386Y261726D01*
X455338Y261829D01*
X455287Y261930D01*
X455232Y262029D01*
X455174Y262126D01*
X455112Y262221D01*
X455047Y262314D01*
X454979Y262404D01*
X454908Y262492D01*
X454833Y262578D01*
X454756Y262661D01*
X454676Y262741D01*
X454593Y262818D01*
X454507Y262893D01*
X454419Y262964D01*
X454329Y263032D01*
X454236Y263097D01*
X454141Y263159D01*
X454044Y263217D01*
X453945Y263272D01*
X453844Y263323D01*
X453741Y263371D01*
X453637Y263416D01*
X453531Y263456D01*
X453424Y263493D01*
X453316Y263526D01*
X453206Y263556D01*
X453096Y263581D01*
X452985Y263603D01*
X452873Y263620D01*
X452760Y263634D01*
X452647Y263644D01*
X452534Y263650D01*
X452421Y263652D01*
X452308Y263650D01*
X452195Y263644D01*
X452082Y263634D01*
X451969Y263620D01*
X451857Y263603D01*
X451746Y263581D01*
X451636Y263556D01*
X451526Y263526D01*
X451418Y263493D01*
X451311Y263456D01*
X451205Y263416D01*
X451101Y263371D01*
X450998Y263323D01*
X450897Y263272D01*
X450798Y263217D01*
X450701Y263159D01*
X450606Y263097D01*
X450513Y263032D01*
X450423Y262964D01*
X450335Y262893D01*
X450249Y262818D01*
X450166Y262741D01*
X450086Y262661D01*
X450009Y262578D01*
X449934Y262492D01*
X449863Y262404D01*
X449795Y262314D01*
X449730Y262221D01*
X449668Y262126D01*
X449610Y262029D01*
X449555Y261930D01*
X449504Y261829D01*
X449456Y261726D01*
X449411Y261622D01*
X449371Y261516D01*
X449334Y261409D01*
X449301Y261301D01*
X449271Y261191D01*
X449246Y261081D01*
X449224Y260970D01*
X449207Y260858D01*
X449193Y260745D01*
X449183Y260632D01*
X449177Y260519D01*
X449175Y260406D01*
X449175Y257161D01*
X449177Y257018D01*
X449183Y256875D01*
X449193Y256732D01*
X449207Y256590D01*
X449224Y256448D01*
X449246Y256306D01*
X449271Y256165D01*
X449301Y256025D01*
X449334Y255886D01*
X449371Y255748D01*
X449412Y255611D01*
X449456Y255475D01*
X449505Y255340D01*
X449557Y255207D01*
X449612Y255075D01*
X449672Y254945D01*
X449735Y254816D01*
X449801Y254689D01*
X449871Y254565D01*
X449944Y254442D01*
X450021Y254321D01*
X450101Y254202D01*
X450184Y254086D01*
X450270Y253971D01*
X450359Y253860D01*
X450452Y253750D01*
X450547Y253644D01*
X450646Y253540D01*
X450747Y253439D01*
X450851Y253340D01*
X450957Y253245D01*
X451067Y253152D01*
X451178Y253063D01*
X451293Y252977D01*
X451409Y252894D01*
X451528Y252814D01*
X451649Y252737D01*
X451771Y252664D01*
X451896Y252594D01*
X452023Y252528D01*
X452152Y252465D01*
X452282Y252405D01*
X452414Y252350D01*
X452547Y252298D01*
X452682Y252249D01*
X452818Y252205D01*
X452955Y252164D01*
X453093Y252127D01*
X453232Y252094D01*
X453372Y252064D01*
X453513Y252039D01*
X453655Y252017D01*
X453797Y252000D01*
X453939Y251986D01*
X454082Y251976D01*
X454225Y251970D01*
X454368Y251968D01*
X315943Y455168D02*
X313347Y455168D01*
X315943Y455168D02*
X316042Y455170D01*
X316142Y455176D01*
X316241Y455185D01*
X316339Y455198D01*
X316437Y455215D01*
X316535Y455236D01*
X316631Y455261D01*
X316726Y455289D01*
X316820Y455321D01*
X316913Y455356D01*
X317005Y455395D01*
X317095Y455438D01*
X317183Y455483D01*
X317270Y455533D01*
X317354Y455585D01*
X317437Y455641D01*
X317517Y455699D01*
X317595Y455761D01*
X317670Y455826D01*
X317743Y455894D01*
X317813Y455964D01*
X317881Y456037D01*
X317946Y456112D01*
X318008Y456190D01*
X318066Y456270D01*
X318122Y456353D01*
X318174Y456437D01*
X318224Y456524D01*
X318269Y456612D01*
X318312Y456702D01*
X318351Y456794D01*
X318386Y456887D01*
X318418Y456981D01*
X318446Y457076D01*
X318471Y457172D01*
X318492Y457270D01*
X318509Y457368D01*
X318522Y457466D01*
X318531Y457565D01*
X318537Y457665D01*
X318539Y457764D01*
X318540Y457764D02*
X318540Y464256D01*
X318539Y464256D02*
X318537Y464355D01*
X318531Y464455D01*
X318522Y464554D01*
X318509Y464652D01*
X318492Y464750D01*
X318471Y464848D01*
X318446Y464944D01*
X318418Y465039D01*
X318386Y465133D01*
X318351Y465226D01*
X318312Y465318D01*
X318269Y465408D01*
X318224Y465496D01*
X318174Y465583D01*
X318122Y465667D01*
X318066Y465750D01*
X318008Y465830D01*
X317946Y465908D01*
X317881Y465983D01*
X317813Y466056D01*
X317743Y466126D01*
X317670Y466194D01*
X317595Y466259D01*
X317517Y466321D01*
X317437Y466379D01*
X317354Y466435D01*
X317270Y466487D01*
X317183Y466537D01*
X317095Y466582D01*
X317005Y466625D01*
X316913Y466664D01*
X316820Y466699D01*
X316726Y466731D01*
X316631Y466759D01*
X316535Y466784D01*
X316437Y466805D01*
X316339Y466822D01*
X316241Y466835D01*
X316142Y466844D01*
X316042Y466850D01*
X315943Y466852D01*
X313347Y466852D01*
X308981Y464256D02*
X305736Y466852D01*
X305736Y455168D01*
X308981Y455168D02*
X302490Y455168D01*
X297552Y461010D02*
X297549Y461240D01*
X297541Y461470D01*
X297527Y461699D01*
X297508Y461928D01*
X297483Y462157D01*
X297453Y462385D01*
X297418Y462612D01*
X297377Y462838D01*
X297331Y463063D01*
X297279Y463287D01*
X297222Y463510D01*
X297160Y463731D01*
X297092Y463951D01*
X297019Y464169D01*
X296941Y464385D01*
X296858Y464599D01*
X296770Y464812D01*
X296677Y465022D01*
X296578Y465229D01*
X296545Y465319D01*
X296509Y465408D01*
X296469Y465496D01*
X296425Y465581D01*
X296378Y465665D01*
X296328Y465747D01*
X296274Y465827D01*
X296218Y465904D01*
X296158Y465980D01*
X296095Y466053D01*
X296030Y466123D01*
X295961Y466191D01*
X295890Y466255D01*
X295817Y466317D01*
X295741Y466376D01*
X295663Y466432D01*
X295582Y466485D01*
X295500Y466534D01*
X295416Y466580D01*
X295329Y466623D01*
X295242Y466662D01*
X295152Y466698D01*
X295062Y466730D01*
X294970Y466758D01*
X294877Y466783D01*
X294783Y466804D01*
X294689Y466821D01*
X294594Y466835D01*
X294498Y466844D01*
X294402Y466850D01*
X294306Y466852D01*
X294210Y466850D01*
X294114Y466844D01*
X294018Y466835D01*
X293923Y466821D01*
X293829Y466804D01*
X293735Y466783D01*
X293642Y466758D01*
X293550Y466730D01*
X293460Y466698D01*
X293370Y466662D01*
X293283Y466623D01*
X293196Y466580D01*
X293112Y466534D01*
X293030Y466485D01*
X292949Y466432D01*
X292871Y466376D01*
X292795Y466317D01*
X292722Y466255D01*
X292651Y466191D01*
X292582Y466123D01*
X292517Y466053D01*
X292454Y465980D01*
X292394Y465905D01*
X292338Y465827D01*
X292284Y465747D01*
X292234Y465665D01*
X292187Y465581D01*
X292144Y465496D01*
X292103Y465408D01*
X292067Y465319D01*
X292034Y465229D01*
X292035Y465229D02*
X291936Y465021D01*
X291843Y464811D01*
X291755Y464599D01*
X291672Y464385D01*
X291594Y464168D01*
X291521Y463950D01*
X291453Y463731D01*
X291391Y463509D01*
X291334Y463287D01*
X291282Y463063D01*
X291236Y462838D01*
X291195Y462612D01*
X291160Y462384D01*
X291130Y462157D01*
X291105Y461928D01*
X291086Y461699D01*
X291072Y461470D01*
X291064Y461240D01*
X291061Y461010D01*
X297552Y461010D02*
X297549Y460780D01*
X297541Y460550D01*
X297527Y460321D01*
X297508Y460092D01*
X297483Y459863D01*
X297453Y459635D01*
X297418Y459408D01*
X297377Y459182D01*
X297331Y458957D01*
X297279Y458733D01*
X297222Y458510D01*
X297160Y458289D01*
X297092Y458069D01*
X297019Y457851D01*
X296941Y457635D01*
X296858Y457421D01*
X296770Y457209D01*
X296677Y456998D01*
X296578Y456791D01*
X296545Y456701D01*
X296509Y456612D01*
X296468Y456524D01*
X296425Y456439D01*
X296378Y456355D01*
X296328Y456273D01*
X296274Y456193D01*
X296218Y456116D01*
X296158Y456040D01*
X296095Y455967D01*
X296030Y455897D01*
X295961Y455829D01*
X295890Y455765D01*
X295817Y455703D01*
X295741Y455644D01*
X295663Y455588D01*
X295582Y455535D01*
X295500Y455486D01*
X295416Y455440D01*
X295329Y455397D01*
X295242Y455358D01*
X295152Y455322D01*
X295062Y455290D01*
X294970Y455262D01*
X294877Y455237D01*
X294783Y455216D01*
X294689Y455199D01*
X294594Y455185D01*
X294498Y455176D01*
X294402Y455170D01*
X294306Y455168D01*
X292034Y456791D02*
X291935Y456998D01*
X291842Y457209D01*
X291754Y457421D01*
X291671Y457635D01*
X291593Y457851D01*
X291520Y458069D01*
X291452Y458289D01*
X291390Y458510D01*
X291333Y458733D01*
X291281Y458957D01*
X291235Y459182D01*
X291194Y459408D01*
X291159Y459635D01*
X291129Y459863D01*
X291104Y460092D01*
X291085Y460321D01*
X291071Y460550D01*
X291063Y460780D01*
X291060Y461010D01*
X292034Y456791D02*
X292067Y456701D01*
X292103Y456612D01*
X292144Y456524D01*
X292187Y456439D01*
X292234Y456355D01*
X292284Y456273D01*
X292338Y456193D01*
X292394Y456115D01*
X292454Y456040D01*
X292517Y455967D01*
X292582Y455897D01*
X292651Y455829D01*
X292722Y455765D01*
X292795Y455703D01*
X292871Y455644D01*
X292949Y455588D01*
X293030Y455535D01*
X293112Y455486D01*
X293196Y455440D01*
X293283Y455397D01*
X293370Y455358D01*
X293460Y455322D01*
X293550Y455290D01*
X293642Y455262D01*
X293735Y455237D01*
X293829Y455216D01*
X293923Y455199D01*
X294018Y455185D01*
X294114Y455176D01*
X294210Y455170D01*
X294306Y455168D01*
X296902Y457764D02*
X291709Y464256D01*
X214343Y455168D02*
X211747Y455168D01*
X214343Y455168D02*
X214442Y455170D01*
X214542Y455176D01*
X214641Y455185D01*
X214739Y455198D01*
X214837Y455215D01*
X214935Y455236D01*
X215031Y455261D01*
X215126Y455289D01*
X215220Y455321D01*
X215313Y455356D01*
X215405Y455395D01*
X215495Y455438D01*
X215583Y455483D01*
X215670Y455533D01*
X215754Y455585D01*
X215837Y455641D01*
X215917Y455699D01*
X215995Y455761D01*
X216070Y455826D01*
X216143Y455894D01*
X216213Y455964D01*
X216281Y456037D01*
X216346Y456112D01*
X216408Y456190D01*
X216466Y456270D01*
X216522Y456353D01*
X216574Y456437D01*
X216624Y456524D01*
X216669Y456612D01*
X216712Y456702D01*
X216751Y456794D01*
X216786Y456887D01*
X216818Y456981D01*
X216846Y457076D01*
X216871Y457172D01*
X216892Y457270D01*
X216909Y457368D01*
X216922Y457466D01*
X216931Y457565D01*
X216937Y457665D01*
X216939Y457764D01*
X216940Y457764D02*
X216940Y464256D01*
X216939Y464256D02*
X216937Y464355D01*
X216931Y464455D01*
X216922Y464554D01*
X216909Y464652D01*
X216892Y464750D01*
X216871Y464848D01*
X216846Y464944D01*
X216818Y465039D01*
X216786Y465133D01*
X216751Y465226D01*
X216712Y465318D01*
X216669Y465408D01*
X216624Y465496D01*
X216574Y465583D01*
X216522Y465667D01*
X216466Y465750D01*
X216408Y465830D01*
X216346Y465908D01*
X216281Y465983D01*
X216213Y466056D01*
X216143Y466126D01*
X216070Y466194D01*
X215995Y466259D01*
X215917Y466321D01*
X215837Y466379D01*
X215754Y466435D01*
X215670Y466487D01*
X215583Y466537D01*
X215495Y466582D01*
X215405Y466625D01*
X215313Y466664D01*
X215220Y466699D01*
X215126Y466731D01*
X215031Y466759D01*
X214935Y466784D01*
X214837Y466805D01*
X214739Y466822D01*
X214641Y466835D01*
X214542Y466844D01*
X214442Y466850D01*
X214343Y466852D01*
X211747Y466852D01*
X207381Y464256D02*
X204136Y466852D01*
X204136Y455168D01*
X207381Y455168D02*
X200890Y455168D01*
X195951Y464256D02*
X192706Y466852D01*
X192706Y455168D01*
X195951Y455168D02*
X189460Y455168D01*
X418479Y32258D02*
X421076Y32258D01*
X421175Y32260D01*
X421275Y32266D01*
X421374Y32275D01*
X421472Y32288D01*
X421570Y32305D01*
X421668Y32326D01*
X421764Y32351D01*
X421859Y32379D01*
X421953Y32411D01*
X422046Y32446D01*
X422138Y32485D01*
X422228Y32528D01*
X422316Y32573D01*
X422403Y32623D01*
X422487Y32675D01*
X422570Y32731D01*
X422650Y32789D01*
X422728Y32851D01*
X422803Y32916D01*
X422876Y32984D01*
X422946Y33054D01*
X423014Y33127D01*
X423079Y33202D01*
X423141Y33280D01*
X423199Y33360D01*
X423255Y33443D01*
X423307Y33527D01*
X423357Y33614D01*
X423402Y33702D01*
X423445Y33792D01*
X423484Y33884D01*
X423519Y33977D01*
X423551Y34071D01*
X423579Y34166D01*
X423604Y34262D01*
X423625Y34360D01*
X423642Y34458D01*
X423655Y34556D01*
X423664Y34655D01*
X423670Y34755D01*
X423672Y34854D01*
X423672Y41346D01*
X423670Y41445D01*
X423664Y41545D01*
X423655Y41644D01*
X423642Y41742D01*
X423625Y41840D01*
X423604Y41938D01*
X423579Y42034D01*
X423551Y42129D01*
X423519Y42223D01*
X423484Y42316D01*
X423445Y42408D01*
X423402Y42498D01*
X423357Y42586D01*
X423307Y42673D01*
X423255Y42757D01*
X423199Y42840D01*
X423141Y42920D01*
X423079Y42998D01*
X423014Y43073D01*
X422946Y43146D01*
X422876Y43216D01*
X422803Y43284D01*
X422728Y43349D01*
X422650Y43411D01*
X422570Y43469D01*
X422487Y43525D01*
X422403Y43577D01*
X422316Y43627D01*
X422228Y43672D01*
X422138Y43715D01*
X422046Y43754D01*
X421953Y43789D01*
X421859Y43821D01*
X421764Y43849D01*
X421668Y43874D01*
X421570Y43895D01*
X421472Y43912D01*
X421374Y43925D01*
X421275Y43934D01*
X421175Y43940D01*
X421076Y43942D01*
X418479Y43942D01*
X414114Y41346D02*
X410868Y43942D01*
X410868Y32258D01*
X407623Y32258D02*
X414114Y32258D01*
X399114Y43942D02*
X399007Y43940D01*
X398901Y43934D01*
X398795Y43924D01*
X398689Y43911D01*
X398583Y43893D01*
X398479Y43872D01*
X398375Y43847D01*
X398272Y43818D01*
X398171Y43786D01*
X398071Y43749D01*
X397972Y43709D01*
X397874Y43666D01*
X397778Y43619D01*
X397684Y43568D01*
X397592Y43514D01*
X397502Y43457D01*
X397414Y43397D01*
X397329Y43333D01*
X397246Y43266D01*
X397165Y43196D01*
X397087Y43124D01*
X397011Y43048D01*
X396939Y42970D01*
X396869Y42889D01*
X396802Y42806D01*
X396738Y42721D01*
X396678Y42633D01*
X396621Y42543D01*
X396567Y42451D01*
X396516Y42357D01*
X396469Y42261D01*
X396426Y42163D01*
X396386Y42064D01*
X396349Y41964D01*
X396317Y41863D01*
X396288Y41760D01*
X396263Y41656D01*
X396242Y41552D01*
X396224Y41446D01*
X396211Y41340D01*
X396201Y41234D01*
X396195Y41128D01*
X396193Y41021D01*
X399114Y43942D02*
X399235Y43940D01*
X399356Y43934D01*
X399476Y43924D01*
X399597Y43911D01*
X399716Y43893D01*
X399836Y43872D01*
X399954Y43847D01*
X400071Y43818D01*
X400188Y43785D01*
X400303Y43749D01*
X400417Y43708D01*
X400530Y43665D01*
X400642Y43617D01*
X400751Y43566D01*
X400859Y43511D01*
X400966Y43453D01*
X401070Y43392D01*
X401172Y43327D01*
X401272Y43259D01*
X401370Y43188D01*
X401466Y43114D01*
X401559Y43037D01*
X401649Y42956D01*
X401737Y42873D01*
X401822Y42787D01*
X401905Y42698D01*
X401984Y42607D01*
X402061Y42513D01*
X402134Y42417D01*
X402204Y42319D01*
X402271Y42218D01*
X402335Y42115D01*
X402396Y42010D01*
X402453Y41903D01*
X402506Y41795D01*
X402556Y41685D01*
X402602Y41573D01*
X402645Y41460D01*
X402684Y41345D01*
X397167Y38749D02*
X397088Y38827D01*
X397012Y38907D01*
X396939Y38990D01*
X396869Y39076D01*
X396802Y39163D01*
X396738Y39254D01*
X396678Y39346D01*
X396620Y39440D01*
X396566Y39537D01*
X396516Y39635D01*
X396469Y39735D01*
X396425Y39836D01*
X396385Y39939D01*
X396349Y40044D01*
X396317Y40149D01*
X396288Y40256D01*
X396263Y40363D01*
X396241Y40472D01*
X396224Y40581D01*
X396210Y40690D01*
X396201Y40800D01*
X396195Y40911D01*
X396193Y41021D01*
X397166Y38749D02*
X402684Y32258D01*
X396193Y32258D01*
X902208Y647709D02*
X902208Y650306D01*
X902208Y647709D02*
X902210Y647610D01*
X902216Y647510D01*
X902225Y647411D01*
X902238Y647313D01*
X902255Y647215D01*
X902276Y647117D01*
X902301Y647021D01*
X902329Y646926D01*
X902361Y646832D01*
X902396Y646739D01*
X902435Y646647D01*
X902478Y646557D01*
X902523Y646469D01*
X902573Y646382D01*
X902625Y646298D01*
X902681Y646215D01*
X902739Y646135D01*
X902801Y646057D01*
X902866Y645982D01*
X902934Y645909D01*
X903004Y645839D01*
X903077Y645771D01*
X903152Y645706D01*
X903230Y645644D01*
X903310Y645586D01*
X903393Y645530D01*
X903477Y645478D01*
X903564Y645428D01*
X903652Y645383D01*
X903742Y645340D01*
X903834Y645301D01*
X903927Y645266D01*
X904021Y645234D01*
X904116Y645206D01*
X904212Y645181D01*
X904310Y645160D01*
X904408Y645143D01*
X904506Y645130D01*
X904605Y645121D01*
X904705Y645115D01*
X904804Y645113D01*
X911296Y645113D01*
X911395Y645115D01*
X911495Y645121D01*
X911594Y645130D01*
X911692Y645143D01*
X911790Y645160D01*
X911888Y645181D01*
X911984Y645206D01*
X912079Y645234D01*
X912173Y645266D01*
X912266Y645301D01*
X912358Y645340D01*
X912448Y645383D01*
X912536Y645428D01*
X912623Y645478D01*
X912707Y645530D01*
X912790Y645586D01*
X912870Y645644D01*
X912948Y645706D01*
X913023Y645771D01*
X913096Y645839D01*
X913166Y645909D01*
X913234Y645982D01*
X913299Y646057D01*
X913361Y646135D01*
X913419Y646215D01*
X913475Y646298D01*
X913527Y646382D01*
X913577Y646469D01*
X913622Y646557D01*
X913665Y646647D01*
X913704Y646739D01*
X913739Y646831D01*
X913771Y646926D01*
X913799Y647021D01*
X913824Y647117D01*
X913845Y647215D01*
X913862Y647313D01*
X913875Y647411D01*
X913884Y647510D01*
X913890Y647610D01*
X913892Y647709D01*
X913892Y650306D01*
X911296Y654671D02*
X913892Y657916D01*
X902208Y657916D01*
X902208Y654671D02*
X902208Y661162D01*
X904804Y666101D02*
X913892Y668697D01*
X904804Y666101D02*
X904804Y672592D01*
X907401Y670645D02*
X902208Y670645D01*
M02*
