M48
;GenerationSoftware,Autodesk,EAGLE,9.6.2*%
;CreationDate,2022-10-18T03:15:58Z*%
FMAT,2
ICI,OFF
METRIC,TZ,000.000
T5C0.400
T4C0.813
T3C0.914
T2C1.016
T1C3.000
%
G90
M71
T1
X3810Y67310
X102870Y67310
X3810Y-3810
X102870Y-3810
T2
X102870Y16510
X102870Y8890
X105410Y11430
X102870Y11430
X105410Y13970
X102870Y13970
X1270Y13970
X1270Y11430
X1270Y8890
X1270Y6350
X1270Y3810
X3810Y13970
X3810Y11430
X3810Y8890
X3810Y6350
X3810Y3810
X105410Y16510
X18990Y67410
X16490Y67410
X11490Y67410
X13990Y67410
X1270Y57150
X3810Y57150
X1270Y54610
X3810Y54610
X1270Y52070
X3810Y52070
X1270Y49530
X3810Y49530
X1270Y46990
X3810Y46990
X1270Y44450
X3810Y44450
X1270Y41910
X3810Y41910
X1270Y39370
X3810Y39370
X1270Y36830
X3810Y36830
X1270Y34290
X3810Y34290
X102870Y54610
X105410Y54610
X102870Y52070
X105410Y52070
X102870Y49530
X105410Y49530
X102870Y46990
X105410Y46990
X102870Y44450
X105410Y44450
X102870Y41910
X105410Y41910
X102870Y39370
X105410Y39370
X102870Y36830
X105410Y36830
X102870Y34290
X105410Y34290
X102870Y31750
X105410Y31750
X102870Y29210
X105410Y29210
X102870Y26670
X105410Y26670
X102870Y24130
X105410Y24130
X102870Y21590
X105410Y21590
X102870Y19050
X105410Y19050
X105410Y6350
X102870Y6350
X105410Y8890
T3
X59690Y62230
X59690Y59690
X57150Y64770
X57150Y62230
X57150Y59690
X85090Y74930
X85090Y72390
X87630Y72390
X87630Y74930
X90170Y72390
X90170Y74930
X92710Y72390
X92710Y74930
X74930Y1270
X74930Y3810
X77470Y1270
X77470Y3810
X80010Y1270
X80010Y3810
X82550Y1270
X82550Y3810
X85090Y1270
X85090Y3810
X87630Y1270
X87630Y3810
X90170Y1270
X90170Y3810
X92710Y1270
X92710Y3810
X95250Y1270
X95250Y3810
X97790Y1270
X97790Y3810
X72390Y64770
X72390Y62230
X72390Y59690
X69850Y64770
X69850Y62230
X69850Y59690
X67310Y64770
X67310Y62230
X67310Y59690
X64770Y64770
X64770Y62230
X64770Y59690
X62230Y64770
X62230Y62230
X62230Y59690
X59690Y64770
T4
X41910Y44450
X39370Y41910
X41910Y41910
X39370Y39370
X41910Y39370
X39370Y36830
X41910Y36830
X39370Y34290
X41910Y34290
X39370Y31750
X41910Y31750
X39370Y29210
X41910Y29210
X39370Y26670
X41910Y26670
X39370Y24130
X41910Y24130
X39370Y21590
X41910Y21590
X39370Y19050
X39370Y16510
X41910Y13970
X41910Y16510
X44450Y16510
X44450Y13970
X46990Y16510
X46990Y13970
X49530Y16510
X49530Y13970
X52070Y13970
X52070Y16510
X54610Y13970
X54610Y16510
X57150Y13970
X57150Y16510
X59690Y13970
X59690Y16510
X62230Y16510
X62230Y13970
X64770Y16510
X64770Y13970
X67310Y13970
X67310Y41910
X69850Y41910
X67310Y39370
X69850Y39370
X67310Y36830
X69850Y36830
X67310Y34290
X69850Y34290
X67310Y31750
X69850Y31750
X67310Y29210
X69850Y29210
X67310Y26670
X69850Y26670
X67310Y24130
X69850Y24130
X67310Y21590
X69850Y21590
X67310Y19050
X67310Y16510
X69850Y19050
X69850Y16510
X59690Y41910
X59690Y44450
X62230Y41910
X62230Y44450
X64770Y41910
X64770Y44450
X67310Y44450
X57150Y44450
X57150Y41910
X26670Y44450
X26670Y41910
X26670Y29210
X26670Y26670
X26670Y39370
X26670Y36830
X26670Y31750
X26670Y34290
X26670Y24130
X26670Y21590
X26670Y19050
X41910Y19050
X26670Y16510
X26670Y13970
X26670Y11430
X34290Y11430
X34290Y13970
X34290Y16510
X34290Y19050
X34290Y21590
X34290Y24130
X34290Y26670
X34290Y29210
X34290Y31750
X34290Y34290
X34290Y36830
X34290Y39370
X34290Y41910
X34290Y44450
X41910Y52070
X49530Y52070
X49530Y59690
X16510Y44450
X16510Y41910
X16510Y29210
X16510Y26670
X16510Y39370
X16510Y36830
X16510Y31750
X16510Y34290
X16510Y24130
X16510Y21590
X16510Y19050
X16510Y16510
X16510Y13970
X16510Y11430
X24130Y11430
X24130Y13970
X24130Y16510
X24130Y19050
X24130Y21590
X24130Y24130
X24130Y26670
X24130Y29210
X24130Y31750
X24130Y34290
X24130Y36830
X24130Y39370
X24130Y41910
X24130Y44450
X53086Y7620
X51054Y7620
X95250Y19050
X95250Y21590
X95250Y34290
X95250Y36830
X95250Y24130
X95250Y26670
X95250Y31750
X95250Y29210
X95250Y39370
X95250Y41910
X95250Y44450
X95250Y46990
X95250Y49530
X95250Y52070
X95250Y54610
X95250Y57150
X95250Y59690
X95250Y62230
X95250Y64770
X95250Y67310
X80010Y67310
X80010Y64770
X80010Y62230
X80010Y59690
X80010Y57150
X80010Y54610
X80010Y52070
X80010Y49530
X80010Y46990
X80010Y44450
X80010Y41910
X80010Y39370
X80010Y36830
X80010Y34290
X80010Y31750
X80010Y29210
X80010Y26670
X80010Y24130
X80010Y21590
X80010Y19050
X52070Y67310
X64770Y67310
X67310Y67310
X54610Y67310
X57150Y67310
X62230Y67310
X59690Y67310
X69850Y67310
X72390Y67310
X72390Y74930
X69850Y74930
X67310Y74930
X64770Y74930
X62230Y74930
X59690Y74930
X57150Y74930
X54610Y74930
X52070Y74930
X49530Y74930
X26670Y67310
X29210Y67310
X41910Y67310
X44450Y67310
X31750Y67310
X34290Y67310
X39370Y67310
X36830Y67310
X44450Y74930
X41910Y74930
X39370Y74930
X36830Y74930
X34290Y74930
X31750Y74930
X29210Y74930
X26670Y74930
X49530Y67310
X41910Y59690
X19558Y60960
X16002Y60960
X54610Y44450
X54610Y41910
X52070Y44450
X52070Y41910
X49530Y44450
X49530Y41910
X46990Y44450
X46990Y41910
X44450Y44450
X44450Y41910
T5
X44450Y1778
X34798Y6096
X27940Y45720
X44450Y5080
X20320Y5080
X20320Y3302
X20320Y1778
X20320Y6858
X6350Y41910
X6350Y44450
X6350Y48260
X10160Y48260
X12700Y48260
X11430Y55880
X6350Y55880
X6350Y60960
X20320Y55880
X31750Y50800
X27940Y55880
X38100Y66040
X35560Y50800
X45720Y55880
X21590Y64770
X72390Y-5080
X58420Y25400
X58420Y33020
X45720Y27940
X45720Y30480
X55880Y30480
X53340Y30480
X53340Y27940
X55880Y27940
X43180Y38100
X45720Y38100
X49530Y37084
X57150Y39370
X59690Y39370
X52070Y19050
X59690Y19050
X44450Y19050
X20320Y16510
X20320Y13970
X20320Y19050
X20320Y21590
X20320Y24130
X20320Y26670
X20320Y29210
X20320Y31750
X20320Y41910
X20320Y39370
X20320Y36830
X20320Y34290
X15240Y43180
X10160Y38100
X7620Y35560
X12700Y40640
X38100Y55880
X53340Y53340
X58420Y55880
X60960Y53340
X20320Y-5080
X20320Y0
X27940Y-5080
X27940Y0
X35560Y0
X35560Y-5080
X43180Y-5080
X50800Y-5080
X50800Y-1270
X58420Y-5080
X66040Y-5080
X72390Y-1270
X66040Y-1270
X58420Y-1270
X43180Y-1270
X49530Y3810
X57150Y8890
X62230Y8890
X67310Y8890
X8890Y7620
X15240Y1270
X12700Y1270
X17780Y1270
X52832Y10668
X38100Y6985
X33020Y6985
X38100Y5080
X38100Y1778
X1270Y69850
X6350Y69850
X6350Y64770
X1270Y64770
X100330Y69850
X105410Y69850
X105410Y64770
X100330Y64770
X100330Y-1270
X105410Y-1270
X105410Y-6350
X100330Y-6350
X1270Y-1270
X6350Y-1270
X6350Y-6350
X1270Y-6350
X27940Y3302
X27940Y5080
X27940Y6858
X50800Y2540
X57658Y4064
X59944Y4064
X65278Y4064
X72390Y5080
X69088Y3302
X70612Y3810
X38100Y0
X29210Y25400
X25400Y46990
X35560Y45720
X40640Y45720
X44450Y46736
X49784Y46736
X53594Y46736
X56134Y46736
X60960Y46736
X99060Y13970
X99060Y11430
X99060Y8890
X99060Y16510
X99060Y19050
X99060Y21590
X99060Y24130
X99060Y26670
X99060Y29210
X99060Y31750
X99060Y34290
X99060Y36830
X99060Y39370
X99060Y41910
X99060Y44450
X97790Y46990
X97790Y49530
X96520Y52070
X99060Y52070
X99060Y54610
X99060Y57150
X99060Y62230
X92710Y60960
X92710Y58420
X86360Y60960
X86360Y58420
X76200Y66040
X77470Y63500
X73660Y71120
X77470Y71120
X81280Y71120
X69850Y71120
X67310Y71120
X62230Y71120
X49530Y71120
X45720Y69850
X47371Y65405
X52070Y64770
X48260Y63500
X44450Y60960
X27940Y60960
X77470Y54610
X77470Y52070
X77470Y49530
X77470Y46990
X77470Y44450
X77470Y41910
X77470Y39370
X77470Y36830
X77470Y34290
X77470Y31750
X78740Y29210
X78740Y26670
X78740Y24130
X73660Y26670
X77470Y22860
X77470Y20320
X77470Y17780
X74930Y22860
X74930Y20320
X77470Y15240
X74930Y17780
X74930Y15240
X74930Y12700
X74930Y10160
X72390Y7620
X36830Y39370
X33528Y38100
X46228Y11938
X96520Y39370
X96520Y36830
X96520Y34290
X96520Y31750
X96520Y29210
X96520Y26670
X96520Y24130
X96520Y21590
X66040Y46736
X68580Y46736
X69850Y44450
X66548Y35560
X64770Y35560
X85344Y49784
X85344Y52070
X85344Y46990
X85344Y44450
X82296Y59690
X83312Y57150
X84328Y54610
X86360Y52070
X88900Y49530
X91440Y46990
X81534Y39370
X82550Y36830
X30480Y21844
X36830Y41656
X28956Y42164
X28956Y39624
X36830Y26924
X83566Y34290
X85090Y31750
X87630Y29210
X90170Y26670
X93218Y24130
X59690Y72898
X64770Y72390
X69850Y72898
X43180Y5588
X66548Y4572
X45720Y5080
X61214Y4572
X67056Y3048
X61976Y3048
X56896Y3048
X45974Y-762
X55880Y3810
X50038Y10668
X66294Y33274
X88138Y19050
X88900Y66040
X64770Y34290
X87376Y37084
X64770Y28956
X66548Y30226
X66802Y48514
X99060Y48768
X52578Y58420
X76200Y5080
X38100Y52070
X64770Y50800
X77470Y57150
X36830Y29464
X36830Y32004
X36830Y34544
X28956Y28956
X28956Y31496
X28956Y34036
X28956Y36576
X40640Y13208
X43180Y15240
X85344Y29210
X48260Y60960
X51816Y60960
X54610Y60960
X37338Y24130
X37338Y21336
X37338Y18796
X30480Y11684
X30480Y14224
X30480Y16764
X30480Y19304
X89408Y21590
X87376Y32258
X92710Y34798
X87376Y34798
X85344Y34798
X87376Y39624
X89154Y8890
X89154Y11430
X89154Y13970
X89154Y16510
X89662Y19050
X82042Y8890
X82042Y11430
X78740Y9144
X78740Y13970
X78740Y11684
X82042Y13970
X92202Y8890
X85344Y8890
X85344Y11430
X92202Y11430
X92202Y13970
X85344Y13970
X85344Y16510
X85344Y18796
X85344Y21844
X85344Y24130
X85344Y26670
X91948Y19050
X91948Y21590
X91948Y24130
X92710Y26416
X92710Y39624
X85344Y39624
X85344Y37084
X92710Y37084
X92710Y32004
X92456Y54356
X86360Y54356
X92710Y63500
X54610Y37084
X92710Y29972
X92710Y42164
X87376Y42164
X85344Y42164
X87376Y44450
X87376Y46990
X87122Y49784
X92964Y44450
X90170Y66040
M30