M48
; DRILL file {KiCad (7.0.0)} date Thu Mar 30 16:00:34 2023
; FORMAT={-:-/ absolute / inch / decimal}
; #@! TF.CreationDate,2023-03-30T16:00:34-05:00
; #@! TF.GenerationSoftware,Kicad,Pcbnew,(7.0.0)
; #@! TF.FileFunction,Plated,1,4,PTH
FMAT,2
INCH
; #@! TA.AperFunction,Plated,PTH,ViaDrill
T1C0.0118
; #@! TA.AperFunction,Plated,PTH,ViaDrill
T2C0.0197
; #@! TA.AperFunction,Plated,PTH,ComponentDrill
T3C0.0236
; #@! TA.AperFunction,Plated,PTH,ComponentDrill
T4C0.0295
; #@! TA.AperFunction,Plated,PTH,ComponentDrill
T5C0.0300
; #@! TA.AperFunction,Plated,PTH,ComponentDrill
T6C0.0315
; #@! TA.AperFunction,Plated,PTH,ComponentDrill
T7C0.0320
; #@! TA.AperFunction,Plated,PTH,ComponentDrill
T8C0.0350
; #@! TA.AperFunction,Plated,PTH,ComponentDrill
T9C0.0354
; #@! TA.AperFunction,Plated,PTH,ComponentDrill
T10C0.0394
; #@! TA.AperFunction,Plated,PTH,ComponentDrill
T11C0.0433
; #@! TA.AperFunction,Plated,PTH,ComponentDrill
T12C0.0551
; #@! TA.AperFunction,Plated,PTH,ComponentDrill
T13C0.0640
; #@! TA.AperFunction,Plated,PTH,ComponentDrill
T14C0.0669
; #@! TA.AperFunction,Plated,PTH,ComponentDrill
T15C0.0900
; #@! TA.AperFunction,Plated,PTH,ComponentDrill
T16C0.0950
; #@! TA.AperFunction,Plated,PTH,ComponentDrill
T17C0.1260
; #@! TA.AperFunction,Plated,PTH,ComponentDrill
T18C0.1575
%
G90
G05
T1
X1.2Y-9.725
X1.25Y-9.75
X1.275Y-7.2
X1.375Y-4.3
X1.375Y-4.4
X1.375Y-5.05
X1.4Y-2.325
X1.4Y-2.5
X1.4Y-2.7
X1.4Y-7.35
X1.4Y-8.925
X1.45Y-7.025
X1.45Y-7.525
X1.45Y-9.95
X1.5Y-5.05
X1.575Y-3.025
X1.575Y-3.075
X1.575Y-3.125
X1.575Y-3.2
X1.575Y-3.3
X1.575Y-3.4
X1.575Y-3.5
X1.575Y-3.6
X1.575Y-3.675
X1.575Y-3.725
X1.575Y-3.775
X1.575Y-3.875
X1.575Y-3.925
X1.575Y-3.975
X1.575Y-4.025
X1.575Y-4.075
X1.575Y-4.125
X1.575Y-4.175
X1.575Y-4.225
X1.575Y-4.675
X1.59Y-4.75
X1.6Y-7.85
X1.6Y-8.05
X1.6Y-8.25
X1.6Y-9.15
X1.6Y-9.3
X1.6Y-9.675
X1.625Y-9.825
X1.65Y-7.575
X1.65Y-10.05
X1.7Y-6.15
X1.7Y-7.85
X1.7Y-8.05
X1.7Y-8.25
X1.7Y-8.625
X1.72Y-6.0625
X1.725Y-3.025
X1.725Y-3.075
X1.725Y-3.125
X1.75Y-3.2
X1.75Y-3.3
X1.8Y-7.85
X1.8Y-8.05
X1.8Y-8.45
X1.8Y-8.55
X1.8Y-8.65
X1.8Y-9.5
X1.825Y-2.3
X1.825Y-2.5
X1.825Y-2.7
X1.825Y-2.775
X1.825Y-2.825
X1.825Y-2.875
X1.825Y-2.925
X1.825Y-2.975
X1.825Y-3.425
X1.825Y-3.5
X1.825Y-3.6
X1.825Y-3.675
X1.825Y-3.725
X1.825Y-3.775
X1.825Y-3.825
X1.825Y-3.875
X1.825Y-3.925
X1.825Y-3.975
X1.825Y-4.025
X1.825Y-4.075
X1.825Y-4.125
X1.825Y-4.175
X1.825Y-4.225
X1.825Y-4.3
X1.825Y-4.4
X1.825Y-4.5
X1.825Y-4.8
X1.825Y-5.05
X1.825Y-5.9
X1.825Y-6.0
X1.825Y-6.1
X1.825Y-6.2
X1.825Y-6.3
X1.825Y-6.4
X1.825Y-6.5
X1.825Y-6.6
X1.825Y-6.7
X1.825Y-6.775
X1.825Y-6.825
X1.825Y-6.9
X1.825Y-6.975
X1.825Y-9.7
X1.85Y-3.2
X1.85Y-3.3
X1.875Y-8.3
X1.875Y-8.35
X1.875Y-8.45
X1.875Y-8.55
X1.875Y-8.65
X1.9Y-7.85
X1.9Y-7.925
X1.9Y-8.05
X1.925Y-8.55
X1.925Y-9.9
X1.95Y-3.2
X1.95Y-3.4
X1.95Y-3.5
X1.95Y-3.6
X1.95Y-3.675
X1.95Y-3.725
X1.95Y-3.775
X1.95Y-3.825
X1.95Y-3.875
X1.95Y-3.925
X1.95Y-3.975
X1.95Y-4.025
X1.95Y-7.85
X1.95Y-7.925
X1.95Y-8.2
X1.95Y-9.4
X1.975Y-8.475
X1.975Y-8.925
X2.0Y-7.85
X2.0Y-7.925
X2.0Y-8.15
X2.025Y-3.35
X2.025Y-3.45
X2.025Y-3.55
X2.025Y-3.65
X2.025Y-4.45
X2.025Y-5.05
X2.025Y-8.375
X2.05Y-7.85
X2.05Y-7.925
X2.05Y-8.1
X2.075Y-8.35
X2.075Y-8.425
X2.075Y-8.525
X2.075Y-8.575
X2.075Y-8.65
X2.075Y-9.325
X2.075Y-9.425
X2.075Y-9.575
X2.1Y-7.925
X2.1Y-8.1
X2.1Y-8.2
X2.1Y-8.925
X2.1Y-9.675
X2.125Y-8.65
X2.125Y-9.425
X2.125Y-9.575
X2.15Y-5.175
X2.1734Y-6.5541
X2.175Y-3.25
X2.175Y-3.35
X2.175Y-3.45
X2.175Y-3.55
X2.175Y-3.65
X2.175Y-4.35
X2.175Y-4.45
X2.175Y-5.95
X2.175Y-6.05
X2.175Y-6.15
X2.175Y-6.25
X2.175Y-6.35
X2.175Y-6.45
X2.175Y-6.65
X2.175Y-6.75
X2.175Y-7.025
X2.175Y-8.325
X2.175Y-8.425
X2.175Y-8.525
X2.175Y-8.575
X2.175Y-8.625
X2.18Y-7.85
X2.2Y-7.425
X2.2Y-7.475
X2.2Y-7.9
X2.2Y-9.55
X2.225Y-9.375
X2.225Y-9.9
X2.25Y-6.9
X2.25Y-7.025
X2.275Y-7.9
X2.275Y-8.1
X2.275Y-8.2
X2.275Y-8.325
X2.275Y-8.4
X2.275Y-8.525
X2.275Y-8.575
X2.275Y-8.625
X2.275Y-8.95
X2.275Y-9.475
X2.3Y-5.05
X2.3Y-7.95
X2.3Y-8.425
X2.3Y-9.55
X2.3Y-9.65
X2.325Y-7.925
X2.325Y-8.15
X2.325Y-8.325
X2.325Y-8.4
X2.325Y-8.525
X2.325Y-8.575
X2.325Y-8.625
X2.325Y-9.9
X2.375Y-2.7
X2.375Y-2.775
X2.375Y-2.825
X2.375Y-2.875
X2.375Y-2.925
X2.375Y-2.975
X2.375Y-3.025
X2.375Y-3.075
X2.375Y-3.125
X2.375Y-3.2
X2.375Y-3.3
X2.375Y-3.4
X2.375Y-3.5
X2.375Y-3.6
X2.375Y-3.675
X2.375Y-3.725
X2.375Y-3.775
X2.375Y-3.825
X2.375Y-3.875
X2.375Y-3.925
X2.375Y-3.975
X2.375Y-4.025
X2.375Y-4.075
X2.375Y-4.125
X2.375Y-4.175
X2.375Y-4.225
X2.375Y-4.3
X2.375Y-4.4
X2.375Y-4.475
X2.375Y-4.525
X2.375Y-4.8
X2.375Y-5.325
X2.375Y-7.875
X2.4Y-2.3
X2.4Y-2.5
X2.4Y-5.375
X2.4Y-5.425
X2.4Y-5.475
X2.4Y-5.525
X2.4Y-5.575
X2.4Y-5.625
X2.4Y-5.675
X2.4Y-8.15
X2.4Y-8.325
X2.4Y-9.4
X2.425Y-8.4
X2.425Y-8.45
X2.425Y-8.575
X2.425Y-8.625
X2.425Y-9.9
X2.45Y-8.225
X2.475Y-7.0
X2.5Y-2.5
X2.5Y-3.2
X2.5Y-3.3
X2.5Y-3.4
X2.5Y-3.5
X2.5Y-3.6
X2.5Y-3.8
X2.5Y-10.0
X2.55Y-5.15
X2.55Y-9.8
X2.55Y-9.9
X2.575Y-2.5
X2.575Y-2.7
X2.575Y-2.775
X2.575Y-2.825
X2.575Y-2.875
X2.575Y-2.925
X2.575Y-2.975
X2.575Y-3.025
X2.575Y-3.075
X2.575Y-3.125
X2.575Y-3.2
X2.575Y-3.3
X2.575Y-3.4
X2.575Y-3.5
X2.575Y-3.6
X2.575Y-3.675
X2.575Y-3.725
X2.575Y-3.775
X2.575Y-3.825
X2.575Y-3.875
X2.575Y-3.925
X2.575Y-3.975
X2.575Y-4.025
X2.575Y-4.075
X2.575Y-4.125
X2.575Y-4.175
X2.575Y-4.225
X2.575Y-4.3
X2.575Y-4.4
X2.575Y-4.475
X2.575Y-4.525
X2.575Y-4.8
X2.575Y-4.95
X2.575Y-7.65
X2.575Y-7.9
X2.575Y-8.9
X2.575Y-9.05
X2.6Y-2.3
X2.6Y-5.225
X2.6Y-5.275
X2.6Y-5.325
X2.6Y-5.375
X2.6Y-5.425
X2.6Y-5.475
X2.6Y-5.525
X2.6Y-5.575
X2.6Y-5.625
X2.6Y-5.675
X2.6Y-5.725
X2.6Y-5.775
X2.6Y-5.825
X2.6Y-5.9
X2.6Y-6.0
X2.6Y-6.1
X2.6Y-6.2
X2.6Y-6.3
X2.6Y-6.4
X2.6Y-6.5
X2.6Y-6.6
X2.6Y-6.7
X2.6Y-6.825
X2.6Y-6.9
X2.6Y-6.975
X2.675Y-7.65
X2.675Y-8.7
X2.675Y-8.75
X2.7Y-2.3
X2.7Y-9.875
X2.725Y-9.65
X2.75Y-7.3
X2.75Y-9.35
X2.75Y-9.8
X2.775Y-7.325
X2.8Y-9.9
X2.825Y-1.9
X2.825Y-4.95
X2.85Y-9.725
X2.875Y-9.7
X2.9Y-4.925
X2.9Y-4.975
X2.9Y-9.675
X2.925Y-9.65
X2.95Y-9.625
X2.975Y-2.85
X2.975Y-5.025
X2.975Y-6.125
X2.975Y-9.6
X3.0Y-3.025
X3.0Y-3.125
X3.0Y-3.225
X3.0Y-3.325
X3.0Y-3.425
X3.0Y-3.525
X3.0Y-3.625
X3.0Y-3.725
X3.0Y-3.825
X3.0Y-3.925
X3.0Y-4.025
X3.0Y-4.125
X3.0Y-4.225
X3.0Y-4.325
X3.0Y-4.425
X3.0Y-4.525
X3.0Y-4.625
X3.0Y-4.725
X3.0Y-4.825
X3.0Y-5.2
X3.0Y-8.625
X3.0Y-9.4
X3.025Y-8.49
X3.025Y-8.55
X3.025Y-8.7
X3.025Y-8.9
X3.025Y-9.175
X3.025Y-9.675
X3.025Y-9.775
X3.025Y-9.875
X3.075Y-5.175
X3.125Y-9.875
X3.175Y-2.8
X3.175Y-3.125
X3.2Y-1.85
X3.2Y-5.6
X3.2Y-6.025
X3.225Y-2.0
X3.225Y-2.2
X3.225Y-2.3
X3.225Y-2.4
X3.225Y-2.5
X3.225Y-2.6
X3.25Y-2.75
X3.25Y-3.85
X3.25Y-4.075
X3.25Y-4.2
X3.25Y-4.3
X3.25Y-4.4
X3.25Y-4.5
X3.25Y-4.6
X3.25Y-4.7
X3.25Y-4.8
X3.25Y-4.95
X3.25Y-6.25
X3.25Y-7.675
X3.25Y-7.725
X3.25Y-7.775
X3.25Y-7.85
X3.25Y-7.9
X3.25Y-8.05
X3.25Y-8.1
X3.25Y-8.175
X3.25Y-8.25
X3.25Y-8.35
X3.25Y-8.425
X3.25Y-8.475
X3.25Y-8.85
X3.275Y-3.05
X3.275Y-3.225
X3.275Y-3.325
X3.275Y-3.425
X3.275Y-3.525
X3.275Y-3.625
X3.275Y-4.875
X3.275Y-5.125
X3.275Y-7.55
X3.275Y-7.5875
X3.275Y-7.625
X3.275Y-7.7
X3.275Y-7.8
X3.275Y-8.825
X3.275Y-9.125
X3.275Y-9.425
X3.275Y-9.875
X3.275Y-10.025
X3.3Y-7.325
X3.3Y-8.1
X3.3Y-8.175
X3.3Y-8.25
X3.3Y-8.425
X3.3Y-8.55
X3.3Y-8.75
X3.325Y-1.95
X3.325Y-2.05
X3.325Y-2.15
X3.325Y-2.25
X3.325Y-2.35
X3.325Y-2.45
X3.325Y-2.55
X3.325Y-2.65
X3.325Y-9.475
X3.35Y-7.525
X3.35Y-9.525
X3.375Y-7.45
X3.375Y-7.625
X3.375Y-7.7
X3.375Y-9.25
X3.4Y-3.95
X3.4Y-5.125
X3.4Y-9.55
X3.4Y-9.8
X3.425Y-7.65
X3.425Y-9.35
X3.45Y-3.3875
X3.475Y-3.4125
X3.475Y-9.025
X3.475Y-9.35
X3.5Y-3.4875
X3.5Y-7.25
X3.5Y-7.35
X3.5Y-7.5
X3.5Y-9.625
X3.525Y-3.5125
X3.525Y-9.35
X3.55Y-2.05
X3.55Y-2.15
X3.55Y-2.25
X3.55Y-3.5875
X3.55Y-7.9
X3.55Y-9.45
X3.575Y-3.6125
X3.575Y-7.925
X3.575Y-8.275
X3.575Y-9.35
X3.575Y-9.8
X3.6Y-3.6875
X3.625Y-3.7125
X3.625Y-7.35
X3.65Y-6.5
X3.65Y-7.625
X3.65Y-8.45
X3.65Y-8.675
X3.65Y-8.75
X3.65Y-10.025
X3.65Y-10.1
X3.675Y-9.0
X3.675Y-9.8
X3.7Y-5.1
X3.7Y-8.4
X3.725Y-8.05
X3.75Y-5.525
X3.75Y-7.925
X3.75Y-8.175
X3.75Y-8.275
X3.75Y-8.425
X3.75Y-8.675
X3.75Y-8.75
X3.775Y-2.725
X3.775Y-2.95
X3.775Y-3.95
X3.775Y-4.325
X3.775Y-4.425
X3.775Y-4.95
X3.775Y-5.7
X3.775Y-6.15
X3.775Y-6.25
X3.775Y-6.35
X3.8Y-2.05
X3.8Y-2.15
X3.8Y-2.25
X3.8Y-2.35
X3.8Y-2.45
X3.8Y-2.55
X3.8Y-2.925
X3.8Y-3.9
X3.8Y-3.975
X3.8Y-5.625
X3.8Y-5.75
X3.8Y-8.625
X3.825Y-2.9
X3.825Y-4.1
X3.825Y-4.375
X3.825Y-4.85
X3.825Y-5.0
X3.825Y-5.6
X3.825Y-5.85
X3.825Y-6.05
X3.825Y-6.325
X3.825Y-6.425
X3.825Y-7.925
X3.85Y-2.875
X3.85Y-5.15
X3.85Y-5.25
X3.85Y-5.35
X3.85Y-5.65
X3.85Y-8.05
X3.85Y-8.175
X3.85Y-8.275
X3.85Y-8.425
X3.85Y-8.625
X3.875Y-5.575
X3.9Y-5.55
X3.9Y-8.525
X3.9Y-8.675
X3.9Y-8.775
X3.925Y-5.75
X3.925Y-6.05
X3.925Y-6.25
X3.925Y-6.425
X3.925Y-6.475
X3.925Y-8.575
X3.95Y-6.725
X3.95Y-9.225
X3.95Y-9.625
X3.975Y-6.9
X3.975Y-7.0
X4.0Y-6.825
X4.0Y-7.95
X4.0Y-8.05
X4.0Y-8.125
X4.0Y-8.2
X4.0Y-8.275
X4.0Y-8.425
X4.0Y-8.525
X4.0Y-8.65
X4.0Y-8.775
X4.0Y-9.675
X4.025Y-9.225
X4.025Y-9.625
X4.05Y-6.775
X4.05Y-6.825
X4.05Y-7.275
X4.05Y-7.475
X4.05Y-7.675
X4.05Y-9.15
X4.075Y-7.0
X4.1Y-6.725
X4.1Y-6.775
X4.1Y-7.55
X4.1Y-8.725
X4.1Y-9.225
X4.1Y-9.625
X4.125Y-6.6
X4.125Y-6.65
X4.125Y-6.7
X4.125Y-8.05
X4.125Y-8.125
X4.125Y-8.2
X4.125Y-8.275
X4.125Y-8.425
X4.125Y-8.65
X4.15Y-4.5
X4.15Y-5.85
X4.15Y-5.9
X4.15Y-8.375
X4.15Y-8.55
X4.175Y-5.675
X4.175Y-5.95
X4.175Y-7.625
X4.2Y-8.45
X4.225Y-5.45
X4.225Y-5.95
X4.225Y-6.05
X4.225Y-7.675
X4.25Y-6.2
X4.25Y-6.3
X4.25Y-8.05
X4.25Y-8.125
X4.25Y-8.2
X4.25Y-8.275
X4.25Y-8.375
X4.25Y-8.425
X4.25Y-8.55
X4.25Y-8.65
X4.275Y-7.8
X4.3Y-4.15
X4.3Y-4.3
X4.3Y-4.4
X4.3Y-4.6
X4.3Y-6.725
X4.3Y-8.0
X4.325Y-7.975
X4.35Y-2.9
X4.35Y-8.025
X4.35Y-8.75
X4.375Y-5.25
X4.375Y-8.275
X4.4Y-2.875
X4.4Y-2.925
X4.4Y-3.025
X4.4Y-3.075
X4.4Y-3.125
X4.4Y-3.175
X4.4Y-3.225
X4.4Y-3.275
X4.4Y-3.425
X4.4Y-3.525
X4.4Y-3.625
X4.4Y-3.725
X4.4Y-3.825
X4.4Y-4.9
X4.4Y-7.575
X4.4Y-8.175
X4.4Y-8.475
X4.425Y-7.8
X4.425Y-8.0
X4.425Y-8.275
X4.425Y-8.35
X4.45Y-5.525
X4.475Y-3.0
X4.475Y-3.95
X4.475Y-4.7
X4.475Y-7.225
X4.475Y-9.15
X4.5Y-2.95
X4.5Y-4.2
X4.5Y-4.625
X4.5Y-4.75
X4.5Y-4.9
X4.5Y-5.15
X4.5Y-5.5
X4.5Y-6.775
X4.5Y-7.25
X4.5Y-7.325
X4.525Y-4.1
X4.525Y-7.2
X4.55Y-3.975
X4.55Y-5.45
X4.55Y-6.15
X4.55Y-7.275
X4.55Y-9.075
X4.575Y-4.5
X4.575Y-4.625
X4.575Y-4.9
X4.575Y-7.325
X4.575Y-9.25
X4.575Y-9.6
X4.6Y-4.7
X4.6Y-4.75
X4.625Y-4.8
X4.625Y-5.25
X4.625Y-5.325
X4.625Y-6.475
X4.625Y-7.325
X4.625Y-9.1
X4.65Y-2.55
X4.65Y-2.65
X4.65Y-3.425
X4.65Y-3.525
X4.65Y-3.625
X4.675Y-3.725
X4.675Y-7.325
X4.675Y-7.75
X4.675Y-9.925
X4.675Y-10.05
X4.7Y-2.85
X4.7Y-6.15
X4.7Y-6.3
X4.7Y-7.15
X4.725Y-3.025
X4.725Y-3.85
X4.725Y-3.9
X4.725Y-3.95
X4.725Y-7.325
X4.75Y-2.75
X4.75Y-3.45
X4.75Y-3.55
X4.75Y-3.65
X4.75Y-3.75
X4.75Y-6.425
X4.75Y-7.175
X4.75Y-8.15
X4.775Y-1.7
X4.775Y-2.15
X4.775Y-2.975
X4.775Y-3.075
X4.775Y-3.175
X4.775Y-3.225
X4.775Y-3.275
X4.775Y-7.325
X4.8Y-2.8
X4.8Y-4.875
X4.8Y-6.15
X4.8Y-6.3
X4.8Y-7.125
X4.8Y-7.975
X4.8Y-8.05
X4.8Y-8.925
X4.825Y-1.7
X4.825Y-2.15
X4.825Y-2.925
X4.825Y-3.35
X4.825Y-4.95
X4.825Y-7.325
X4.85Y-3.25
X4.85Y-5.95
X4.85Y-7.1
X4.85Y-8.05
X4.875Y-1.7
X4.875Y-2.15
X4.875Y-2.875
X4.875Y-3.15
X4.875Y-6.425
X4.875Y-7.325
X4.875Y-7.575
X4.9Y-3.05
X4.9Y-7.075
X4.9Y-9.075
X4.925Y-1.85
X4.925Y-2.825
X4.925Y-7.325
X4.925Y-7.45
X4.925Y-8.05
X4.925Y-8.15
X4.925Y-8.225
X4.925Y-8.275
X4.925Y-8.325
X4.925Y-8.375
X4.925Y-8.425
X4.925Y-8.475
X4.925Y-8.575
X4.925Y-8.65
X4.95Y-6.15
X4.95Y-7.025
X4.95Y-7.85
X4.95Y-8.925
X4.975Y-1.9
X4.975Y-2.775
X4.975Y-3.225
X4.975Y-7.325
X4.975Y-9.65
X4.975Y-9.925
X5.0Y-2.65
X5.0Y-2.7
X5.0Y-5.175
X5.0Y-7.05
X5.025Y-1.95
X5.025Y-5.275
X5.025Y-5.425
X5.025Y-7.75
X5.05Y-2.325
X5.05Y-2.375
X5.05Y-2.425
X5.05Y-2.55
X5.05Y-3.975
X5.05Y-6.775
X5.05Y-7.325
X5.05Y-7.475
X5.05Y-7.575
X5.075Y-2.0
X5.075Y-5.175
X5.1Y-1.675
X5.1Y-7.0
X5.1Y-9.925
X5.125Y-1.5
X5.125Y-4.5
X5.125Y-9.075
X5.125Y-10.025
X5.15Y-1.725
X5.15Y-6.8
X5.15Y-8.35
X5.175Y-1.95
X5.2Y-1.5
X5.2Y-1.775
X5.2Y-2.475
X5.2Y-4.225
X5.2Y-4.275
X5.2Y-4.325
X5.2Y-4.375
X5.2Y-6.825
X5.2Y-7.325
X5.2Y-7.475
X5.2Y-7.575
X5.225Y-2.45
X5.225Y-7.75
X5.225Y-7.85
X5.225Y-8.425
X5.25Y-1.825
X5.25Y-2.475
X5.25Y-6.85
X5.25Y-8.05
X5.25Y-8.15
X5.25Y-8.25
X5.25Y-8.325
X5.25Y-10.25
X5.275Y-2.375
X5.275Y-4.525
X5.275Y-6.9
X5.3Y-1.5
X5.3Y-1.95
X5.3Y-6.875
X5.3Y-8.05
X5.3Y-9.475
X5.325Y-4.625
X5.325Y-6.925
X5.35Y-2.45
X5.35Y-2.775
X5.35Y-2.85
X5.35Y-2.95
X5.35Y-3.55
X5.35Y-4.65
X5.35Y-6.3
X5.35Y-6.95
X5.35Y-7.6
X5.35Y-10.25
X5.375Y-1.5
X5.375Y-4.45
X5.375Y-6.975
X5.375Y-7.325
X5.375Y-7.475
X5.4Y-1.95
X5.4Y-2.2
X5.4Y-6.775
X5.4Y-7.175
X5.425Y-6.75
X5.45Y-2.45
X5.45Y-4.775
X5.45Y-6.725
X5.45Y-7.325
X5.45Y-7.475
X5.45Y-7.6
X5.45Y-8.0
X5.475Y-6.7
X5.5Y-6.675
X5.5Y-7.15
X5.525Y-2.85
X5.525Y-2.95
X5.525Y-6.65
X5.55Y-2.45
X5.55Y-3.825
X5.55Y-4.275
X5.55Y-4.325
X5.55Y-4.375
X5.55Y-6.625
X5.55Y-7.325
X5.55Y-7.475
X5.55Y-7.6
X5.575Y-4.9
X5.575Y-6.6
X5.575Y-9.425
X5.6Y-3.875
X5.6Y-4.975
X5.6Y-6.575
X5.6Y-7.1
X5.625Y-2.125
X5.625Y-2.85
X5.625Y-6.55
X5.625Y-7.325
X5.625Y-7.475
X5.625Y-7.6
X5.625Y-8.0
X5.625Y-8.1
X5.65Y-2.45
X5.65Y-3.15
X5.65Y-6.525
X5.65Y-7.125
X5.675Y-2.275
X5.675Y-3.825
X5.675Y-6.5
X5.7Y-3.9
X5.7Y-4.4
X5.7Y-6.475
X5.7Y-7.325
X5.7Y-7.475
X5.7Y-7.6
X5.725Y-2.75
X5.725Y-6.45
X5.725Y-8.0
X5.725Y-8.1
X5.75Y-3.15
X5.75Y-3.85
X5.75Y-6.425
X5.75Y-7.075
X5.75Y-8.2
X5.775Y-4.0
X5.775Y-5.5
X5.775Y-5.6
X5.775Y-6.4
X5.775Y-7.325
X5.775Y-7.475
X5.775Y-7.6
X5.8Y-5.1
X5.8Y-6.375
X5.8Y-7.025
X5.825Y-6.05
X5.825Y-7.325
X5.825Y-7.475
X5.825Y-7.6
X5.85Y-5.575
X5.85Y-6.3
X5.85Y-7.05
X5.875Y-5.55
X5.875Y-5.65
X5.875Y-5.7
X5.875Y-6.025
X5.875Y-7.325
X5.875Y-7.475
X5.875Y-7.6
X5.9Y-2.125
X5.9Y-3.45
X5.9Y-3.55
X5.9Y-4.0
X5.9Y-4.925
X5.9Y-5.625
X5.9Y-6.0
X5.9Y-7.0
X5.925Y-2.275
X5.925Y-5.175
X5.925Y-5.95
X5.925Y-6.175
X5.95Y-2.75
X5.95Y-5.325
X5.95Y-5.9
X5.95Y-7.325
X5.95Y-7.475
X5.95Y-7.6
X5.975Y-5.85
X5.975Y-8.175
X5.975Y-8.225
X5.975Y-8.275
X5.975Y-8.325
X5.975Y-8.375
X6.0Y-2.125
X6.0Y-3.0
X6.0Y-5.8
X6.025Y-5.425
X6.05Y-2.95
X6.05Y-3.55
X6.05Y-5.475
X6.05Y-7.85
X6.05Y-7.925
X6.05Y-7.975
X6.05Y-8.025
X6.05Y-8.075
X6.05Y-8.125
X6.05Y-8.275
X6.05Y-8.325
X6.05Y-8.375
X6.05Y-8.925
X6.05Y-9.0
X6.05Y-9.05
X6.05Y-9.1
X6.075Y-4.8
X6.075Y-5.325
X6.075Y-8.2
X6.1Y-5.45
X6.1Y-5.7
X6.15Y-1.975
X6.15Y-2.125
X6.15Y-3.85
X6.15Y-6.325
X6.15Y-7.725
X6.15Y-7.85
X6.15Y-7.975
X6.15Y-8.025
X6.15Y-8.075
X6.15Y-8.125
X6.15Y-8.175
X6.15Y-8.225
X6.15Y-9.0
X6.175Y-2.275
X6.175Y-7.9
X6.175Y-8.825
X6.2Y-5.025
X6.2Y-8.8
X6.225Y-8.775
X6.25Y-3.85
X6.25Y-7.225
X6.25Y-7.925
X6.25Y-8.75
X6.275Y-8.725
X6.3Y-3.775
X6.3Y-8.7
X6.325Y-8.675
X6.35Y-8.65
X6.375Y-2.2
X6.375Y-3.575
X6.375Y-3.675
X6.375Y-4.2
X6.375Y-4.275
X6.375Y-4.325
X6.375Y-4.4
X6.4Y-2.9
X6.4Y-9.975
X6.45Y-5.45
X6.45Y-6.25
X6.45Y-6.325
X6.45Y-7.225
X6.45Y-7.325
X6.45Y-7.45
X6.45Y-7.6
X6.45Y-7.775
X6.45Y-8.05
X6.45Y-8.225
X6.45Y-8.275
X6.45Y-8.75
X6.5Y-8.425
X6.5Y-9.475
X6.5Y-9.925
X6.55Y-8.4
X6.55Y-10.025
X6.575Y-8.45
X6.6Y-2.85
X6.6Y-8.5
X6.625Y-3.075
X6.625Y-3.175
X6.625Y-3.225
X6.625Y-3.275
X6.625Y-3.325
X6.625Y-3.375
X6.625Y-3.475
X6.625Y-3.525
X6.625Y-3.575
X6.625Y-3.65
X6.625Y-3.75
X6.625Y-8.3
X6.625Y-9.925
X6.65Y-2.75
X6.65Y-3.85
X6.65Y-8.35
X6.675Y-2.95
X6.675Y-8.475
X6.7Y-2.625
X6.7Y-2.675
X6.7Y-8.575
X6.725Y-3.575
X6.725Y-3.65
X6.725Y-3.75
X6.725Y-3.85
X6.75Y-8.525
X6.75Y-8.6
X6.775Y-1.975
X6.775Y-8.2
X6.8Y-6.275
X6.8Y-6.325
X6.825Y-7.875
X6.85Y-7.275
X6.85Y-7.85
X6.85Y-8.55
X6.85Y-9.925
X6.875Y-2.1
X6.875Y-7.9
X6.9Y-5.775
X6.9Y-7.25
X6.9Y-7.85
X6.925Y-7.2
X6.925Y-7.825
X6.95Y-1.925
X6.95Y-7.325
X6.95Y-7.45
X6.95Y-7.6
X6.95Y-7.725
X6.95Y-7.9
X6.975Y-4.95
X6.975Y-5.075
X6.975Y-5.275
X6.975Y-5.4
X6.975Y-5.475
X6.975Y-5.675
X6.975Y-8.175
X6.975Y-8.3
X7.0Y-6.325
X7.0Y-9.925
X7.025Y-2.075
X7.025Y-5.4
X7.025Y-5.475
X7.025Y-6.125
X7.05Y-2.35
X7.05Y-5.75
X7.075Y-1.85
X7.075Y-5.425
X7.075Y-5.475
X7.075Y-6.15
X7.075Y-6.325
X7.075Y-7.825
X7.075Y-8.2
X7.1Y-2.65
X7.1Y-2.75
X7.1Y-2.85
X7.1Y-2.95
X7.1Y-3.05
X7.1Y-3.15
X7.1Y-3.25
X7.1Y-3.35
X7.1Y-3.45
X7.1Y-3.55
X7.1Y-3.65
X7.1Y-3.75
X7.1Y-4.95
X7.1Y-5.6
X7.1Y-8.5
X7.125Y-5.275
X7.125Y-5.425
X7.125Y-6.375
X7.125Y-7.85
X7.125Y-8.1
X7.15Y-3.35
X7.15Y-3.85
X7.175Y-5.675
X7.175Y-7.225
X7.175Y-7.45
X7.175Y-7.6
X7.175Y-10.225
X7.2Y-5.0
X7.2Y-5.1
X7.2Y-6.25
X7.225Y-6.125
X7.225Y-7.7
X7.25Y-5.425
X7.25Y-7.65
X7.275Y-1.9
X7.275Y-7.225
X7.275Y-7.45
X7.275Y-7.6
X7.3Y-2.075
X7.3Y-2.425
X7.3Y-3.975
X7.325Y-5.1
X7.325Y-7.225
X7.325Y-7.45
X7.325Y-7.6
X7.35Y-2.425
X7.35Y-6.4
X7.375Y-1.875
X7.375Y-2.475
X7.375Y-3.5
X7.375Y-3.7
X7.375Y-4.15
X7.375Y-6.025
X7.375Y-6.425
X7.375Y-6.475
X7.375Y-7.225
X7.375Y-7.45
X7.375Y-7.6
X7.4Y-3.3
X7.4Y-5.5
X7.4Y-10.225
X7.425Y-1.95
X7.425Y-5.225
X7.425Y-5.675
X7.425Y-6.0
X7.425Y-7.225
X7.425Y-7.45
X7.425Y-7.6
X7.45Y-3.925
X7.45Y-4.1
X7.45Y-6.45
X7.45Y-6.5
X7.475Y-2.15
X7.475Y-6.525
X7.475Y-6.725
X7.475Y-7.225
X7.475Y-7.45
X7.475Y-7.6
X7.5Y-1.875
X7.5Y-1.95
X7.5Y-2.125
X7.5Y-3.5
X7.5Y-5.0
X7.5Y-5.5
X7.5Y-6.55
X7.5Y-6.6
X7.525Y-3.7
X7.525Y-4.0
X7.525Y-4.3
X7.55Y-2.05
X7.55Y-2.375
X7.55Y-3.95
X7.55Y-7.225
X7.55Y-7.45
X7.55Y-7.6
X7.55Y-8.25
X7.55Y-8.55
X7.575Y-1.875
X7.575Y-2.125
X7.575Y-3.9
X7.575Y-6.575
X7.575Y-6.775
X7.6Y-1.95
X7.6Y-2.325
X7.6Y-2.375
X7.6Y-2.8
X7.6Y-5.6
X7.6Y-5.7
X7.6Y-6.65
X7.6Y-6.975
X7.6Y-9.925
X7.6Y-10.225
X7.625Y-4.3
X7.625Y-7.225
X7.625Y-7.45
X7.625Y-7.6
X7.65Y-2.325
X7.65Y-6.95
X7.65Y-8.05
X7.65Y-8.2
X7.65Y-8.35
X7.65Y-8.55
X7.65Y-8.65
X7.675Y-3.95
X7.675Y-4.125
X7.675Y-6.625
X7.675Y-7.225
X7.675Y-7.45
X7.675Y-7.6
X7.7Y-1.875
X7.7Y-1.95
X7.7Y-6.7
X7.725Y-6.925
X7.75Y-6.75
X7.75Y-6.95
X7.75Y-7.225
X7.75Y-7.45
X7.75Y-7.6
X7.75Y-8.2
X7.75Y-8.35
X7.75Y-8.55
X7.775Y-1.95
X7.775Y-6.675
X7.775Y-9.475
X7.8Y-3.45
X7.8Y-4.3
X7.8Y-4.45
X7.8Y-6.9
X7.825Y-2.075
X7.825Y-3.025
X7.825Y-3.925
X7.825Y-6.95
X7.825Y-7.225
X7.825Y-7.45
X7.825Y-7.6
X7.85Y-3.675
X7.85Y-8.2
X7.85Y-8.35
X7.875Y-6.875
X7.875Y-6.95
X7.875Y-7.225
X7.875Y-7.45
X7.875Y-7.6
X7.9Y-8.6
X7.925Y-3.425
X7.925Y-6.95
X7.925Y-7.225
X7.925Y-7.45
X7.925Y-7.55
X7.95Y-2.7
X7.95Y-5.15
X7.95Y-6.85
X7.95Y-8.2
X7.95Y-8.35
X7.95Y-8.55
X7.975Y-2.65
X7.975Y-5.7
X7.975Y-6.95
X7.975Y-7.225
X7.975Y-7.45
X7.975Y-7.6
X8.0Y-2.675
X8.025Y-2.4
X8.025Y-4.525
X8.025Y-4.725
X8.025Y-4.775
X8.025Y-4.85
X8.025Y-4.925
X8.025Y-4.975
X8.025Y-5.025
X8.025Y-5.075
X8.025Y-5.15
X8.025Y-5.225
X8.025Y-5.35
X8.025Y-5.45
X8.025Y-5.55
X8.025Y-6.825
X8.025Y-6.95
X8.025Y-7.225
X8.025Y-7.45
X8.025Y-7.6
X8.025Y-9.925
X8.05Y-3.4
X8.05Y-7.0
X8.05Y-8.15
X8.05Y-8.25
X8.05Y-8.35
X8.075Y-4.575
X8.075Y-7.225
X8.075Y-7.45
X8.075Y-7.6
X8.1Y-3.0875
X8.1Y-6.8
X8.1Y-7.025
X8.125Y-2.2
X8.125Y-2.45
X8.125Y-8.325
X8.15Y-3.4
X8.15Y-4.6
X8.15Y-6.85
X8.15Y-6.975
X8.15Y-7.225
X8.15Y-7.45
X8.15Y-7.55
X8.15Y-9.1
X8.1687Y-3.1812
X8.175Y-3.0625
X8.175Y-4.525
X8.2Y-4.025
X8.2Y-7.05
X8.2125Y-3.1
X8.225Y-2.45
X8.225Y-3.2
X8.225Y-3.525
X8.225Y-7.55
X8.25Y-7.0
X8.25Y-7.25
X8.25Y-7.425
X8.25Y-7.575
X8.25Y-7.675
X8.275Y-7.075
X8.3Y-6.7
X8.3Y-7.0
X8.3Y-7.1
X8.3Y-9.025
X8.325Y-7.225
X8.325Y-7.425
X8.35Y-3.15
X8.35Y-6.75
X8.35Y-7.05
X8.35Y-7.125
X8.35Y-7.625
X8.375Y-3.3
X8.375Y-6.625
X8.375Y-7.575
X8.375Y-9.025
X8.4Y-6.8
X8.4Y-7.1
X8.4Y-7.15
X8.4Y-9.575
X8.425Y-6.675
X8.45Y-2.8
X8.45Y-6.55
X8.45Y-6.85
X8.45Y-7.15
X8.45Y-7.475
X8.45Y-8.175
X8.45Y-8.45
X8.45Y-9.925
X8.45Y-10.025
X8.475Y-6.725
X8.475Y-7.175
X8.475Y-7.25
X8.475Y-7.925
X8.475Y-7.975
X8.475Y-8.025
X8.5Y-6.6
X8.5Y-6.9
X8.5Y-7.625
X8.5Y-7.85
X8.5Y-8.225
X8.5Y-8.325
X8.5Y-8.4
X8.5Y-8.5
X8.525Y-2.425
X8.525Y-6.775
X8.525Y-8.05
X8.55Y-2.4
X8.55Y-6.65
X8.55Y-6.95
X8.55Y-8.025
X8.55Y-8.15
X8.575Y-6.825
X8.575Y-7.025
X8.575Y-8.525
X8.575Y-8.575
X8.575Y-9.8
X8.6Y-2.4
X8.6Y-2.45
X8.6Y-6.7
X8.6Y-7.2
X8.6Y-7.3
X8.6Y-8.225
X8.6Y-10.1
X8.625Y-6.875
X8.625Y-8.3985
X8.65Y-2.4
X8.65Y-6.75
X8.65Y-7.075
X8.65Y-8.375
X8.65Y-8.45
X8.65Y-8.6
X8.675Y-1.925
X8.675Y-2.075
X8.675Y-6.925
X8.675Y-7.525
X8.7Y-6.8
X8.7Y-7.025
X8.7Y-7.125
X8.7Y-7.275
X8.7Y-8.025
X8.7Y-8.45
X8.7Y-9.025
X8.7Y-9.125
X8.725Y-2.75
X8.75Y-2.85
X8.75Y-4.25
X8.75Y-6.85
X8.75Y-8.45
X8.75Y-9.675
X8.775Y-2.925
X8.775Y-4.7
X8.775Y-4.775
X8.775Y-4.825
X8.775Y-9.65
X8.775Y-9.7
X8.8Y-4.3
X8.8Y-6.9
X8.8Y-8.0
X8.8Y-9.675
X8.825Y-1.95
X8.85Y-4.35
X8.85Y-4.95
X8.875Y-4.55
X8.875Y-5.025
X8.9Y-1.9
X8.9Y-4.4
X8.9Y-5.1
X8.9Y-7.625
X8.925Y-2.075
X8.925Y-5.175
X8.925Y-6.075
X8.925Y-6.175
X8.925Y-6.275
X8.925Y-6.375
X8.925Y-6.475
X8.925Y-6.575
X8.925Y-6.675
X8.925Y-9.9
X8.975Y-3.575
X9.0Y-2.175
X9.0Y-2.425
X9.0Y-7.0
X9.0Y-7.3
X9.025Y-9.725
X9.05Y-5.7
X9.05Y-9.7
X9.05Y-9.75
X9.075Y-3.375
X9.075Y-9.725
X9.1Y-3.3
X9.1Y-6.0
X9.1Y-6.1
X9.1Y-6.2
X9.1Y-6.3
X9.1Y-6.4
X9.1Y-6.5
X9.1Y-6.625
X9.125Y-3.2
X9.15Y-3.1
X9.15Y-9.9
X9.175Y-3.0
X9.2Y-2.15
X9.2Y-2.9
X9.225Y-2.8
X9.25Y-2.7
X9.3Y-9.875
X9.325Y-4.75
X9.35Y-2.025
X9.425Y-6.2
X9.425Y-6.3
X9.425Y-6.4
X9.425Y-6.5
X9.425Y-6.6
X9.425Y-6.7
X9.425Y-6.8
X9.425Y-9.875
X9.45Y-3.55
X9.45Y-6.1
X9.475Y-6.025
X9.5Y-3.5
X9.5Y-3.6
X9.525Y-9.7
X9.525Y-9.75
X9.55Y-3.45
X9.55Y-3.55
X9.55Y-3.65
X9.55Y-6.1
X9.55Y-6.2
X9.575Y-2.025
X9.575Y-6.025
X9.575Y-7.85
X9.575Y-8.125
X9.575Y-9.65
X9.575Y-9.7
X9.6Y-3.4
X9.6Y-3.5
X9.6Y-3.6
X9.6Y-3.7
X9.6Y-4.275
X9.6Y-4.75
X9.6Y-7.825
X9.6Y-7.875
X9.6Y-8.1
X9.6Y-8.15
X9.625Y-7.85
X9.625Y-8.125
X9.625Y-9.6
X9.625Y-9.65
X9.65Y-3.35
X9.65Y-3.45
X9.65Y-3.55
X9.65Y-3.65
X9.65Y-3.75
X9.65Y-6.1
X9.675Y-6.325
X9.7Y-3.3
X9.7Y-3.4
X9.7Y-3.5
X9.7Y-3.6
X9.7Y-3.7
X9.7Y-3.8
X9.7Y-5.5
X9.7Y-5.55
X9.7Y-5.6
X9.7Y-5.675
X9.7Y-5.75
X9.7Y-5.825
X9.7Y-5.9
X9.7Y-5.975
X9.725Y-5.35
X9.725Y-6.275
X9.75Y-3.25
X9.75Y-3.35
X9.75Y-3.45
X9.75Y-3.55
X9.775Y-3.675
X9.775Y-3.775
X9.775Y-3.875
X9.775Y-3.975
X9.775Y-4.075
X9.775Y-6.225
X9.8Y-3.2
X9.8Y-3.3
X9.8Y-3.4
X9.8Y-3.5
X9.8Y-6.15
X9.825Y-5.075
X9.85Y-3.15
X9.85Y-9.9
X9.875Y-3.275
X9.875Y-3.375
X9.875Y-3.475
X9.875Y-3.575
X9.875Y-3.675
X9.875Y-3.775
X9.875Y-3.875
X9.875Y-3.975
X9.875Y-4.075
X9.875Y-10.025
X10.1Y-2.1
X10.1Y-4.225
X10.1Y-6.125
X10.3Y-6.15
X10.325Y-4.075
X10.325Y-4.225
X10.325Y-4.725
X10.675Y-4.225
X10.675Y-4.725
T2
X1.4Y-7.6
X1.6Y-8.425
X3.6Y-1.65
T3
X1.5819Y-7.35
X1.6165Y-7.2665
X1.6165Y-7.4335
X1.7Y-7.2319
X1.7Y-7.4681
X1.7835Y-7.2665
X1.7835Y-7.4335
X1.8181Y-7.35
X2.3819Y-1.25
X2.3819Y-7.35
X2.4165Y-1.1665
X2.4165Y-1.3335
X2.4165Y-7.2665
X2.4165Y-7.4335
X2.5Y-1.1319
X2.5Y-1.3681
X2.5Y-7.2319
X2.5Y-7.4681
X2.5835Y-1.1665
X2.5835Y-1.3335
X2.5835Y-7.2665
X2.5835Y-7.4335
X2.6181Y-1.25
X2.6181Y-7.35
X4.1819Y-1.25
X4.1819Y-7.35
X4.1819Y-10.2
X4.2165Y-1.1665
X4.2165Y-1.3335
X4.2165Y-7.2665
X4.2165Y-7.4335
X4.2165Y-10.1165
X4.2165Y-10.2835
X4.3Y-1.1319
X4.3Y-1.3681
X4.3Y-7.2319
X4.3Y-7.4681
X4.3Y-10.0819
X4.3Y-10.3181
X4.3835Y-1.1665
X4.3835Y-1.3335
X4.3835Y-7.2665
X4.3835Y-7.4335
X4.3835Y-10.1165
X4.3835Y-10.2835
X4.4181Y-1.25
X4.4181Y-7.35
X4.4181Y-10.2
X10.3819Y-2.15
X10.3819Y-7.35
X10.3819Y-10.2
X10.4165Y-2.0665
X10.4165Y-2.2335
X10.4165Y-7.2665
X10.4165Y-7.4335
X10.4165Y-10.1165
X10.4165Y-10.2835
X10.5Y-2.0319
X10.5Y-2.2681
X10.5Y-7.2319
X10.5Y-7.4681
X10.5Y-10.0819
X10.5Y-10.3181
X10.5835Y-2.0665
X10.5835Y-2.2335
X10.5835Y-7.2665
X10.5835Y-7.4335
X10.5835Y-10.1165
X10.5835Y-10.2835
X10.6181Y-2.15
X10.6181Y-7.35
X10.6181Y-10.2
T4
X9.3Y-10.15
X9.3Y-10.2
X9.3Y-10.25
X9.6Y-9.95
X9.6Y-10.0
X9.6Y-10.05
T5
X7.2Y-7.75
X7.2Y-7.85
X7.2Y-7.95
X7.2Y-8.05
X7.2Y-8.15
X7.2Y-8.25
X7.2Y-8.35
X7.2Y-8.45
X7.2Y-8.55
X7.2Y-8.65
X7.2Y-8.75
X7.2Y-8.85
X7.2Y-8.95
X7.3Y-7.75
X7.3Y-7.85
X7.3Y-7.95
X7.3Y-8.05
X7.3Y-8.15
X7.3Y-8.25
X7.3Y-8.35
X7.3Y-8.45
X7.3Y-8.55
X7.3Y-8.65
X7.3Y-8.75
X7.3Y-8.85
X7.3Y-8.95
X7.4Y-7.75
X7.4Y-7.85
X7.4Y-7.95
X7.4Y-8.05
X7.4Y-8.15
X7.4Y-8.25
X7.4Y-8.35
X7.4Y-8.45
X7.4Y-8.55
X7.4Y-8.65
X7.4Y-8.75
X7.4Y-8.85
X7.4Y-8.95
X7.5Y-7.75
X7.5Y-7.85
X7.5Y-7.95
X7.5Y-8.05
X7.5Y-8.45
X7.5Y-8.65
X7.5Y-8.75
X7.5Y-8.85
X7.5Y-8.95
X7.6Y-7.75
X7.6Y-7.85
X7.6Y-7.95
X7.6Y-8.75
X7.6Y-8.85
X7.6Y-8.95
X7.7Y-7.75
X7.7Y-7.85
X7.7Y-7.95
X7.7Y-8.75
X7.7Y-8.85
X7.7Y-8.95
X7.8Y-7.75
X7.8Y-7.85
X7.8Y-7.95
X7.8Y-8.75
X7.8Y-8.85
X7.8Y-8.95
X7.9Y-7.75
X7.9Y-7.85
X7.9Y-7.95
X7.9Y-8.75
X7.9Y-8.85
X7.9Y-8.95
X8.0Y-7.75
X8.0Y-7.85
X8.0Y-7.95
X8.0Y-8.05
X8.0Y-8.65
X8.0Y-8.75
X8.0Y-8.85
X8.0Y-8.95
X8.1Y-7.75
X8.1Y-7.85
X8.1Y-7.95
X8.1Y-8.05
X8.1Y-8.45
X8.1Y-8.65
X8.1Y-8.75
X8.1Y-8.85
X8.1Y-8.95
X8.2Y-7.75
X8.2Y-7.85
X8.2Y-7.95
X8.2Y-8.05
X8.2Y-8.15
X8.2Y-8.25
X8.2Y-8.35
X8.2Y-8.45
X8.2Y-8.55
X8.2Y-8.65
X8.2Y-8.75
X8.2Y-8.85
X8.2Y-8.95
X8.3Y-7.75
X8.3Y-7.85
X8.3Y-7.95
X8.3Y-8.05
X8.3Y-8.15
X8.3Y-8.25
X8.3Y-8.35
X8.3Y-8.45
X8.3Y-8.55
X8.3Y-8.65
X8.3Y-8.75
X8.3Y-8.85
X8.3Y-8.95
X8.4Y-7.75
X8.4Y-7.85
X8.4Y-7.95
X8.4Y-8.05
X8.4Y-8.15
X8.4Y-8.25
X8.4Y-8.35
X8.4Y-8.45
X8.4Y-8.55
X8.4Y-8.65
X8.4Y-8.75
X8.4Y-8.85
X8.4Y-8.95
T6
X1.4Y-7.75
X1.4Y-7.85
X1.4Y-7.95
X1.4Y-8.05
X1.4Y-8.15
X1.4Y-8.25
X1.4Y-8.35
X1.4Y-8.45
X1.4Y-8.55
X1.4Y-8.65
X1.4Y-8.75
X1.5Y-7.65
X1.5Y-7.75
X1.5Y-7.85
X1.5Y-7.95
X1.5Y-8.05
X1.5Y-8.15
X1.5Y-8.25
X1.5Y-8.35
X1.5Y-8.45
X1.5Y-8.55
X1.5Y-8.65
X1.5Y-8.75
X1.5Y-8.85
X1.6Y-7.65
X1.6Y-7.75
X1.6Y-8.75
X1.6Y-8.85
X1.7Y-7.65
X1.7Y-7.75
X1.7Y-8.75
X1.7Y-8.85
X1.8Y-7.65
X1.8Y-7.75
X1.8Y-8.75
X1.8Y-8.85
X1.9Y-7.65
X1.9Y-7.75
X1.9Y-8.75
X1.9Y-8.85
X1.9Y-9.25
X1.9Y-9.35
X1.9Y-9.45
X1.9Y-9.55
X1.9Y-9.65
X1.9Y-9.75
X2.0Y-7.65
X2.0Y-7.75
X2.0Y-8.75
X2.0Y-8.85
X2.0Y-9.15
X2.0Y-9.25
X2.0Y-9.35
X2.0Y-9.45
X2.0Y-9.55
X2.0Y-9.65
X2.0Y-9.75
X2.0Y-9.85
X2.1Y-7.65
X2.1Y-7.75
X2.1Y-8.75
X2.1Y-8.85
X2.1Y-9.15
X2.1Y-9.25
X2.1Y-9.75
X2.1Y-9.85
X2.2Y-7.65
X2.2Y-7.75
X2.2Y-8.75
X2.2Y-8.85
X2.2Y-9.15
X2.2Y-9.25
X2.2Y-9.75
X2.2Y-9.85
X2.3Y-7.65
X2.3Y-7.75
X2.3Y-8.75
X2.3Y-8.85
X2.3Y-9.15
X2.3Y-9.25
X2.3Y-9.75
X2.3Y-9.85
X2.4Y-7.65
X2.4Y-7.75
X2.4Y-8.75
X2.4Y-8.85
X2.4Y-9.15
X2.4Y-9.25
X2.4Y-9.75
X2.4Y-9.85
X2.5Y-7.65
X2.5Y-7.75
X2.5Y-7.85
X2.5Y-7.95
X2.5Y-8.05
X2.5Y-8.15
X2.5Y-8.25
X2.5Y-8.35
X2.5Y-8.45
X2.5Y-8.55
X2.5Y-8.65
X2.5Y-8.75
X2.5Y-8.85
X2.5Y-9.15
X2.5Y-9.25
X2.5Y-9.35
X2.5Y-9.45
X2.5Y-9.55
X2.5Y-9.65
X2.5Y-9.75
X2.5Y-9.85
X2.6Y-7.75
X2.6Y-7.85
X2.6Y-7.95
X2.6Y-8.05
X2.6Y-8.15
X2.6Y-8.25
X2.6Y-8.35
X2.6Y-8.45
X2.6Y-8.55
X2.6Y-8.65
X2.6Y-8.75
X2.6Y-9.25
X2.6Y-9.35
X2.6Y-9.45
X2.6Y-9.55
X2.6Y-9.65
X2.6Y-9.75
X3.4Y-1.35
X3.4Y-1.65
X3.4Y-7.85
X3.4Y-7.95
X3.4Y-8.05
X3.4Y-8.15
X3.4Y-8.25
X3.4Y-8.35
X3.4Y-8.45
X3.4Y-8.55
X3.4Y-8.65
X3.4Y-8.75
X3.4Y-8.85
X3.5Y-7.75
X3.5Y-7.85
X3.5Y-7.95
X3.5Y-8.05
X3.5Y-8.15
X3.5Y-8.25
X3.5Y-8.35
X3.5Y-8.45
X3.5Y-8.55
X3.5Y-8.65
X3.5Y-8.75
X3.5Y-8.85
X3.5Y-8.95
X3.6Y-7.75
X3.6Y-7.85
X3.6Y-8.85
X3.6Y-8.95
X3.7Y-1.35
X3.7Y-1.65
X3.7Y-7.75
X3.7Y-7.85
X3.7Y-8.85
X3.7Y-8.95
X3.8Y-7.75
X3.8Y-7.85
X3.8Y-8.85
X3.8Y-8.95
X3.9Y-7.75
X3.9Y-7.85
X3.9Y-8.85
X3.9Y-8.95
X4.0Y-7.75
X4.0Y-7.85
X4.0Y-8.85
X4.0Y-8.95
X4.1Y-7.75
X4.1Y-7.85
X4.1Y-8.85
X4.1Y-8.95
X4.2Y-7.75
X4.2Y-7.85
X4.2Y-8.85
X4.2Y-8.95
X4.3Y-7.75
X4.3Y-7.85
X4.3Y-8.85
X4.3Y-8.95
X4.4Y-5.15
X4.4Y-5.45
X4.4Y-7.75
X4.4Y-7.85
X4.4Y-8.85
X4.4Y-8.95
X4.5Y-7.75
X4.5Y-7.85
X4.5Y-7.95
X4.5Y-8.05
X4.5Y-8.15
X4.5Y-8.25
X4.5Y-8.35
X4.5Y-8.45
X4.5Y-8.55
X4.5Y-8.65
X4.5Y-8.75
X4.5Y-8.85
X4.5Y-8.95
X4.6Y-7.85
X4.6Y-7.95
X4.6Y-8.05
X4.6Y-8.15
X4.6Y-8.25
X4.6Y-8.35
X4.6Y-8.45
X4.6Y-8.55
X4.6Y-8.65
X4.6Y-8.75
X4.6Y-8.85
X4.7Y-5.15
X4.7Y-5.45
X5.1Y-2.65
X5.1Y-2.75
X5.1Y-2.85
X5.1Y-2.95
X5.1Y-3.05
X5.1Y-3.15
X5.1Y-3.25
X5.1Y-3.35
X5.1Y-3.45
X5.1Y-3.55
X5.1Y-3.65
X5.2Y-2.55
X5.2Y-2.65
X5.2Y-2.75
X5.2Y-2.85
X5.2Y-2.95
X5.2Y-3.05
X5.2Y-3.15
X5.2Y-3.25
X5.2Y-3.35
X5.2Y-3.45
X5.2Y-3.55
X5.2Y-3.65
X5.2Y-3.75
X5.2Y-4.15
X5.2Y-4.45
X5.3Y-2.55
X5.3Y-2.65
X5.3Y-3.65
X5.3Y-3.75
X5.4Y-2.55
X5.4Y-2.65
X5.4Y-3.65
X5.4Y-3.75
X5.4Y-7.85
X5.4Y-7.95
X5.4Y-8.05
X5.4Y-8.15
X5.4Y-8.25
X5.5Y-2.55
X5.5Y-2.65
X5.5Y-3.65
X5.5Y-3.75
X5.5Y-4.15
X5.5Y-4.45
X5.5Y-7.75
X5.5Y-7.85
X5.5Y-7.95
X5.5Y-8.05
X5.5Y-8.15
X5.5Y-8.25
X5.5Y-8.35
X5.6Y-2.55
X5.6Y-2.65
X5.6Y-3.65
X5.6Y-3.75
X5.6Y-7.75
X5.6Y-7.85
X5.6Y-8.25
X5.6Y-8.35
X5.7Y-2.55
X5.7Y-2.65
X5.7Y-3.65
X5.7Y-3.75
X5.7Y-7.75
X5.7Y-7.85
X5.7Y-8.25
X5.7Y-8.35
X5.8Y-2.55
X5.8Y-2.65
X5.8Y-3.65
X5.8Y-3.75
X5.8Y-7.75
X5.8Y-7.85
X5.8Y-7.95
X5.8Y-8.05
X5.8Y-8.15
X5.8Y-8.25
X5.8Y-8.35
X5.9Y-2.55
X5.9Y-2.65
X5.9Y-3.65
X5.9Y-3.75
X5.9Y-7.85
X5.9Y-7.95
X5.9Y-8.05
X5.9Y-8.15
X5.9Y-8.25
X6.0Y-2.55
X6.0Y-2.65
X6.0Y-3.65
X6.0Y-3.75
X6.1Y-2.55
X6.1Y-2.65
X6.1Y-3.65
X6.1Y-3.75
X6.2Y-2.55
X6.2Y-2.65
X6.2Y-2.75
X6.2Y-2.85
X6.2Y-2.95
X6.2Y-3.05
X6.2Y-3.15
X6.2Y-3.25
X6.2Y-3.35
X6.2Y-3.45
X6.2Y-3.55
X6.2Y-3.65
X6.2Y-3.75
X6.2Y-10.05
X6.2Y-10.35
X6.3Y-2.65
X6.3Y-2.75
X6.3Y-2.85
X6.3Y-2.95
X6.3Y-3.05
X6.3Y-3.15
X6.3Y-3.25
X6.3Y-3.35
X6.3Y-3.45
X6.3Y-3.55
X6.3Y-3.65
X6.3Y-10.05
X6.3Y-10.35
X6.4Y-10.05
X6.4Y-10.35
X6.5Y-2.55
X6.5Y-2.65
X6.5Y-2.75
X6.5Y-2.85
X6.5Y-2.95
X6.5Y-3.05
X6.5Y-3.15
X6.5Y-3.25
X6.5Y-3.35
X6.5Y-3.45
X6.5Y-3.55
X6.5Y-3.65
X6.5Y-3.75
X6.5Y-3.85
X6.5Y-10.05
X6.5Y-10.35
X6.6Y-4.85
X6.6Y-4.95
X6.6Y-5.05
X6.6Y-5.15
X6.6Y-5.25
X6.6Y-5.35
X6.6Y-5.45
X6.6Y-5.55
X6.6Y-5.65
X6.6Y-5.75
X6.6Y-5.85
X6.6Y-10.05
X6.6Y-10.35
X6.7Y-4.75
X6.7Y-4.85
X6.7Y-4.95
X6.7Y-5.05
X6.7Y-5.15
X6.7Y-5.25
X6.7Y-5.35
X6.7Y-5.45
X6.7Y-5.55
X6.7Y-5.65
X6.7Y-5.75
X6.7Y-5.85
X6.7Y-5.95
X6.7Y-10.05
X6.7Y-10.35
X6.8Y-2.55
X6.8Y-2.65
X6.8Y-2.75
X6.8Y-2.85
X6.8Y-2.95
X6.8Y-3.05
X6.8Y-3.15
X6.8Y-3.25
X6.8Y-3.35
X6.8Y-3.45
X6.8Y-3.55
X6.8Y-3.65
X6.8Y-3.75
X6.8Y-3.85
X6.8Y-4.75
X6.8Y-4.85
X6.8Y-5.85
X6.8Y-5.95
X6.8Y-10.05
X6.8Y-10.35
X6.9Y-4.75
X6.9Y-4.85
X6.9Y-5.85
X6.9Y-5.95
X7.0Y-2.55
X7.0Y-2.65
X7.0Y-2.75
X7.0Y-2.85
X7.0Y-2.95
X7.0Y-3.05
X7.0Y-3.15
X7.0Y-3.25
X7.0Y-3.35
X7.0Y-3.45
X7.0Y-3.55
X7.0Y-3.65
X7.0Y-3.75
X7.0Y-3.85
X7.0Y-4.75
X7.0Y-4.85
X7.0Y-5.85
X7.0Y-5.95
X7.1Y-4.75
X7.1Y-4.85
X7.1Y-5.85
X7.1Y-5.95
X7.2Y-4.75
X7.2Y-4.85
X7.2Y-5.85
X7.2Y-5.95
X7.3Y-2.55
X7.3Y-2.65
X7.3Y-2.75
X7.3Y-2.85
X7.3Y-2.95
X7.3Y-3.05
X7.3Y-3.15
X7.3Y-3.25
X7.3Y-3.35
X7.3Y-3.45
X7.3Y-3.55
X7.3Y-3.65
X7.3Y-3.75
X7.3Y-3.85
X7.3Y-4.75
X7.3Y-4.85
X7.3Y-5.85
X7.3Y-5.95
X7.4Y-4.75
X7.4Y-4.85
X7.4Y-5.85
X7.4Y-5.95
X7.5Y-4.75
X7.5Y-4.85
X7.5Y-5.85
X7.5Y-5.95
X7.6Y-2.95
X7.6Y-3.05
X7.6Y-3.15
X7.6Y-3.25
X7.6Y-3.35
X7.6Y-3.45
X7.6Y-3.55
X7.6Y-3.65
X7.6Y-3.75
X7.6Y-4.15
X7.6Y-4.45
X7.6Y-4.75
X7.6Y-4.85
X7.6Y-5.85
X7.6Y-5.95
X7.7Y-2.85
X7.7Y-2.95
X7.7Y-3.05
X7.7Y-3.15
X7.7Y-3.25
X7.7Y-3.35
X7.7Y-3.45
X7.7Y-3.55
X7.7Y-3.65
X7.7Y-3.75
X7.7Y-3.85
X7.7Y-4.75
X7.7Y-4.85
X7.7Y-4.95
X7.7Y-5.05
X7.7Y-5.15
X7.7Y-5.25
X7.7Y-5.35
X7.7Y-5.45
X7.7Y-5.55
X7.7Y-5.65
X7.7Y-5.75
X7.7Y-5.85
X7.7Y-5.95
X7.8Y-2.85
X7.8Y-2.95
X7.8Y-3.75
X7.8Y-3.85
X7.8Y-4.85
X7.8Y-4.95
X7.8Y-5.05
X7.8Y-5.15
X7.8Y-5.25
X7.8Y-5.35
X7.8Y-5.45
X7.8Y-5.55
X7.8Y-5.65
X7.8Y-5.75
X7.8Y-5.85
X7.9Y-2.85
X7.9Y-2.95
X7.9Y-3.75
X7.9Y-3.85
X7.9Y-4.15
X7.9Y-4.45
X8.0Y-2.85
X8.0Y-2.95
X8.0Y-3.75
X8.0Y-3.85
X8.1Y-2.85
X8.1Y-2.95
X8.1Y-3.75
X8.1Y-3.85
X8.2Y-2.85
X8.2Y-2.95
X8.2Y-3.75
X8.2Y-3.85
X8.3Y-2.85
X8.3Y-2.95
X8.3Y-3.75
X8.3Y-3.85
X8.4Y-2.85
X8.4Y-2.95
X8.4Y-3.75
X8.4Y-3.85
X8.5Y-2.85
X8.5Y-2.95
X8.5Y-3.05
X8.5Y-3.15
X8.5Y-3.25
X8.5Y-3.35
X8.5Y-3.45
X8.5Y-3.55
X8.5Y-3.65
X8.5Y-3.75
X8.5Y-3.85
X8.6Y-2.95
X8.6Y-3.05
X8.6Y-3.15
X8.6Y-3.25
X8.6Y-3.35
X8.6Y-3.45
X8.6Y-3.55
X8.6Y-3.65
X8.6Y-3.75
X9.0Y-2.55
X9.0Y-2.65
X9.0Y-2.75
X9.0Y-2.85
X9.0Y-2.95
X9.0Y-3.05
X9.0Y-3.15
X9.0Y-3.25
X9.0Y-3.35
X9.0Y-3.45
X9.0Y-3.65
X9.0Y-3.75
X9.0Y-3.85
X9.0Y-3.95
X9.0Y-4.05
X9.0Y-4.15
X9.0Y-4.25
X9.0Y-4.35
X9.0Y-4.45
X9.0Y-4.55
X9.0Y-4.85
X9.0Y-4.95
X9.0Y-5.05
X9.0Y-5.15
X9.0Y-5.25
X9.0Y-5.35
X9.0Y-5.45
X9.0Y-5.55
X9.0Y-5.65
X9.0Y-5.75
X9.0Y-5.95
X9.0Y-6.05
X9.0Y-6.15
X9.0Y-6.25
X9.0Y-6.35
X9.0Y-6.45
X9.0Y-6.55
X9.0Y-6.65
X9.0Y-6.75
X9.0Y-6.85
X9.0Y-7.15
X9.0Y-7.45
X9.0016Y-7.95
X9.0016Y-8.35
X9.0016Y-9.05
X9.0016Y-9.45
X9.1Y-7.95
X9.1Y-8.35
X9.1Y-9.05
X9.1Y-9.45
X9.2Y-1.95
X9.2Y-2.25
X9.3Y-1.95
X9.3Y-2.25
X9.3Y-2.55
X9.3Y-2.65
X9.3Y-2.75
X9.3Y-2.85
X9.3Y-2.95
X9.3Y-3.05
X9.3Y-3.15
X9.3Y-3.25
X9.3Y-3.35
X9.3Y-3.45
X9.3Y-3.65
X9.3Y-3.75
X9.3Y-3.85
X9.3Y-3.95
X9.3Y-4.05
X9.3Y-4.15
X9.3Y-4.25
X9.3Y-4.35
X9.3Y-4.45
X9.3Y-4.55
X9.3Y-4.85
X9.3Y-4.95
X9.3Y-5.05
X9.3Y-5.15
X9.3Y-5.25
X9.3Y-5.35
X9.3Y-5.45
X9.3Y-5.55
X9.3Y-5.65
X9.3Y-5.75
X9.3Y-5.95
X9.3Y-6.05
X9.3Y-6.15
X9.3Y-6.25
X9.3Y-6.35
X9.3Y-6.45
X9.3Y-6.55
X9.3Y-6.65
X9.3Y-6.75
X9.3Y-6.85
X9.3Y-7.15
X9.3Y-7.45
X9.3016Y-7.95
X9.3016Y-8.35
X9.3016Y-9.05
X9.3016Y-9.45
X9.4Y-1.95
X9.4Y-2.25
X9.4Y-7.95
X9.4Y-8.35
X9.4Y-9.05
X9.4Y-9.45
X9.5Y-1.95
X9.5Y-2.25
X9.6Y-1.95
X9.6Y-2.25
X9.6016Y-7.55
X9.7Y-1.95
X9.7Y-2.25
X9.7Y-7.55
X9.8Y-1.95
X9.8Y-2.25
X9.9Y-1.95
X9.9Y-2.25
X9.9016Y-7.55
X10.0Y-1.95
X10.0Y-2.25
X10.0Y-7.55
X10.1Y-1.95
X10.1Y-2.25
T7
X3.4Y-1.85
X3.4Y-1.95
X3.4Y-2.05
X3.4Y-2.15
X3.4Y-2.25
X3.4Y-2.35
X3.4Y-2.45
X3.4Y-2.55
X3.4Y-2.65
X3.4Y-2.75
X3.4Y-2.95
X3.4Y-3.05
X3.4Y-3.15
X3.4Y-3.25
X3.4Y-3.35
X3.4Y-3.45
X3.4Y-3.55
X3.4Y-3.65
X3.4Y-3.75
X3.4Y-3.85
X3.4Y-4.05
X3.4Y-4.15
X3.4Y-4.25
X3.4Y-4.35
X3.4Y-4.45
X3.4Y-4.55
X3.4Y-4.65
X3.4Y-4.75
X3.4Y-4.85
X3.4Y-4.95
X3.4Y-5.35
X3.4Y-5.45
X3.4Y-5.55
X3.4Y-5.65
X3.4Y-5.75
X3.4Y-5.85
X3.4Y-5.95
X3.4Y-6.05
X3.4Y-6.15
X3.4Y-6.25
X3.4Y-6.45
X3.4Y-6.55
X3.4Y-6.65
X3.4Y-6.75
X3.4Y-6.85
X3.4Y-6.95
X3.4Y-7.05
X3.4Y-7.15
X3.4Y-7.25
X3.4Y-7.35
X3.7Y-1.85
X3.7Y-1.95
X3.7Y-2.05
X3.7Y-2.15
X3.7Y-2.25
X3.7Y-2.35
X3.7Y-2.45
X3.7Y-2.55
X3.7Y-2.65
X3.7Y-2.75
X3.7Y-2.95
X3.7Y-3.05
X3.7Y-3.15
X3.7Y-3.25
X3.7Y-3.35
X3.7Y-3.45
X3.7Y-3.55
X3.7Y-3.65
X3.7Y-3.75
X3.7Y-3.85
X3.7Y-4.05
X3.7Y-4.15
X3.7Y-4.25
X3.7Y-4.35
X3.7Y-4.45
X3.7Y-4.55
X3.7Y-4.65
X3.7Y-4.75
X3.7Y-4.85
X3.7Y-4.95
X3.7Y-5.35
X3.7Y-5.45
X3.7Y-5.55
X3.7Y-5.65
X3.7Y-5.75
X3.7Y-5.85
X3.7Y-5.95
X3.7Y-6.05
X3.7Y-6.15
X3.7Y-6.25
X3.7Y-6.45
X3.7Y-6.55
X3.7Y-6.65
X3.7Y-6.75
X3.7Y-6.85
X3.7Y-6.95
X3.7Y-7.05
X3.7Y-7.15
X3.7Y-7.25
X3.7Y-7.35
X3.9Y-1.85
X3.9Y-1.95
X3.9Y-2.05
X3.9Y-2.15
X3.9Y-2.25
X3.9Y-2.35
X3.9Y-2.45
X3.9Y-2.55
X3.9Y-2.65
X3.9Y-2.75
X3.9Y-2.95
X3.9Y-3.05
X3.9Y-3.15
X3.9Y-3.25
X3.9Y-3.35
X3.9Y-3.45
X3.9Y-3.55
X3.9Y-3.65
X3.9Y-3.75
X3.9Y-3.85
X3.9Y-4.05
X3.9Y-4.15
X3.9Y-4.25
X3.9Y-4.35
X3.9Y-4.45
X3.9Y-4.55
X3.9Y-4.65
X3.9Y-4.75
X3.9Y-4.85
X3.9Y-4.95
X4.2Y-1.85
X4.2Y-1.95
X4.2Y-2.05
X4.2Y-2.15
X4.2Y-2.25
X4.2Y-2.35
X4.2Y-2.45
X4.2Y-2.55
X4.2Y-2.65
X4.2Y-2.75
X4.2Y-2.95
X4.2Y-3.05
X4.2Y-3.15
X4.2Y-3.25
X4.2Y-3.35
X4.2Y-3.45
X4.2Y-3.55
X4.2Y-3.65
X4.2Y-3.75
X4.2Y-3.85
X4.2Y-4.05
X4.2Y-4.15
X4.2Y-4.25
X4.2Y-4.35
X4.2Y-4.45
X4.2Y-4.55
X4.2Y-4.65
X4.2Y-4.75
X4.2Y-4.85
X4.2Y-4.95
X4.3Y-5.75
X4.3Y-5.85
X4.3Y-5.95
X4.3Y-6.05
X4.3Y-6.15
X4.3Y-6.25
X4.3Y-6.35
X4.3Y-6.45
X4.3Y-6.55
X4.3Y-6.65
X4.4Y-4.05
X4.4Y-4.15
X4.4Y-4.25
X4.4Y-4.35
X4.4Y-4.45
X4.4Y-4.55
X4.4Y-4.65
X4.4Y-4.75
X4.4Y-5.75
X4.4Y-5.85
X4.4Y-5.95
X4.4Y-6.05
X4.4Y-6.15
X4.4Y-6.25
X4.4Y-6.35
X4.4Y-6.45
X4.4Y-6.55
X4.4Y-6.65
X4.5Y-5.75
X4.5Y-5.85
X4.5Y-5.95
X4.5Y-6.45
X4.5Y-6.55
X4.5Y-6.65
X4.6Y-5.75
X4.6Y-5.85
X4.6Y-6.55
X4.6Y-6.65
X4.7Y-4.05
X4.7Y-4.15
X4.7Y-4.25
X4.7Y-4.35
X4.7Y-4.45
X4.7Y-4.55
X4.7Y-4.65
X4.7Y-4.75
X4.7Y-5.75
X4.7Y-5.85
X4.7Y-6.55
X4.7Y-6.65
X4.8Y-5.75
X4.8Y-5.85
X4.8Y-6.55
X4.8Y-6.65
X4.9Y-5.75
X4.9Y-5.85
X4.9Y-6.55
X4.9Y-6.65
X5.0Y-5.75
X5.0Y-5.85
X5.0Y-5.95
X5.0Y-6.45
X5.0Y-6.55
X5.0Y-6.65
X5.1Y-5.75
X5.1Y-5.85
X5.1Y-5.95
X5.1Y-6.05
X5.1Y-6.15
X5.1Y-6.25
X5.1Y-6.35
X5.1Y-6.45
X5.1Y-6.55
X5.1Y-6.65
X5.2Y-5.75
X5.2Y-5.85
X5.2Y-5.95
X5.2Y-6.05
X5.2Y-6.15
X5.2Y-6.25
X5.2Y-6.35
X5.2Y-6.45
X5.2Y-6.55
X5.2Y-6.65
X9.95Y-2.925
X9.95Y-3.025
X9.95Y-3.125
X9.95Y-3.225
X9.95Y-3.325
X9.95Y-3.425
X9.95Y-3.525
X9.95Y-3.625
X9.95Y-3.725
X9.95Y-3.825
X9.95Y-3.925
X9.95Y-4.025
X9.95Y-4.125
X9.95Y-4.225
X9.95Y-4.325
X9.95Y-4.425
X9.95Y-4.525
X9.95Y-4.625
X9.95Y-4.925
X9.95Y-5.025
X9.95Y-5.125
X9.95Y-5.225
X9.95Y-5.325
X9.95Y-5.425
X9.95Y-5.525
X9.95Y-5.625
X9.95Y-5.725
X9.95Y-5.825
X9.95Y-5.925
X9.95Y-6.025
X9.95Y-6.125
X9.95Y-6.225
X9.95Y-6.325
X9.95Y-6.425
X9.95Y-6.525
X9.95Y-6.625
X10.05Y-2.875
X10.05Y-2.975
X10.05Y-3.075
X10.05Y-3.175
X10.05Y-3.275
X10.05Y-3.375
X10.05Y-3.475
X10.05Y-3.575
X10.05Y-3.675
X10.05Y-3.775
X10.05Y-3.875
X10.05Y-3.975
X10.05Y-4.075
X10.05Y-4.175
X10.05Y-4.275
X10.05Y-4.375
X10.05Y-4.475
X10.05Y-4.575
X10.05Y-4.875
X10.05Y-4.975
X10.05Y-5.075
X10.05Y-5.175
X10.05Y-5.275
X10.05Y-5.375
X10.05Y-5.475
X10.05Y-5.575
X10.05Y-5.675
X10.05Y-5.775
X10.05Y-5.875
X10.05Y-5.975
X10.05Y-6.075
X10.05Y-6.175
X10.05Y-6.275
X10.05Y-6.375
X10.05Y-6.475
X10.05Y-6.575
X10.45Y-2.925
X10.45Y-3.025
X10.45Y-3.125
X10.45Y-3.225
X10.45Y-3.325
X10.45Y-3.425
X10.45Y-3.525
X10.45Y-3.625
X10.45Y-3.725
X10.45Y-3.825
X10.45Y-3.925
X10.45Y-4.025
X10.45Y-4.125
X10.45Y-4.225
X10.45Y-4.325
X10.45Y-4.425
X10.45Y-4.525
X10.45Y-4.625
X10.45Y-4.925
X10.45Y-5.025
X10.45Y-5.125
X10.45Y-5.225
X10.45Y-5.325
X10.45Y-5.425
X10.45Y-5.525
X10.45Y-5.625
X10.45Y-5.725
X10.45Y-5.825
X10.45Y-5.925
X10.45Y-6.025
X10.45Y-6.125
X10.45Y-6.225
X10.45Y-6.325
X10.45Y-6.425
X10.45Y-6.525
X10.45Y-6.625
X10.55Y-2.875
X10.55Y-2.975
X10.55Y-3.075
X10.55Y-3.175
X10.55Y-3.275
X10.55Y-3.375
X10.55Y-3.475
X10.55Y-3.575
X10.55Y-3.675
X10.55Y-3.775
X10.55Y-3.875
X10.55Y-3.975
X10.55Y-4.075
X10.55Y-4.175
X10.55Y-4.275
X10.55Y-4.375
X10.55Y-4.475
X10.55Y-4.575
X10.55Y-4.875
X10.55Y-4.975
X10.55Y-5.075
X10.55Y-5.175
X10.55Y-5.275
X10.55Y-5.375
X10.55Y-5.475
X10.55Y-5.575
X10.55Y-5.675
X10.55Y-5.775
X10.55Y-5.875
X10.55Y-5.975
X10.55Y-6.075
X10.55Y-6.175
X10.55Y-6.275
X10.55Y-6.375
X10.55Y-6.475
X10.55Y-6.575
T8
X1.3Y-1.85
X1.3Y-1.95
X1.3Y-2.05
X1.3Y-2.15
X1.3Y-2.25
X1.3Y-2.35
X1.3Y-2.45
X1.3Y-2.55
X1.3Y-2.65
X1.3Y-2.75
X1.3Y-2.85
X1.3Y-2.95
X1.3Y-3.05
X1.3Y-3.15
X1.3Y-3.25
X1.3Y-3.35
X1.3Y-3.45
X1.3Y-3.55
X1.3Y-3.65
X1.3Y-3.75
X1.3Y-3.85
X1.3Y-3.95
X1.3Y-4.05
X1.3Y-4.15
X1.3Y-4.25
X1.3Y-4.35
X1.3Y-4.45
X1.3Y-4.55
X1.3Y-4.65
X1.3Y-4.75
X1.3Y-4.85
X1.3Y-5.25
X1.3Y-5.35
X1.3Y-5.45
X1.3Y-5.55
X1.3Y-5.65
X1.3Y-5.75
X1.3Y-5.85
X1.3Y-5.95
X1.3Y-6.05
X1.3Y-6.15
X1.3Y-6.25
X1.3Y-6.35
X1.3Y-6.45
X1.3Y-6.55
X1.3Y-6.65
X1.3Y-6.75
X1.3Y-6.85
X1.3Y-6.95
X1.5Y-1.85
X1.5Y-1.95
X1.5Y-2.05
X1.5Y-2.15
X1.5Y-2.25
X1.5Y-2.35
X1.5Y-2.45
X1.5Y-2.55
X1.5Y-2.65
X1.5Y-2.75
X1.5Y-2.85
X1.5Y-2.95
X1.5Y-3.05
X1.5Y-3.15
X1.5Y-3.25
X1.5Y-3.35
X1.5Y-3.45
X1.5Y-3.55
X1.5Y-3.65
X1.5Y-3.75
X1.5Y-3.85
X1.5Y-3.95
X1.5Y-4.05
X1.5Y-4.15
X1.5Y-4.25
X1.5Y-4.35
X1.5Y-4.45
X1.5Y-4.55
X1.5Y-4.65
X1.5Y-4.75
X1.5Y-4.85
X1.5Y-5.25
X1.5Y-5.35
X1.5Y-5.45
X1.5Y-5.55
X1.5Y-5.65
X1.5Y-5.75
X1.5Y-5.85
X1.5Y-5.95
X1.5Y-6.05
X1.5Y-6.15
X1.5Y-6.25
X1.5Y-6.35
X1.5Y-6.45
X1.5Y-6.55
X1.5Y-6.65
X1.5Y-6.75
X1.5Y-6.85
X1.5Y-6.95
X2.1Y-1.85
X2.1Y-1.95
X2.1Y-2.05
X2.1Y-2.15
X2.1Y-2.25
X2.1Y-2.35
X2.1Y-2.45
X2.1Y-2.55
X2.1Y-2.65
X2.1Y-2.75
X2.1Y-2.85
X2.1Y-2.95
X2.1Y-3.05
X2.1Y-3.15
X2.1Y-3.25
X2.1Y-3.35
X2.1Y-3.45
X2.1Y-3.55
X2.1Y-3.65
X2.1Y-3.75
X2.1Y-3.85
X2.1Y-3.95
X2.1Y-4.05
X2.1Y-4.15
X2.1Y-4.25
X2.1Y-4.35
X2.1Y-4.45
X2.1Y-4.55
X2.1Y-4.65
X2.1Y-4.75
X2.1Y-4.85
X2.1Y-5.25
X2.1Y-5.35
X2.1Y-5.45
X2.1Y-5.55
X2.1Y-5.65
X2.1Y-5.75
X2.1Y-5.85
X2.1Y-5.95
X2.1Y-6.05
X2.1Y-6.15
X2.1Y-6.25
X2.1Y-6.35
X2.1Y-6.45
X2.1Y-6.55
X2.1Y-6.65
X2.1Y-6.75
X2.1Y-6.85
X2.1Y-6.95
X2.3Y-1.85
X2.3Y-1.95
X2.3Y-2.05
X2.3Y-2.15
X2.3Y-2.25
X2.3Y-2.35
X2.3Y-2.45
X2.3Y-2.55
X2.3Y-2.65
X2.3Y-2.75
X2.3Y-2.85
X2.3Y-2.95
X2.3Y-3.05
X2.3Y-3.15
X2.3Y-3.25
X2.3Y-3.35
X2.3Y-3.45
X2.3Y-3.55
X2.3Y-3.65
X2.3Y-3.75
X2.3Y-3.85
X2.3Y-3.95
X2.3Y-4.05
X2.3Y-4.15
X2.3Y-4.25
X2.3Y-4.35
X2.3Y-4.45
X2.3Y-4.55
X2.3Y-4.65
X2.3Y-4.75
X2.3Y-4.85
X2.3Y-5.25
X2.3Y-5.35
X2.3Y-5.45
X2.3Y-5.55
X2.3Y-5.65
X2.3Y-5.75
X2.3Y-5.85
X2.3Y-5.95
X2.3Y-6.05
X2.3Y-6.15
X2.3Y-6.25
X2.3Y-6.35
X2.3Y-6.45
X2.3Y-6.55
X2.3Y-6.65
X2.3Y-6.75
X2.3Y-6.85
X2.3Y-6.95
X2.9Y-1.85
X2.9Y-1.95
X2.9Y-2.05
X2.9Y-2.15
X2.9Y-2.25
X2.9Y-2.35
X2.9Y-2.45
X2.9Y-2.55
X2.9Y-2.65
X2.9Y-2.75
X2.9Y-2.85
X2.9Y-2.95
X2.9Y-3.05
X2.9Y-3.15
X2.9Y-3.25
X2.9Y-3.35
X2.9Y-3.45
X2.9Y-3.55
X2.9Y-3.65
X2.9Y-3.75
X2.9Y-3.85
X2.9Y-3.95
X2.9Y-4.05
X2.9Y-4.15
X2.9Y-4.25
X2.9Y-4.35
X2.9Y-4.45
X2.9Y-4.55
X2.9Y-4.65
X2.9Y-4.75
X2.9Y-4.85
X2.9Y-5.25
X2.9Y-5.35
X2.9Y-5.45
X2.9Y-5.55
X2.9Y-5.65
X2.9Y-5.75
X2.9Y-5.85
X2.9Y-5.95
X2.9Y-6.05
X2.9Y-6.15
X2.9Y-6.25
X2.9Y-6.35
X2.9Y-6.45
X2.9Y-6.55
X2.9Y-6.65
X2.9Y-6.75
X2.9Y-6.85
X2.9Y-6.95
X3.1Y-1.85
X3.1Y-1.95
X3.1Y-2.05
X3.1Y-2.15
X3.1Y-2.25
X3.1Y-2.35
X3.1Y-2.45
X3.1Y-2.55
X3.1Y-2.65
X3.1Y-2.75
X3.1Y-2.85
X3.1Y-2.95
X3.1Y-3.05
X3.1Y-3.15
X3.1Y-3.25
X3.1Y-3.35
X3.1Y-3.45
X3.1Y-3.55
X3.1Y-3.65
X3.1Y-3.75
X3.1Y-3.85
X3.1Y-3.95
X3.1Y-4.05
X3.1Y-4.15
X3.1Y-4.25
X3.1Y-4.35
X3.1Y-4.45
X3.1Y-4.55
X3.1Y-4.65
X3.1Y-4.75
X3.1Y-4.85
X3.1Y-5.25
X3.1Y-5.35
X3.1Y-5.45
X3.1Y-5.55
X3.1Y-5.65
X3.1Y-5.75
X3.1Y-5.85
X3.1Y-5.95
X3.1Y-6.05
X3.1Y-6.15
X3.1Y-6.25
X3.1Y-6.35
X3.1Y-6.45
X3.1Y-6.55
X3.1Y-6.65
X3.1Y-6.75
X3.1Y-6.85
X3.1Y-6.95
X10.118Y-1.185
X10.118Y-1.283
X10.199Y-1.185
X10.301Y-1.185
X10.382Y-1.185
X10.382Y-1.283
T9
X7.1Y-10.25
X7.1Y-10.35
X7.3Y-10.25
X7.3Y-10.35
X7.5Y-10.25
X7.5Y-10.35
X7.7Y-10.25
X7.7Y-10.35
X7.9Y-10.25
X7.9Y-10.35
X8.1Y-10.25
X8.1Y-10.35
X8.3Y-10.25
X8.3Y-10.35
X8.5Y-10.25
X8.5Y-10.35
T10
X1.4Y-10.15
X1.4Y-10.25
X1.5Y-10.15
X1.5Y-10.25
X1.6Y-10.15
X1.6Y-10.25
X1.7Y-10.15
X1.7Y-10.25
X1.8Y-10.15
X1.8Y-10.25
X1.9Y-10.15
X1.9Y-10.25
X2.0Y-10.15
X2.0Y-10.25
X2.1Y-10.15
X2.1Y-10.25
X2.2Y-10.15
X2.2Y-10.25
X2.3Y-10.15
X2.3Y-10.25
X2.4Y-10.15
X2.5Y-10.15
X2.5Y-10.25
X2.6Y-10.15
X2.6Y-10.25
X2.7Y-10.15
X2.7Y-10.25
X2.8Y-10.15
X2.8Y-10.25
X2.9Y-10.15
X2.9Y-10.25
X3.0Y-10.15
X3.0Y-10.25
X3.1Y-10.15
X3.1Y-10.25
X3.2Y-10.15
X3.2Y-10.25
X3.3Y-10.15
X3.3Y-10.25
X4.2Y-5.15
X4.2Y-5.25
X4.2Y-5.35
X8.2Y-4.15
X8.2Y-4.25
X8.2Y-4.35
X9.6Y-10.25
X9.6516Y-1.8
X9.7Y-10.25
X9.75Y-1.8
X9.8484Y-1.8
X9.9Y-10.25
X10.0Y-10.25
T11
X5.1598Y-1.2
X5.1598Y-1.4
X5.2049Y-1.3
X5.25Y-1.2
X5.25Y-1.4
X5.2951Y-1.3
X5.3402Y-1.2
X5.3402Y-1.4
X5.3852Y-1.3
X5.4303Y-1.2
X5.4303Y-1.4
X5.4754Y-1.3
X5.5205Y-1.2
X5.5205Y-1.4
X5.5656Y-1.3
X7.0736Y-1.2799
X7.1283Y-1.1681
X7.1827Y-1.2799
X7.2374Y-1.1681
X7.2917Y-1.2799
X7.3457Y-1.5461
X7.3465Y-1.1681
X7.4004Y-1.4343
X7.4008Y-1.2799
X7.4547Y-1.5461
X7.4555Y-1.1681
X7.5094Y-1.4343
X7.5098Y-1.2799
X7.5638Y-1.5461
X7.6185Y-1.4343
X7.6728Y-1.5461
X7.7276Y-1.4343
X7.7819Y-1.5461
X7.8366Y-1.4343
X7.8909Y-1.5461
X7.9457Y-1.4343
X8.0Y-1.5461
X8.0547Y-1.4343
X8.1091Y-1.5461
X8.1638Y-1.4343
X8.2181Y-1.5461
X8.2728Y-1.4343
X8.3272Y-1.5461
X8.3819Y-1.4343
X8.4362Y-1.5461
X8.4902Y-1.2799
X8.4909Y-1.4343
X8.5449Y-1.1681
X8.5453Y-1.5461
X8.5992Y-1.2799
X8.6Y-1.4343
X8.6539Y-1.1681
X8.6543Y-1.5461
X8.7083Y-1.2799
X8.763Y-1.1681
X8.8Y-10.0614
X8.8Y-10.2386
X8.8173Y-1.2799
X8.872Y-1.1681
X8.9264Y-1.2799
X9.0559Y-10.0614
X9.0559Y-10.2386
T12
X10.372Y-7.9406
X10.372Y-8.1059
X10.372Y-8.2713
X10.372Y-8.4366
X10.372Y-8.602
X10.372Y-8.7673
X10.372Y-8.9327
X10.372Y-9.098
X10.372Y-9.2634
X10.372Y-9.4287
X10.372Y-9.5941
X10.372Y-9.7594
X10.5886Y-7.9406
X10.5886Y-8.1059
X10.5886Y-8.2713
X10.5886Y-8.4366
X10.5886Y-8.602
X10.5886Y-8.7673
X10.5886Y-8.9327
X10.5886Y-9.098
X10.5886Y-9.2634
X10.5886Y-9.4287
X10.5886Y-9.5941
X10.5886Y-9.7594
T13
X10.0Y-4.75
X10.0Y-6.955
X10.5Y-4.75
X10.5Y-6.955
T14
X9.9Y-7.9705
X9.9Y-8.1264
X9.9Y-8.2823
X9.9Y-8.4382
X9.9Y-8.5941
X9.9Y-8.75
X9.9Y-8.9059
X9.9Y-9.0618
X9.9Y-9.2177
X9.9Y-9.3736
X9.9Y-9.5295
X9.9Y-9.6854
T15
X9.984Y-1.067
X10.25Y-1.035
X10.516Y-1.067
T16
X10.0Y-2.55
X10.5Y-2.55
T17
X4.8581Y-1.3
X5.8419Y-1.3
X6.7996Y-1.1681
X6.7996Y-1.4831
X9.2004Y-1.1681
X9.2004Y-1.4831
T18
X1.7Y-7.35
X2.5Y-1.25
X2.5Y-7.35
X4.3Y-1.25
X4.3Y-7.35
X4.3Y-10.2
X10.5Y-2.15
X10.5Y-7.35
X10.5Y-10.2
T0
M30
