M48
;GenerationSoftware,Autodesk,EAGLE,9.6.2*%
;CreationDate,2020-11-29T07:09:09Z*%
FMAT,2
ICI,OFF
METRIC,TZ,000.000
T8C0.450
T7C0.813
T6C1.016
T5C1.524
T4C2.540
T3C2.997
T2C3.988
T1C4.000
%
G90
M71
T1
X102870Y74930
X3810Y74930
X3810Y3810
X102870Y3810
T2
X7620Y91440
X17780Y91440
T3
X27685Y83280
X32385Y86280
X32385Y80280
T4
X2540Y83820
X22860Y83820
T5
X15240Y81280
X20320Y81280
X10160Y81280
X5080Y81280
T6
X85090Y85090
X87630Y82550
X87630Y85090
X90170Y82550
X90170Y85090
X92710Y82550
X92710Y85090
X95250Y82550
X95250Y85090
X97790Y82550
X97790Y85090
X100330Y82550
X100330Y85090
X1270Y69850
X3810Y69850
X1270Y67310
X3810Y67310
X1270Y64770
X3810Y64770
X1270Y62230
X3810Y62230
X1270Y59690
X3810Y59690
X1270Y57150
X3810Y57150
X1270Y54610
X3810Y54610
X1270Y52070
X3810Y52070
X1270Y49530
X3810Y49530
X1270Y46990
X3810Y46990
X1270Y13970
X3810Y13970
X1270Y16510
X3810Y16510
X1270Y19050
X3810Y19050
X1270Y21590
X3810Y21590
X1270Y24130
X3810Y24130
X102870Y64770
X105410Y64770
X102870Y62230
X105410Y62230
X102870Y59690
X105410Y59690
X102870Y57150
X105410Y57150
X102870Y54610
X105410Y54610
X102870Y52070
X105410Y52070
X102870Y49530
X105410Y49530
X102870Y46990
X105410Y46990
X102870Y44450
X105410Y44450
X102870Y41910
X105410Y41910
X102870Y39370
X105410Y39370
X102870Y36830
X105410Y36830
X102870Y34290
X105410Y34290
X102870Y31750
X105410Y31750
X102870Y29210
X105410Y29210
X102870Y26670
X105410Y26670
X102870Y24130
X105410Y24130
X102870Y21590
X105410Y21590
X67310Y85090
X105410Y19050
X102870Y16510
X105410Y16510
X69850Y82550
X69850Y85090
X72390Y82550
X72390Y85090
X74930Y82550
X74930Y85090
X77470Y82550
X77470Y85090
X80010Y82550
X80010Y85090
X82550Y82550
X102870Y19050
X82550Y85090
X85090Y82550
X52070Y82550
X52070Y85090
X54610Y82550
X54610Y85090
X57150Y82550
X57150Y85090
X59690Y82550
X59690Y85090
X62230Y82550
X62230Y85090
X64770Y82550
X64770Y85090
X67310Y82550
T7
X31750Y8890
X16510Y8890
X16510Y24130
X19050Y24130
X31750Y19050
X19050Y8890
X16510Y19050
X57150Y29210
X54610Y31750
X54610Y29210
X52070Y31750
X52070Y29210
X49530Y31750
X46990Y29210
X49530Y29210
X46990Y26670
X49530Y26670
X46990Y24130
X49530Y24130
X46990Y21590
X49530Y21590
X46990Y19050
X49530Y19050
X46990Y16510
X49530Y13970
X49530Y16510
X52070Y13970
X52070Y16510
X54610Y13970
X54610Y16510
X57150Y13970
X57150Y16510
X59690Y13970
X59690Y16510
X62230Y13970
X64770Y16510
X62230Y16510
X64770Y19050
X62230Y19050
X64770Y21590
X62230Y21590
X64770Y24130
X62230Y24130
X64770Y26670
X62230Y26670
X64770Y29210
X62230Y31750
X62230Y29210
X59690Y31750
X59690Y29210
X57150Y31750
X8890Y77470
X8890Y74930
X8890Y72390
X8890Y69850
X8890Y67310
X8890Y64770
X8890Y62230
X8890Y59690
X8890Y57150
X8890Y54610
X8890Y52070
X8890Y49530
X8890Y46990
X8890Y44450
X8890Y41910
X8890Y39370
X24130Y39370
X24130Y41910
X24130Y46990
X24130Y49530
X24130Y52070
X24130Y54610
X24130Y57150
X24130Y59690
X24130Y62230
X24130Y64770
X24130Y67310
X24130Y69850
X24130Y72390
X24130Y74930
X24130Y77470
X80010Y77470
X80010Y74930
X80010Y72390
X80010Y69850
X80010Y67310
X80010Y64770
X80010Y62230
X80010Y59690
X80010Y57150
X80010Y54610
X80010Y52070
X80010Y49530
X80010Y46990
X80010Y44450
X80010Y41910
X80010Y39370
X95250Y39370
X95250Y41910
X95250Y44450
X95250Y46990
X95250Y49530
X95250Y52070
X95250Y54610
X95250Y57150
X95250Y59690
X95250Y62230
X95250Y64770
X95250Y67310
X95250Y69850
X95250Y72390
X95250Y74930
X95250Y77470
X62230Y77470
X62230Y74930
X62230Y72390
X62230Y69850
X62230Y67310
X62230Y64770
X62230Y62230
X62230Y59690
X62230Y57150
X62230Y54610
X62230Y52070
X62230Y49530
X62230Y46990
X62230Y44450
X62230Y41910
X62230Y39370
X77470Y39370
X77470Y41910
X77470Y44450
X77470Y46990
X24130Y44450
X77470Y49530
X77470Y52070
X77470Y54610
X77470Y57150
X77470Y59690
X77470Y62230
X77470Y64770
X77470Y67310
X77470Y69850
X77470Y72390
X77470Y74930
X77470Y77470
X44450Y77470
X44450Y74930
X44450Y72390
X44450Y69850
X44450Y67310
X44450Y64770
X44450Y62230
X44450Y59690
X44450Y57150
X44450Y54610
X44450Y52070
X44450Y49530
X44450Y46990
X44450Y44450
X44450Y41910
X44450Y39370
X59690Y39370
X59690Y41910
X59690Y44450
X59690Y46990
X59690Y49530
X59690Y52070
X59690Y54610
X59690Y57150
X59690Y59690
X59690Y62230
X59690Y64770
X59690Y67310
X59690Y69850
X59690Y72390
X59690Y74930
X59690Y77470
X26670Y77470
X26670Y74930
X26670Y72390
X26670Y69850
X26670Y67310
X26670Y64770
X26670Y62230
X26670Y59690
X26670Y57150
X26670Y54610
X26670Y52070
X26670Y49530
X26670Y46990
X26670Y44450
X26670Y41910
X26670Y39370
X41910Y39370
X41910Y41910
X41910Y44450
X41910Y46990
X41910Y49530
X41910Y52070
X41910Y54610
X41910Y57150
X41910Y59690
X41910Y62230
X41910Y67310
X41910Y69850
X41910Y72390
X41910Y74930
X41910Y77470
X46990Y1270
X54610Y1270
X54610Y8890
X46990Y8890
X8890Y34290
X11430Y34290
X13970Y34290
X16510Y34290
X19050Y34290
X21590Y34290
X24130Y34290
X26670Y34290
X29210Y34290
X31750Y34290
X62230Y1270
X69850Y1270
X69850Y8890
X62230Y8890
X69850Y34290
X69850Y31750
X69850Y29210
X69850Y26670
X69850Y24130
X69850Y21590
X69850Y19050
X69850Y16510
X77470Y16510
X77470Y19050
X77470Y21590
X77470Y24130
X77470Y26670
X77470Y29210
X77470Y31750
X77470Y34290
X69850Y36830
X72390Y36830
X74930Y36830
X77470Y36830
X67310Y36830
X64770Y36830
X80010Y36830
X82550Y36830
X41910Y31750
X41910Y29210
X41910Y26670
X41910Y24130
X41910Y21590
X41910Y19050
X41910Y16510
X41910Y13970
X41910Y11430
X41910Y8890
X26670Y13970
X24130Y13970
X21590Y13970
X21590Y16510
X21590Y19050
X24130Y19050
X26670Y19050
X26670Y16510
X80010Y34290
X80010Y31750
X80010Y19050
X80010Y16510
X80010Y29210
X80010Y26670
X80010Y21590
X80010Y24130
X80010Y13970
X80010Y11430
X80010Y8890
X80010Y6350
X95250Y6350
X95250Y8890
X95250Y11430
X95250Y13970
X95250Y16510
X95250Y19050
X95250Y24130
X95250Y26670
X95250Y29210
X95250Y31750
X95250Y34290
X82550Y26670
X82550Y24130
X82550Y11430
X82550Y8890
X82550Y21590
X82550Y19050
X82550Y13970
X82550Y16510
X90170Y8890
X90170Y11430
X90170Y13970
X90170Y16510
X90170Y19050
X90170Y21590
X90170Y24130
X90170Y26670
X13970Y59690
X13970Y57150
X13970Y44450
X13970Y41910
X13970Y54610
X13970Y52070
X13970Y46990
X13970Y49530
X13970Y39370
X13970Y36830
X21590Y36830
X21590Y39370
X21590Y41910
X21590Y44450
X21590Y46990
X21590Y49530
X21590Y52070
X21590Y54610
X21590Y57150
X21590Y59690
X13970Y77470
X13970Y74930
X13970Y62230
X21590Y62230
X13970Y72390
X13970Y69850
X13970Y64770
X13970Y67310
X21590Y64770
X21590Y67310
X21590Y69850
X21590Y72390
X21590Y74930
X21590Y77470
X59690Y36830
X62230Y36830
X39370Y77470
X36830Y77470
X57150Y77470
X54610Y77470
X74930Y77470
X72390Y77470
X92710Y77470
X90170Y77470
X41910Y82042
X41910Y85598
X95250Y21590
X34290Y1270
X8890Y31750
X11430Y31750
X13970Y31750
X16510Y31750
X19050Y31750
X21590Y31750
X24130Y31750
X26670Y31750
X29210Y31750
X31750Y31750
X34290Y31750
X36830Y31750
X39370Y31750
X39370Y29210
X8890Y3810
X8890Y6350
X8890Y8890
X8890Y11430
X8890Y13970
X8890Y16510
X8890Y19050
X8890Y21590
X8890Y24130
X8890Y29210
X11430Y29210
X13970Y29210
X16510Y29210
X19050Y29210
X21590Y29210
X24130Y29210
X26670Y29210
X29210Y29210
X31750Y29210
X34290Y29210
X36830Y29210
X39370Y24130
X39370Y21590
X39370Y19050
X39370Y16510
X39370Y13970
X39370Y11430
X39370Y8890
X39370Y6350
X39370Y3810
X11430Y3810
X11430Y6350
X11430Y8890
X11430Y11430
X11430Y13970
X11430Y16510
X11430Y19050
X11430Y21590
X11430Y24130
X11430Y1270
X39370Y1270
X36830Y1270
X41910Y64770
X31750Y1270
X29210Y1270
X26670Y1270
X24130Y1270
X21590Y1270
X19050Y1270
X16510Y1270
X13970Y1270
X39370Y26670
X8890Y26670
X36830Y26670
X34290Y26670
X31750Y26670
X29210Y26670
X26670Y26670
X24130Y26670
X21590Y26670
X19050Y26670
X16510Y26670
X13970Y26670
X11430Y26670
X8890Y1270
X13970Y3810
X13970Y6350
X13970Y8890
X13970Y11430
X13970Y13970
X13970Y16510
X13970Y19050
X13970Y21590
X13970Y24130
X36830Y3810
X36830Y6350
X36830Y8890
X36830Y11430
X36830Y13970
X36830Y16510
X36830Y19050
X36830Y21590
X36830Y24130
X16510Y3810
X19050Y3810
X21590Y3810
X24130Y3810
X26670Y3810
X29210Y3810
X31750Y3810
X34290Y3810
X34290Y6350
X31750Y6350
X29210Y6350
X26670Y6350
X24130Y6350
X21590Y6350
X19050Y6350
X16510Y6350
X34290Y16510
X34290Y8890
X34290Y11430
X34290Y13970
X34290Y19050
X34290Y21590
X34290Y24130
X31750Y24130
T8
X1270Y6350
X1270Y1270
X6350Y1270
X1270Y77470
X1270Y72390
X6350Y77470
X100330Y77470
X105410Y77470
X105410Y72390
X100330Y72390
X100330Y6350
X100330Y1270
X105410Y6350
X105410Y1270
X16764Y14224
X16510Y16510
X19050Y16510
X19050Y13970
X19050Y11430
X16510Y11430
X21590Y11430
X21590Y8636
X24130Y8636
X16510Y21590
X19050Y21590
X21590Y21590
X21590Y24130
X24130Y24130
X26670Y24130
X29210Y24130
X26670Y21590
X29210Y21590
X29210Y19050
X29210Y16510
X29210Y13970
X31750Y13970
X31750Y11430
X44450Y8890
X49530Y8890
X52070Y8890
X55880Y12700
X24130Y11430
X26670Y11430
X26670Y8636
X29210Y8636
X29210Y11430
X19050Y19050
X3810Y11430
X6350Y11430
X52070Y19050
X54610Y19050
X57150Y19050
X59690Y19050
X54610Y24130
X54610Y21590
X52070Y21590
X44450Y29210
X44450Y31750
X44450Y26670
X44450Y21590
X44450Y19050
X44450Y16510
X72390Y16510
X72390Y19050
X67310Y19050
X67310Y16510
X87884Y19050
X92710Y18542
X98171Y19177
X97917Y21717
X71882Y22860
X72390Y38354
X64770Y39243
X72898Y41656
X12065Y52070
X12065Y54610
X12065Y49530
X6985Y69215
X6985Y66675
X7620Y65024
X6350Y63754
X17780Y54864
X17780Y57150
X17780Y59436
X17272Y61976
X20066Y67818
X15494Y72136
X12700Y70104
X19558Y72390
X16383Y74930
X10414Y61976
X10414Y59436
X3810Y45085
X96774Y52578
X29083Y74295
X10795Y68834
X36703Y71120
X37973Y66040
X34925Y63500
X34925Y61595
X34925Y60325
X34925Y59055
X37465Y57785
X37465Y56515
X37465Y59055
X35560Y66040
X50800Y73025
X50800Y71755
X50800Y70485
X50800Y67945
X50800Y66675
X48260Y64135
X48260Y62865
X48260Y61595
X48260Y60325
X48260Y59055
X48260Y57785
X48260Y56515
X48260Y55245
X55880Y66675
X55880Y64135
X55880Y61595
X55880Y59055
X55880Y55245
X53975Y55245
X55880Y52705
X55880Y51435
X47625Y51435
X47625Y50165
X46990Y48895
X46990Y43815
X56515Y43815
X53975Y43815
X53975Y42545
X53975Y45085
X68580Y73025
X68580Y71755
X68580Y70485
X68580Y69215
X68580Y67945
X68580Y66675
X68580Y64135
X68580Y61595
X68580Y59055
X68580Y51435
X68580Y50165
X6350Y72390
X3937Y29337
X2540Y26670
X87884Y22860
X87884Y16510
X87884Y12700
X92710Y16764
X98044Y16256
X96774Y14478
X99314Y26797
X99314Y29337
X99314Y31877
X99314Y34671
X99314Y37338
X99314Y39751
X99314Y42418
X99314Y44831
X96774Y57658
X96774Y54229
X12065Y65405
X19050Y66040
X2540Y52832
X2540Y55245
X2540Y58039
X5715Y54610
X5715Y56515
X6350Y58674
X5842Y60452
X2413Y63246
X35560Y74295
X48260Y74295
X55880Y74295
X55880Y69342
X68580Y74295
X72390Y74295
X72390Y73025
X72390Y71755
X72390Y70485
X72390Y69215
X72390Y67945
X72390Y66675
X72390Y64135
X72390Y61595
X72390Y59055
X72390Y51435
X72390Y50165
X55880Y35560
X31750Y16510
X31750Y21590
X59690Y8890
X62230Y11430
X67310Y8890
X71755Y8890
X76200Y8890
X90170Y34290
X90170Y31750
X90170Y29210
X82550Y33020
X96520Y50165
X96647Y60198
X96647Y62738
X77470Y80010
X82550Y80010
X85090Y80010
X88265Y80010
X85725Y74930
X93980Y73660
X93980Y71120
X92710Y69850
X92075Y67310
X11430Y27940
X12065Y67310
X19685Y64770
X19685Y69850
X19685Y74930
X12065Y72390
X48260Y53594
X6350Y13970
X24384Y33020
X25400Y15240
X18415Y61214
X25019Y30734
X24638Y21082
X40894Y18288
X41656Y36576
X23876Y36068
X84328Y9398
X83312Y47498
X91186Y47498
X85090Y9906
X84328Y44450
X90932Y43942
X78740Y6604
X90424Y41148
X88900Y4318
X89662Y39243
X86614Y7366
X86868Y43180
X85852Y10668
X84836Y45974
X81026Y5334
X81280Y48260
X87376Y8128
X86360Y50546
X66040Y3048
X66040Y46736
X73406Y46482
X68580Y5588
X68580Y44450
X71120Y44450
X63754Y9144
X69215Y41910
X75692Y2794
X67310Y39370
X77470Y6096
X66675Y42545
X74930Y3556
X65151Y44831
X27940Y48768
X64770Y48006
X41148Y1778
X74168Y2286
X74168Y50292
X74168Y76708
X30734Y5588
X30734Y22098
X45720Y22098
X45720Y54102
X30226Y7874
X29972Y16002
X5080Y9906
X15240Y45720
X17018Y66294
X19304Y52070
X19304Y42672
X93218Y14478
X13208Y12954
X7112Y7366
X53848Y12954
X14986Y68834
X54610Y69342
X16256Y50038
X52070Y27432
X71120Y26670
X71120Y15494
X14986Y47752
X14986Y53594
X37338Y49530
X78232Y8890
X78740Y17780
X10922Y51308
X34798Y52070
X91186Y51562
X91440Y20320
X37592Y54356
X11684Y55626
X91694Y54610
X92202Y22860
X35052Y57150
X12192Y56388
X92202Y56642
X92710Y24892
X12319Y58674
X31750Y59690
X92710Y59055
X93218Y27432
X38608Y62230
X12319Y62992
X93472Y60833
X93726Y29972
X31750Y67056
X31750Y63500
X87630Y36322
X88646Y67310
X35814Y64770
X92202Y64389
X94234Y32258
X39370Y65532
X39370Y55880
X87630Y37846
X88138Y66548
X37846Y61214
X37846Y63500
X29718Y60960
X86106Y41910
X86106Y63500
X33274Y55118
X33274Y66040
X85598Y44958
X84836Y55626
X36830Y60452
X36830Y67818
X89281Y48133
X89662Y60960
X30480Y69850
X83312Y49784
X84074Y69850
X34290Y68580
X34290Y71120
X82804Y52070
X84074Y68580
X28702Y43180
X28448Y72390
X82042Y53848
X83566Y72390
X25400Y76708
X31242Y38862
X82042Y57150
X82550Y76200
X16002Y13462
X10160Y55880
X48260Y27940
X10160Y66040
X46482Y65532
X58420Y52705
X96520Y46990
X61214Y53848
X58674Y26162
X50800Y29718
X49022Y52832
X83820Y24765
X73406Y22606
X13462Y15240
X13462Y20574
X46482Y50292
X10160Y48514
X51308Y47752
X51308Y62992
X100838Y62230
X17526Y47752
X50800Y45212
X50038Y60198
X100330Y59690
X12192Y44958
X12065Y22479
X10922Y20066
X72390Y35052
X69850Y12700
X81788Y12700
X64008Y58420
X63500Y71120
X39370Y73660
X38100Y21082
X57150Y20828
X76835Y22860
X76200Y34036
X56515Y42545
X76962Y33020
X64770Y13970
X51562Y42418
X51816Y57658
X99568Y57150
X10922Y42418
X52578Y39878
X52578Y56388
X98806Y54610
X15240Y40386
X50038Y40640
X50038Y53340
X98044Y52070
X11938Y40640
X49530Y43180
X49530Y50292
X97282Y49530
X15240Y43942
X53467Y45720
X53467Y47752
X18288Y45720
X81788Y45212
X93980Y19558
X36068Y17272
X48260Y13970
X34290Y10160
X9652Y23368
X50800Y23368
X5842Y15748
X5080Y36068
X45720Y17780
X6096Y17780
X82042Y50800
X17780Y50546
X82550Y49530
X82042Y42418
X55880Y48768
X55880Y38100
X20066Y37846
X83312Y45974
X82550Y38862
X20828Y46228
X53340Y43180
X53340Y35814
X20828Y35306
X22479Y4826
X83058Y43434
X83058Y37846
X85852Y40386
X86106Y33020
X22098Y35814
X81788Y30734
X81788Y40894
X85598Y28448
X85598Y43434
X30480Y4445
X88138Y25654
X88900Y46736
X40132Y34036
X26670Y36830
X40640Y36830
X23114Y63754
X22479Y60706
X64770Y33528
X25908Y58674
X81026Y65532
X60198Y28194
X85598Y73660
X85598Y62230
X64008Y32766
X29210Y72898
X29210Y50800
X5842Y35560
X7874Y8128
X17272Y76200
X19812Y44196
X82550Y74930
X82042Y59690
X25146Y43561
X30988Y75438
X15748Y7112
M30