G04 EAGLE Gerber RS-274X export*
G75*
%MOMM*%
%FSLAX34Y34*%
%LPD*%
%INSoldermask Bottom*%
%IPPOS*%
%AMOC8*
5,1,8,0,0,1.08239X$1,22.5*%
G01*
%ADD10C,4.152400*%
%ADD11R,10.160000X2.540000*%
%ADD12R,5.080000X5.080000*%
%ADD13C,1.371600*%
%ADD14C,1.752600*%
%ADD15C,2.032000*%
%ADD16C,2.692400*%
%ADD17C,4.140200*%
%ADD18C,3.200400*%
%ADD19C,4.470400*%

G36*
X208300Y743462D02*
X208300Y743462D01*
X208319Y743460D01*
X208421Y743482D01*
X208523Y743499D01*
X208540Y743508D01*
X208560Y743512D01*
X208649Y743565D01*
X208740Y743614D01*
X208754Y743628D01*
X208771Y743638D01*
X208838Y743717D01*
X208910Y743792D01*
X208918Y743810D01*
X208931Y743825D01*
X208970Y743921D01*
X209013Y744015D01*
X209015Y744035D01*
X209023Y744053D01*
X209041Y744220D01*
X209041Y754380D01*
X209038Y754400D01*
X209040Y754419D01*
X209018Y754521D01*
X209002Y754623D01*
X208992Y754640D01*
X208988Y754660D01*
X208935Y754749D01*
X208886Y754840D01*
X208872Y754854D01*
X208862Y754871D01*
X208783Y754938D01*
X208708Y755010D01*
X208690Y755018D01*
X208675Y755031D01*
X208579Y755070D01*
X208485Y755113D01*
X208465Y755115D01*
X208447Y755123D01*
X208280Y755141D01*
X200660Y755141D01*
X200640Y755138D01*
X200621Y755140D01*
X200519Y755118D01*
X200417Y755102D01*
X200400Y755092D01*
X200380Y755088D01*
X200291Y755035D01*
X200200Y754986D01*
X200186Y754972D01*
X200169Y754962D01*
X200102Y754883D01*
X200031Y754808D01*
X200022Y754790D01*
X200009Y754775D01*
X199970Y754679D01*
X199927Y754585D01*
X199925Y754565D01*
X199917Y754547D01*
X199899Y754380D01*
X199899Y744220D01*
X199902Y744200D01*
X199900Y744181D01*
X199922Y744079D01*
X199939Y743977D01*
X199948Y743960D01*
X199952Y743940D01*
X200005Y743851D01*
X200054Y743760D01*
X200068Y743746D01*
X200078Y743729D01*
X200157Y743662D01*
X200232Y743591D01*
X200250Y743582D01*
X200265Y743569D01*
X200361Y743530D01*
X200455Y743487D01*
X200475Y743485D01*
X200493Y743477D01*
X200660Y743459D01*
X208280Y743459D01*
X208300Y743462D01*
G37*
G36*
X132100Y718062D02*
X132100Y718062D01*
X132119Y718060D01*
X132221Y718082D01*
X132323Y718099D01*
X132340Y718108D01*
X132360Y718112D01*
X132449Y718165D01*
X132540Y718214D01*
X132554Y718228D01*
X132571Y718238D01*
X132638Y718317D01*
X132710Y718392D01*
X132718Y718410D01*
X132731Y718425D01*
X132770Y718521D01*
X132813Y718615D01*
X132815Y718635D01*
X132823Y718653D01*
X132841Y718820D01*
X132841Y728980D01*
X132838Y729000D01*
X132840Y729019D01*
X132818Y729121D01*
X132802Y729223D01*
X132792Y729240D01*
X132788Y729260D01*
X132735Y729349D01*
X132686Y729440D01*
X132672Y729454D01*
X132662Y729471D01*
X132583Y729538D01*
X132508Y729610D01*
X132490Y729618D01*
X132475Y729631D01*
X132379Y729670D01*
X132285Y729713D01*
X132265Y729715D01*
X132247Y729723D01*
X132080Y729741D01*
X124460Y729741D01*
X124440Y729738D01*
X124421Y729740D01*
X124319Y729718D01*
X124217Y729702D01*
X124200Y729692D01*
X124180Y729688D01*
X124091Y729635D01*
X124000Y729586D01*
X123986Y729572D01*
X123969Y729562D01*
X123902Y729483D01*
X123831Y729408D01*
X123822Y729390D01*
X123809Y729375D01*
X123770Y729279D01*
X123727Y729185D01*
X123725Y729165D01*
X123717Y729147D01*
X123699Y728980D01*
X123699Y718820D01*
X123702Y718800D01*
X123700Y718781D01*
X123722Y718679D01*
X123739Y718577D01*
X123748Y718560D01*
X123752Y718540D01*
X123805Y718451D01*
X123854Y718360D01*
X123868Y718346D01*
X123878Y718329D01*
X123957Y718262D01*
X124032Y718191D01*
X124050Y718182D01*
X124065Y718169D01*
X124161Y718130D01*
X124255Y718087D01*
X124275Y718085D01*
X124293Y718077D01*
X124460Y718059D01*
X132080Y718059D01*
X132100Y718062D01*
G37*
G36*
X208300Y692662D02*
X208300Y692662D01*
X208319Y692660D01*
X208421Y692682D01*
X208523Y692699D01*
X208540Y692708D01*
X208560Y692712D01*
X208649Y692765D01*
X208740Y692814D01*
X208754Y692828D01*
X208771Y692838D01*
X208838Y692917D01*
X208910Y692992D01*
X208918Y693010D01*
X208931Y693025D01*
X208970Y693121D01*
X209013Y693215D01*
X209015Y693235D01*
X209023Y693253D01*
X209041Y693420D01*
X209041Y703580D01*
X209038Y703600D01*
X209040Y703619D01*
X209018Y703721D01*
X209002Y703823D01*
X208992Y703840D01*
X208988Y703860D01*
X208935Y703949D01*
X208886Y704040D01*
X208872Y704054D01*
X208862Y704071D01*
X208783Y704138D01*
X208708Y704210D01*
X208690Y704218D01*
X208675Y704231D01*
X208579Y704270D01*
X208485Y704313D01*
X208465Y704315D01*
X208447Y704323D01*
X208280Y704341D01*
X200660Y704341D01*
X200640Y704338D01*
X200621Y704340D01*
X200519Y704318D01*
X200417Y704302D01*
X200400Y704292D01*
X200380Y704288D01*
X200291Y704235D01*
X200200Y704186D01*
X200186Y704172D01*
X200169Y704162D01*
X200102Y704083D01*
X200031Y704008D01*
X200022Y703990D01*
X200009Y703975D01*
X199970Y703879D01*
X199927Y703785D01*
X199925Y703765D01*
X199917Y703747D01*
X199899Y703580D01*
X199899Y693420D01*
X199902Y693400D01*
X199900Y693381D01*
X199922Y693279D01*
X199939Y693177D01*
X199948Y693160D01*
X199952Y693140D01*
X200005Y693051D01*
X200054Y692960D01*
X200068Y692946D01*
X200078Y692929D01*
X200157Y692862D01*
X200232Y692791D01*
X200250Y692782D01*
X200265Y692769D01*
X200361Y692730D01*
X200455Y692687D01*
X200475Y692685D01*
X200493Y692677D01*
X200660Y692659D01*
X208280Y692659D01*
X208300Y692662D01*
G37*
G36*
X132100Y667262D02*
X132100Y667262D01*
X132119Y667260D01*
X132221Y667282D01*
X132323Y667299D01*
X132340Y667308D01*
X132360Y667312D01*
X132449Y667365D01*
X132540Y667414D01*
X132554Y667428D01*
X132571Y667438D01*
X132638Y667517D01*
X132710Y667592D01*
X132718Y667610D01*
X132731Y667625D01*
X132770Y667721D01*
X132813Y667815D01*
X132815Y667835D01*
X132823Y667853D01*
X132841Y668020D01*
X132841Y678180D01*
X132838Y678200D01*
X132840Y678219D01*
X132818Y678321D01*
X132802Y678423D01*
X132792Y678440D01*
X132788Y678460D01*
X132735Y678549D01*
X132686Y678640D01*
X132672Y678654D01*
X132662Y678671D01*
X132583Y678738D01*
X132508Y678810D01*
X132490Y678818D01*
X132475Y678831D01*
X132379Y678870D01*
X132285Y678913D01*
X132265Y678915D01*
X132247Y678923D01*
X132080Y678941D01*
X124460Y678941D01*
X124440Y678938D01*
X124421Y678940D01*
X124319Y678918D01*
X124217Y678902D01*
X124200Y678892D01*
X124180Y678888D01*
X124091Y678835D01*
X124000Y678786D01*
X123986Y678772D01*
X123969Y678762D01*
X123902Y678683D01*
X123831Y678608D01*
X123822Y678590D01*
X123809Y678575D01*
X123770Y678479D01*
X123727Y678385D01*
X123725Y678365D01*
X123717Y678347D01*
X123699Y678180D01*
X123699Y668020D01*
X123702Y668000D01*
X123700Y667981D01*
X123722Y667879D01*
X123739Y667777D01*
X123748Y667760D01*
X123752Y667740D01*
X123805Y667651D01*
X123854Y667560D01*
X123868Y667546D01*
X123878Y667529D01*
X123957Y667462D01*
X124032Y667391D01*
X124050Y667382D01*
X124065Y667369D01*
X124161Y667330D01*
X124255Y667287D01*
X124275Y667285D01*
X124293Y667277D01*
X124460Y667259D01*
X132080Y667259D01*
X132100Y667262D01*
G37*
G36*
X208300Y641862D02*
X208300Y641862D01*
X208319Y641860D01*
X208421Y641882D01*
X208523Y641899D01*
X208540Y641908D01*
X208560Y641912D01*
X208649Y641965D01*
X208740Y642014D01*
X208754Y642028D01*
X208771Y642038D01*
X208838Y642117D01*
X208910Y642192D01*
X208918Y642210D01*
X208931Y642225D01*
X208970Y642321D01*
X209013Y642415D01*
X209015Y642435D01*
X209023Y642453D01*
X209041Y642620D01*
X209041Y652780D01*
X209038Y652800D01*
X209040Y652819D01*
X209018Y652921D01*
X209002Y653023D01*
X208992Y653040D01*
X208988Y653060D01*
X208935Y653149D01*
X208886Y653240D01*
X208872Y653254D01*
X208862Y653271D01*
X208783Y653338D01*
X208708Y653410D01*
X208690Y653418D01*
X208675Y653431D01*
X208579Y653470D01*
X208485Y653513D01*
X208465Y653515D01*
X208447Y653523D01*
X208280Y653541D01*
X200660Y653541D01*
X200640Y653538D01*
X200621Y653540D01*
X200519Y653518D01*
X200417Y653502D01*
X200400Y653492D01*
X200380Y653488D01*
X200291Y653435D01*
X200200Y653386D01*
X200186Y653372D01*
X200169Y653362D01*
X200102Y653283D01*
X200031Y653208D01*
X200022Y653190D01*
X200009Y653175D01*
X199970Y653079D01*
X199927Y652985D01*
X199925Y652965D01*
X199917Y652947D01*
X199899Y652780D01*
X199899Y642620D01*
X199902Y642600D01*
X199900Y642581D01*
X199922Y642479D01*
X199939Y642377D01*
X199948Y642360D01*
X199952Y642340D01*
X200005Y642251D01*
X200054Y642160D01*
X200068Y642146D01*
X200078Y642129D01*
X200157Y642062D01*
X200232Y641991D01*
X200250Y641982D01*
X200265Y641969D01*
X200361Y641930D01*
X200455Y641887D01*
X200475Y641885D01*
X200493Y641877D01*
X200660Y641859D01*
X208280Y641859D01*
X208300Y641862D01*
G37*
D10*
X38100Y749300D03*
X38100Y38100D03*
X1028700Y38100D03*
X1028700Y749300D03*
D11*
X863600Y12700D03*
D12*
X1028700Y749300D03*
X38100Y749300D03*
X38100Y38100D03*
X1028700Y38100D03*
D13*
X88900Y317500D03*
X114300Y317500D03*
X139700Y317500D03*
X165100Y317500D03*
X190500Y317500D03*
X215900Y317500D03*
X241300Y317500D03*
X266700Y317500D03*
X292100Y317500D03*
X317500Y317500D03*
X342900Y317500D03*
X368300Y317500D03*
X393700Y317500D03*
X393700Y292100D03*
X88900Y38100D03*
X88900Y63500D03*
X88900Y88900D03*
X88900Y114300D03*
X88900Y139700D03*
X88900Y165100D03*
X88900Y190500D03*
X88900Y215900D03*
X88900Y241300D03*
X88900Y292100D03*
X114300Y292100D03*
X139700Y292100D03*
X165100Y292100D03*
X190500Y292100D03*
X215900Y292100D03*
X241300Y292100D03*
X266700Y292100D03*
X292100Y292100D03*
X317500Y292100D03*
X342900Y292100D03*
X368300Y292100D03*
X393700Y241300D03*
X393700Y215900D03*
X393700Y190500D03*
X393700Y165100D03*
X393700Y139700D03*
X393700Y114300D03*
X393700Y88900D03*
X393700Y63500D03*
X393700Y38100D03*
X114300Y38100D03*
X114300Y63500D03*
X114300Y88900D03*
X114300Y114300D03*
X114300Y139700D03*
X114300Y165100D03*
X114300Y190500D03*
X114300Y215900D03*
X114300Y241300D03*
X114300Y12700D03*
X393700Y12700D03*
X368300Y12700D03*
X342900Y12700D03*
X317500Y12700D03*
X292100Y12700D03*
X266700Y12700D03*
X241300Y12700D03*
X215900Y12700D03*
X190500Y12700D03*
X165100Y12700D03*
X139700Y12700D03*
X393700Y266700D03*
X88900Y266700D03*
X368300Y266700D03*
X342900Y266700D03*
X317500Y266700D03*
X292100Y266700D03*
X266700Y266700D03*
X241300Y266700D03*
X215900Y266700D03*
X190500Y266700D03*
X165100Y266700D03*
X139700Y266700D03*
X114300Y266700D03*
X88900Y12700D03*
X139700Y38100D03*
X139700Y63500D03*
X139700Y88900D03*
X139700Y114300D03*
X139700Y139700D03*
X139700Y165100D03*
X139700Y190500D03*
X139700Y215900D03*
X139700Y241300D03*
X368300Y38100D03*
X368300Y63500D03*
X368300Y88900D03*
X368300Y114300D03*
X368300Y139700D03*
X368300Y165100D03*
X368300Y190500D03*
X368300Y215900D03*
X368300Y241300D03*
X165100Y38100D03*
X190500Y38100D03*
X215900Y38100D03*
X241300Y38100D03*
X266700Y38100D03*
X292100Y38100D03*
X317500Y38100D03*
X342900Y38100D03*
X342900Y63500D03*
X317500Y63500D03*
X292100Y63500D03*
X266700Y63500D03*
X241300Y63500D03*
X215900Y63500D03*
X190500Y63500D03*
X165100Y63500D03*
X342900Y165100D03*
X342900Y88900D03*
X342900Y114300D03*
X342900Y139700D03*
X342900Y190500D03*
X342900Y215900D03*
X342900Y241300D03*
X317500Y241300D03*
X317500Y88900D03*
X165100Y88900D03*
X165100Y241300D03*
X190500Y241300D03*
X317500Y190500D03*
X190500Y88900D03*
X165100Y190500D03*
X571500Y292100D03*
X546100Y317500D03*
X546100Y292100D03*
X520700Y317500D03*
X520700Y292100D03*
X495300Y317500D03*
X469900Y292100D03*
X495300Y292100D03*
X469900Y266700D03*
X495300Y266700D03*
X469900Y241300D03*
X495300Y241300D03*
X469900Y215900D03*
X495300Y215900D03*
X469900Y190500D03*
X495300Y190500D03*
X469900Y165100D03*
X495300Y139700D03*
X495300Y165100D03*
X520700Y139700D03*
X520700Y165100D03*
X546100Y139700D03*
X546100Y165100D03*
X571500Y139700D03*
X571500Y165100D03*
X596900Y139700D03*
X596900Y165100D03*
X622300Y139700D03*
X647700Y165100D03*
X622300Y165100D03*
X647700Y190500D03*
X622300Y190500D03*
X647700Y215900D03*
X622300Y215900D03*
X647700Y241300D03*
X622300Y241300D03*
X647700Y266700D03*
X622300Y266700D03*
X647700Y292100D03*
X622300Y317500D03*
X622300Y292100D03*
X596900Y317500D03*
X596900Y292100D03*
X571500Y317500D03*
D14*
X88900Y774700D03*
X88900Y749300D03*
X88900Y723900D03*
X88900Y698500D03*
X88900Y673100D03*
X88900Y647700D03*
X88900Y622300D03*
X88900Y596900D03*
X88900Y571500D03*
X88900Y546100D03*
X88900Y520700D03*
X88900Y495300D03*
X88900Y469900D03*
X88900Y444500D03*
X88900Y419100D03*
X88900Y393700D03*
X241300Y393700D03*
X241300Y419100D03*
X241300Y444500D03*
X241300Y469900D03*
X241300Y495300D03*
X241300Y520700D03*
X241300Y546100D03*
X241300Y571500D03*
X241300Y596900D03*
X241300Y622300D03*
X241300Y647700D03*
X241300Y673100D03*
X241300Y698500D03*
X241300Y723900D03*
X241300Y749300D03*
X241300Y774700D03*
X800100Y774700D03*
X800100Y749300D03*
X800100Y723900D03*
X800100Y698500D03*
X800100Y673100D03*
X800100Y647700D03*
X800100Y622300D03*
X800100Y596900D03*
X800100Y571500D03*
X800100Y546100D03*
X800100Y520700D03*
X800100Y495300D03*
X800100Y469900D03*
X800100Y444500D03*
X800100Y419100D03*
X800100Y393700D03*
X952500Y393700D03*
X952500Y419100D03*
X952500Y444500D03*
X952500Y469900D03*
X952500Y495300D03*
X952500Y520700D03*
X952500Y546100D03*
X952500Y571500D03*
X952500Y596900D03*
X952500Y622300D03*
X952500Y647700D03*
X952500Y673100D03*
X952500Y698500D03*
X952500Y723900D03*
X952500Y749300D03*
X952500Y774700D03*
X622300Y774700D03*
X622300Y749300D03*
X622300Y723900D03*
X622300Y698500D03*
X622300Y673100D03*
X622300Y647700D03*
X622300Y622300D03*
X622300Y596900D03*
X622300Y571500D03*
X622300Y546100D03*
X622300Y520700D03*
X622300Y495300D03*
X622300Y469900D03*
X622300Y444500D03*
X622300Y419100D03*
X622300Y393700D03*
X774700Y393700D03*
X774700Y419100D03*
X774700Y444500D03*
X774700Y469900D03*
X774700Y495300D03*
X774700Y520700D03*
X774700Y546100D03*
X774700Y571500D03*
X774700Y596900D03*
X774700Y622300D03*
X774700Y647700D03*
X774700Y673100D03*
X774700Y698500D03*
X774700Y723900D03*
X774700Y749300D03*
X774700Y774700D03*
X444500Y774700D03*
X444500Y749300D03*
X444500Y723900D03*
X444500Y698500D03*
X444500Y673100D03*
X444500Y647700D03*
X444500Y622300D03*
X444500Y596900D03*
X444500Y571500D03*
X444500Y546100D03*
X444500Y520700D03*
X444500Y495300D03*
X444500Y469900D03*
X444500Y444500D03*
X444500Y419100D03*
X444500Y393700D03*
X596900Y393700D03*
X596900Y419100D03*
X596900Y444500D03*
X596900Y469900D03*
X596900Y495300D03*
X596900Y520700D03*
X596900Y546100D03*
X596900Y571500D03*
X596900Y596900D03*
X596900Y622300D03*
X596900Y647700D03*
X596900Y673100D03*
X596900Y698500D03*
X596900Y723900D03*
X596900Y749300D03*
X596900Y774700D03*
X266700Y774700D03*
X266700Y749300D03*
X266700Y723900D03*
X266700Y698500D03*
X266700Y673100D03*
X266700Y647700D03*
X266700Y622300D03*
X266700Y596900D03*
X266700Y571500D03*
X266700Y546100D03*
X266700Y520700D03*
X266700Y495300D03*
X266700Y469900D03*
X266700Y444500D03*
X266700Y419100D03*
X266700Y393700D03*
X419100Y393700D03*
X419100Y419100D03*
X419100Y444500D03*
X419100Y469900D03*
X419100Y495300D03*
X419100Y520700D03*
X419100Y546100D03*
X419100Y571500D03*
X419100Y596900D03*
X419100Y622300D03*
X419100Y647700D03*
X419100Y673100D03*
X419100Y698500D03*
X419100Y723900D03*
X419100Y749300D03*
X419100Y774700D03*
D13*
X469900Y12700D03*
X546100Y12700D03*
X546100Y88900D03*
X469900Y88900D03*
D15*
X1054100Y165100D03*
X1028700Y165100D03*
X1054100Y190500D03*
X1028700Y190500D03*
X1054100Y215900D03*
X1028700Y215900D03*
X1054100Y241300D03*
X1028700Y241300D03*
X1054100Y266700D03*
X1028700Y266700D03*
X1054100Y292100D03*
X1028700Y292100D03*
X1054100Y317500D03*
X1028700Y317500D03*
X1054100Y342900D03*
X1028700Y342900D03*
X1054100Y368300D03*
X1028700Y368300D03*
X1054100Y393700D03*
X1028700Y393700D03*
X1054100Y419100D03*
X1028700Y419100D03*
X1054100Y444500D03*
X1028700Y444500D03*
X1054100Y469900D03*
X1028700Y469900D03*
X1054100Y495300D03*
X1028700Y495300D03*
X1054100Y520700D03*
X1028700Y520700D03*
X1054100Y546100D03*
X1028700Y546100D03*
X1054100Y571500D03*
X1028700Y571500D03*
X1054100Y596900D03*
X1028700Y596900D03*
X1054100Y622300D03*
X1028700Y622300D03*
X1054100Y647700D03*
X1028700Y647700D03*
D13*
X88900Y342900D03*
X114300Y342900D03*
X139700Y342900D03*
X165100Y342900D03*
X190500Y342900D03*
X215900Y342900D03*
X241300Y342900D03*
X266700Y342900D03*
X292100Y342900D03*
X317500Y342900D03*
D15*
X38100Y241300D03*
X12700Y241300D03*
X38100Y215900D03*
X12700Y215900D03*
X38100Y190500D03*
X12700Y190500D03*
X38100Y165100D03*
X12700Y165100D03*
X38100Y139700D03*
X12700Y139700D03*
D13*
X622300Y12700D03*
X698500Y12700D03*
X698500Y88900D03*
X622300Y88900D03*
X698500Y342900D03*
X698500Y317500D03*
X698500Y292100D03*
X698500Y266700D03*
X698500Y241300D03*
X698500Y215900D03*
X698500Y190500D03*
X698500Y165100D03*
X774700Y165100D03*
X774700Y190500D03*
X774700Y215900D03*
X774700Y241300D03*
X774700Y266700D03*
X774700Y292100D03*
X774700Y317500D03*
X774700Y342900D03*
X698500Y368300D03*
X723900Y368300D03*
X749300Y368300D03*
X774700Y368300D03*
X673100Y368300D03*
X647700Y368300D03*
X800100Y368300D03*
X825500Y368300D03*
X419100Y317500D03*
X419100Y292100D03*
X419100Y266700D03*
X419100Y241300D03*
X419100Y215900D03*
X419100Y190500D03*
X419100Y165100D03*
X419100Y139700D03*
X419100Y114300D03*
X419100Y88900D03*
X266700Y139700D03*
X241300Y139700D03*
X215900Y139700D03*
X215900Y165100D03*
X215900Y190500D03*
X241300Y190500D03*
X266700Y190500D03*
X266700Y165100D03*
X800100Y342900D03*
X800100Y317500D03*
X800100Y190500D03*
X800100Y165100D03*
X800100Y292100D03*
X800100Y266700D03*
X800100Y215900D03*
X800100Y241300D03*
X800100Y139700D03*
X800100Y114300D03*
X800100Y88900D03*
X800100Y63500D03*
X952500Y63500D03*
X952500Y88900D03*
X952500Y114300D03*
X952500Y139700D03*
X952500Y165100D03*
X952500Y190500D03*
X952500Y215900D03*
X952500Y241300D03*
X952500Y266700D03*
X952500Y292100D03*
X952500Y317500D03*
X952500Y342900D03*
X825500Y266700D03*
X825500Y241300D03*
X825500Y114300D03*
X825500Y88900D03*
X825500Y215900D03*
X825500Y190500D03*
X825500Y139700D03*
X825500Y165100D03*
X901700Y88900D03*
X901700Y114300D03*
X901700Y139700D03*
X901700Y165100D03*
X901700Y190500D03*
X901700Y215900D03*
X901700Y241300D03*
X901700Y266700D03*
X139700Y596900D03*
X139700Y571500D03*
X139700Y444500D03*
X139700Y419100D03*
X139700Y546100D03*
X139700Y520700D03*
X139700Y469900D03*
X139700Y495300D03*
X139700Y393700D03*
X139700Y368300D03*
X215900Y368300D03*
X215900Y393700D03*
X215900Y419100D03*
X215900Y444500D03*
X215900Y469900D03*
X215900Y495300D03*
X215900Y520700D03*
X215900Y546100D03*
X215900Y571500D03*
X215900Y596900D03*
X139700Y774700D03*
X139700Y749300D03*
X139700Y622300D03*
X215900Y622300D03*
X139700Y723900D03*
X139700Y698500D03*
X139700Y647700D03*
X139700Y673100D03*
X215900Y647700D03*
X215900Y673100D03*
X215900Y698500D03*
X215900Y723900D03*
X215900Y749300D03*
X215900Y774700D03*
D15*
X38100Y469900D03*
X12700Y469900D03*
X38100Y495300D03*
X12700Y495300D03*
X38100Y520700D03*
X12700Y520700D03*
X38100Y546100D03*
X12700Y546100D03*
X38100Y571500D03*
X12700Y571500D03*
X38100Y596900D03*
X12700Y596900D03*
X38100Y622300D03*
X12700Y622300D03*
X38100Y647700D03*
X12700Y647700D03*
X38100Y673100D03*
X12700Y673100D03*
X38100Y698500D03*
X12700Y698500D03*
D13*
X596900Y368300D03*
X622300Y368300D03*
X393700Y774700D03*
X368300Y774700D03*
X571500Y774700D03*
X546100Y774700D03*
X749300Y774700D03*
X723900Y774700D03*
X927100Y774700D03*
X901700Y774700D03*
D15*
X1003300Y850900D03*
X1003300Y825500D03*
X977900Y850900D03*
X977900Y825500D03*
X952500Y850900D03*
X952500Y825500D03*
X927100Y850900D03*
X927100Y825500D03*
X901700Y850900D03*
X901700Y825500D03*
X876300Y850900D03*
X876300Y825500D03*
X850900Y850900D03*
X850900Y825500D03*
X825500Y850900D03*
X825500Y825500D03*
X800100Y850900D03*
X800100Y825500D03*
X774700Y850900D03*
X774700Y825500D03*
X749300Y850900D03*
X749300Y825500D03*
X723900Y850900D03*
X723900Y825500D03*
X698500Y850900D03*
X698500Y825500D03*
X673100Y850900D03*
X673100Y825500D03*
X647700Y850900D03*
X647700Y825500D03*
X622300Y850900D03*
X622300Y825500D03*
X596900Y850900D03*
X596900Y825500D03*
X571500Y850900D03*
X571500Y825500D03*
X546100Y850900D03*
X546100Y825500D03*
X520700Y850900D03*
X520700Y825500D03*
D14*
X419100Y820420D03*
X419100Y855980D03*
D16*
X25400Y838200D03*
X228600Y838200D03*
D17*
X76200Y914400D03*
X177800Y914400D03*
D18*
X50800Y812800D03*
X101600Y812800D03*
X152400Y812800D03*
X203200Y812800D03*
D19*
X323850Y802800D03*
X323850Y862800D03*
X276850Y832800D03*
M02*
