G04 EAGLE Gerber RS-274X export*
G75*
%MOMM*%
%FSLAX34Y34*%
%LPD*%
%INSoldermask Top*%
%IPPOS*%
%AMOC8*
5,1,8,0,0,1.08239X$1,22.5*%
G01*
%ADD10C,4.152400*%
%ADD11R,10.160000X2.540000*%
%ADD12R,5.080000X5.080000*%
%ADD13C,1.371600*%
%ADD14C,1.752600*%
%ADD15C,2.032000*%
%ADD16C,2.692400*%
%ADD17C,4.140200*%
%ADD18C,3.200400*%
%ADD19C,4.470400*%


D10*
X38100Y749300D03*
X38100Y38100D03*
X1028700Y38100D03*
X1028700Y749300D03*
D11*
X863600Y12700D03*
D12*
X38100Y749300D03*
X38100Y38100D03*
X1028700Y38100D03*
X1028700Y749300D03*
D13*
X88900Y317500D03*
X114300Y317500D03*
X139700Y317500D03*
X165100Y317500D03*
X190500Y317500D03*
X215900Y317500D03*
X241300Y317500D03*
X266700Y317500D03*
X292100Y317500D03*
X317500Y317500D03*
X342900Y317500D03*
X368300Y317500D03*
X393700Y317500D03*
X393700Y292100D03*
X88900Y38100D03*
X88900Y63500D03*
X88900Y88900D03*
X88900Y114300D03*
X88900Y139700D03*
X88900Y165100D03*
X88900Y190500D03*
X88900Y215900D03*
X88900Y241300D03*
X88900Y292100D03*
X114300Y292100D03*
X139700Y292100D03*
X165100Y292100D03*
X190500Y292100D03*
X215900Y292100D03*
X241300Y292100D03*
X266700Y292100D03*
X292100Y292100D03*
X317500Y292100D03*
X342900Y292100D03*
X368300Y292100D03*
X393700Y241300D03*
X393700Y215900D03*
X393700Y190500D03*
X393700Y165100D03*
X393700Y139700D03*
X393700Y114300D03*
X393700Y88900D03*
X393700Y63500D03*
X393700Y38100D03*
X114300Y38100D03*
X114300Y63500D03*
X114300Y88900D03*
X114300Y114300D03*
X114300Y139700D03*
X114300Y165100D03*
X114300Y190500D03*
X114300Y215900D03*
X114300Y241300D03*
X114300Y12700D03*
X393700Y12700D03*
X368300Y12700D03*
X342900Y12700D03*
X317500Y12700D03*
X292100Y12700D03*
X266700Y12700D03*
X241300Y12700D03*
X215900Y12700D03*
X190500Y12700D03*
X165100Y12700D03*
X139700Y12700D03*
X393700Y266700D03*
X88900Y266700D03*
X368300Y266700D03*
X342900Y266700D03*
X317500Y266700D03*
X292100Y266700D03*
X266700Y266700D03*
X241300Y266700D03*
X215900Y266700D03*
X190500Y266700D03*
X165100Y266700D03*
X139700Y266700D03*
X114300Y266700D03*
X88900Y12700D03*
X139700Y38100D03*
X139700Y63500D03*
X139700Y88900D03*
X139700Y114300D03*
X139700Y139700D03*
X139700Y165100D03*
X139700Y190500D03*
X139700Y215900D03*
X139700Y241300D03*
X368300Y38100D03*
X368300Y63500D03*
X368300Y88900D03*
X368300Y114300D03*
X368300Y139700D03*
X368300Y165100D03*
X368300Y190500D03*
X368300Y215900D03*
X368300Y241300D03*
X165100Y38100D03*
X190500Y38100D03*
X215900Y38100D03*
X241300Y38100D03*
X266700Y38100D03*
X292100Y38100D03*
X317500Y38100D03*
X342900Y38100D03*
X342900Y63500D03*
X317500Y63500D03*
X292100Y63500D03*
X266700Y63500D03*
X241300Y63500D03*
X215900Y63500D03*
X190500Y63500D03*
X165100Y63500D03*
X342900Y165100D03*
X342900Y88900D03*
X342900Y114300D03*
X342900Y139700D03*
X342900Y190500D03*
X342900Y215900D03*
X342900Y241300D03*
X317500Y241300D03*
X317500Y88900D03*
X165100Y88900D03*
X165100Y241300D03*
X190500Y241300D03*
X317500Y190500D03*
X190500Y88900D03*
X165100Y190500D03*
X571500Y292100D03*
X546100Y317500D03*
X546100Y292100D03*
X520700Y317500D03*
X520700Y292100D03*
X495300Y317500D03*
X469900Y292100D03*
X495300Y292100D03*
X469900Y266700D03*
X495300Y266700D03*
X469900Y241300D03*
X495300Y241300D03*
X469900Y215900D03*
X495300Y215900D03*
X469900Y190500D03*
X495300Y190500D03*
X469900Y165100D03*
X495300Y139700D03*
X495300Y165100D03*
X520700Y139700D03*
X520700Y165100D03*
X546100Y139700D03*
X546100Y165100D03*
X571500Y139700D03*
X571500Y165100D03*
X596900Y139700D03*
X596900Y165100D03*
X622300Y139700D03*
X647700Y165100D03*
X622300Y165100D03*
X647700Y190500D03*
X622300Y190500D03*
X647700Y215900D03*
X622300Y215900D03*
X647700Y241300D03*
X622300Y241300D03*
X647700Y266700D03*
X622300Y266700D03*
X647700Y292100D03*
X622300Y317500D03*
X622300Y292100D03*
X596900Y317500D03*
X596900Y292100D03*
X571500Y317500D03*
D14*
X88900Y774700D03*
X88900Y749300D03*
X88900Y723900D03*
X88900Y698500D03*
X88900Y673100D03*
X88900Y647700D03*
X88900Y622300D03*
X88900Y596900D03*
X88900Y571500D03*
X88900Y546100D03*
X88900Y520700D03*
X88900Y495300D03*
X88900Y469900D03*
X88900Y444500D03*
X88900Y419100D03*
X88900Y393700D03*
X241300Y393700D03*
X241300Y419100D03*
X241300Y444500D03*
X241300Y469900D03*
X241300Y495300D03*
X241300Y520700D03*
X241300Y546100D03*
X241300Y571500D03*
X241300Y596900D03*
X241300Y622300D03*
X241300Y647700D03*
X241300Y673100D03*
X241300Y698500D03*
X241300Y723900D03*
X241300Y749300D03*
X241300Y774700D03*
X800100Y774700D03*
X800100Y749300D03*
X800100Y723900D03*
X800100Y698500D03*
X800100Y673100D03*
X800100Y647700D03*
X800100Y622300D03*
X800100Y596900D03*
X800100Y571500D03*
X800100Y546100D03*
X800100Y520700D03*
X800100Y495300D03*
X800100Y469900D03*
X800100Y444500D03*
X800100Y419100D03*
X800100Y393700D03*
X952500Y393700D03*
X952500Y419100D03*
X952500Y444500D03*
X952500Y469900D03*
X952500Y495300D03*
X952500Y520700D03*
X952500Y546100D03*
X952500Y571500D03*
X952500Y596900D03*
X952500Y622300D03*
X952500Y647700D03*
X952500Y673100D03*
X952500Y698500D03*
X952500Y723900D03*
X952500Y749300D03*
X952500Y774700D03*
X622300Y774700D03*
X622300Y749300D03*
X622300Y723900D03*
X622300Y698500D03*
X622300Y673100D03*
X622300Y647700D03*
X622300Y622300D03*
X622300Y596900D03*
X622300Y571500D03*
X622300Y546100D03*
X622300Y520700D03*
X622300Y495300D03*
X622300Y469900D03*
X622300Y444500D03*
X622300Y419100D03*
X622300Y393700D03*
X774700Y393700D03*
X774700Y419100D03*
X774700Y444500D03*
X774700Y469900D03*
X774700Y495300D03*
X774700Y520700D03*
X774700Y546100D03*
X774700Y571500D03*
X774700Y596900D03*
X774700Y622300D03*
X774700Y647700D03*
X774700Y673100D03*
X774700Y698500D03*
X774700Y723900D03*
X774700Y749300D03*
X774700Y774700D03*
X444500Y774700D03*
X444500Y749300D03*
X444500Y723900D03*
X444500Y698500D03*
X444500Y673100D03*
X444500Y647700D03*
X444500Y622300D03*
X444500Y596900D03*
X444500Y571500D03*
X444500Y546100D03*
X444500Y520700D03*
X444500Y495300D03*
X444500Y469900D03*
X444500Y444500D03*
X444500Y419100D03*
X444500Y393700D03*
X596900Y393700D03*
X596900Y419100D03*
X596900Y444500D03*
X596900Y469900D03*
X596900Y495300D03*
X596900Y520700D03*
X596900Y546100D03*
X596900Y571500D03*
X596900Y596900D03*
X596900Y622300D03*
X596900Y647700D03*
X596900Y673100D03*
X596900Y698500D03*
X596900Y723900D03*
X596900Y749300D03*
X596900Y774700D03*
X266700Y774700D03*
X266700Y749300D03*
X266700Y723900D03*
X266700Y698500D03*
X266700Y673100D03*
X266700Y647700D03*
X266700Y622300D03*
X266700Y596900D03*
X266700Y571500D03*
X266700Y546100D03*
X266700Y520700D03*
X266700Y495300D03*
X266700Y469900D03*
X266700Y444500D03*
X266700Y419100D03*
X266700Y393700D03*
X419100Y393700D03*
X419100Y419100D03*
X419100Y444500D03*
X419100Y469900D03*
X419100Y495300D03*
X419100Y520700D03*
X419100Y546100D03*
X419100Y571500D03*
X419100Y596900D03*
X419100Y622300D03*
X419100Y647700D03*
X419100Y673100D03*
X419100Y698500D03*
X419100Y723900D03*
X419100Y749300D03*
X419100Y774700D03*
D13*
X469900Y12700D03*
X546100Y12700D03*
X546100Y88900D03*
X469900Y88900D03*
D15*
X1054100Y165100D03*
X1028700Y165100D03*
X1054100Y190500D03*
X1028700Y190500D03*
X1054100Y215900D03*
X1028700Y215900D03*
X1054100Y241300D03*
X1028700Y241300D03*
X1054100Y266700D03*
X1028700Y266700D03*
X1054100Y292100D03*
X1028700Y292100D03*
X1054100Y317500D03*
X1028700Y317500D03*
X1054100Y342900D03*
X1028700Y342900D03*
X1054100Y368300D03*
X1028700Y368300D03*
X1054100Y393700D03*
X1028700Y393700D03*
X1054100Y419100D03*
X1028700Y419100D03*
X1054100Y444500D03*
X1028700Y444500D03*
X1054100Y469900D03*
X1028700Y469900D03*
X1054100Y495300D03*
X1028700Y495300D03*
X1054100Y520700D03*
X1028700Y520700D03*
X1054100Y546100D03*
X1028700Y546100D03*
X1054100Y571500D03*
X1028700Y571500D03*
X1054100Y596900D03*
X1028700Y596900D03*
X1054100Y622300D03*
X1028700Y622300D03*
X1054100Y647700D03*
X1028700Y647700D03*
D13*
X88900Y342900D03*
X114300Y342900D03*
X139700Y342900D03*
X165100Y342900D03*
X190500Y342900D03*
X215900Y342900D03*
X241300Y342900D03*
X266700Y342900D03*
X292100Y342900D03*
X317500Y342900D03*
D15*
X38100Y241300D03*
X12700Y241300D03*
X38100Y215900D03*
X12700Y215900D03*
X38100Y190500D03*
X12700Y190500D03*
X38100Y165100D03*
X12700Y165100D03*
X38100Y139700D03*
X12700Y139700D03*
D13*
X622300Y12700D03*
X698500Y12700D03*
X698500Y88900D03*
X622300Y88900D03*
X698500Y342900D03*
X698500Y317500D03*
X698500Y292100D03*
X698500Y266700D03*
X698500Y241300D03*
X698500Y215900D03*
X698500Y190500D03*
X698500Y165100D03*
X774700Y165100D03*
X774700Y190500D03*
X774700Y215900D03*
X774700Y241300D03*
X774700Y266700D03*
X774700Y292100D03*
X774700Y317500D03*
X774700Y342900D03*
X698500Y368300D03*
X723900Y368300D03*
X749300Y368300D03*
X774700Y368300D03*
X673100Y368300D03*
X647700Y368300D03*
X800100Y368300D03*
X825500Y368300D03*
X419100Y317500D03*
X419100Y292100D03*
X419100Y266700D03*
X419100Y241300D03*
X419100Y215900D03*
X419100Y190500D03*
X419100Y165100D03*
X419100Y139700D03*
X419100Y114300D03*
X419100Y88900D03*
X266700Y139700D03*
X241300Y139700D03*
X215900Y139700D03*
X215900Y165100D03*
X215900Y190500D03*
X241300Y190500D03*
X266700Y190500D03*
X266700Y165100D03*
X800100Y342900D03*
X800100Y317500D03*
X800100Y190500D03*
X800100Y165100D03*
X800100Y292100D03*
X800100Y266700D03*
X800100Y215900D03*
X800100Y241300D03*
X800100Y139700D03*
X800100Y114300D03*
X800100Y88900D03*
X800100Y63500D03*
X952500Y63500D03*
X952500Y88900D03*
X952500Y114300D03*
X952500Y139700D03*
X952500Y165100D03*
X952500Y190500D03*
X952500Y215900D03*
X952500Y241300D03*
X952500Y266700D03*
X952500Y292100D03*
X952500Y317500D03*
X952500Y342900D03*
X825500Y266700D03*
X825500Y241300D03*
X825500Y114300D03*
X825500Y88900D03*
X825500Y215900D03*
X825500Y190500D03*
X825500Y139700D03*
X825500Y165100D03*
X901700Y88900D03*
X901700Y114300D03*
X901700Y139700D03*
X901700Y165100D03*
X901700Y190500D03*
X901700Y215900D03*
X901700Y241300D03*
X901700Y266700D03*
X139700Y596900D03*
X139700Y571500D03*
X139700Y444500D03*
X139700Y419100D03*
X139700Y546100D03*
X139700Y520700D03*
X139700Y469900D03*
X139700Y495300D03*
X139700Y393700D03*
X139700Y368300D03*
X215900Y368300D03*
X215900Y393700D03*
X215900Y419100D03*
X215900Y444500D03*
X215900Y469900D03*
X215900Y495300D03*
X215900Y520700D03*
X215900Y546100D03*
X215900Y571500D03*
X215900Y596900D03*
X139700Y774700D03*
X139700Y749300D03*
X139700Y622300D03*
X215900Y622300D03*
X139700Y723900D03*
X139700Y698500D03*
X139700Y647700D03*
X139700Y673100D03*
X215900Y647700D03*
X215900Y673100D03*
X215900Y698500D03*
X215900Y723900D03*
X215900Y749300D03*
X215900Y774700D03*
D15*
X38100Y469900D03*
X12700Y469900D03*
X38100Y495300D03*
X12700Y495300D03*
X38100Y520700D03*
X12700Y520700D03*
X38100Y546100D03*
X12700Y546100D03*
X38100Y571500D03*
X12700Y571500D03*
X38100Y596900D03*
X12700Y596900D03*
X38100Y622300D03*
X12700Y622300D03*
X38100Y647700D03*
X12700Y647700D03*
X38100Y673100D03*
X12700Y673100D03*
X38100Y698500D03*
X12700Y698500D03*
D13*
X596900Y368300D03*
X622300Y368300D03*
X393700Y774700D03*
X368300Y774700D03*
X571500Y774700D03*
X546100Y774700D03*
X749300Y774700D03*
X723900Y774700D03*
X927100Y774700D03*
X901700Y774700D03*
D15*
X1003300Y850900D03*
X1003300Y825500D03*
X977900Y850900D03*
X977900Y825500D03*
X952500Y850900D03*
X952500Y825500D03*
X927100Y850900D03*
X927100Y825500D03*
X901700Y850900D03*
X901700Y825500D03*
X876300Y850900D03*
X876300Y825500D03*
X850900Y850900D03*
X850900Y825500D03*
X825500Y850900D03*
X825500Y825500D03*
X800100Y850900D03*
X800100Y825500D03*
X774700Y850900D03*
X774700Y825500D03*
X749300Y850900D03*
X749300Y825500D03*
X723900Y850900D03*
X723900Y825500D03*
X698500Y850900D03*
X698500Y825500D03*
X673100Y850900D03*
X673100Y825500D03*
X647700Y850900D03*
X647700Y825500D03*
X622300Y850900D03*
X622300Y825500D03*
X596900Y850900D03*
X596900Y825500D03*
X571500Y850900D03*
X571500Y825500D03*
X546100Y850900D03*
X546100Y825500D03*
X520700Y850900D03*
X520700Y825500D03*
D14*
X419100Y820420D03*
X419100Y855980D03*
D16*
X25400Y838200D03*
X228600Y838200D03*
D17*
X76200Y914400D03*
X177800Y914400D03*
D18*
X50800Y812800D03*
X101600Y812800D03*
X152400Y812800D03*
X203200Y812800D03*
D19*
X323850Y802800D03*
X323850Y862800D03*
X276850Y832800D03*
M02*
