%TF.GenerationSoftware,KiCad,Pcbnew,(7.0.0)*%
%TF.CreationDate,2023-03-28T13:15:18-05:00*%
%TF.ProjectId,Wrap030-ITX,57726170-3033-4302-9d49-54582e6b6963,1*%
%TF.SameCoordinates,Original*%
%TF.FileFunction,Soldermask,Bot*%
%TF.FilePolarity,Negative*%
%FSLAX46Y46*%
G04 Gerber Fmt 4.6, Leading zero omitted, Abs format (unit mm)*
G04 Created by KiCad (PCBNEW (7.0.0)) date 2023-03-28 13:15:18*
%MOMM*%
%LPD*%
G01*
G04 APERTURE LIST*
G04 Aperture macros list*
%AMRoundRect*
0 Rectangle with rounded corners*
0 $1 Rounding radius*
0 $2 $3 $4 $5 $6 $7 $8 $9 X,Y pos of 4 corners*
0 Add a 4 corners polygon primitive as box body*
4,1,4,$2,$3,$4,$5,$6,$7,$8,$9,$2,$3,0*
0 Add four circle primitives for the rounded corners*
1,1,$1+$1,$2,$3*
1,1,$1+$1,$4,$5*
1,1,$1+$1,$6,$7*
1,1,$1+$1,$8,$9*
0 Add four rect primitives between the rounded corners*
20,1,$1+$1,$2,$3,$4,$5,0*
20,1,$1+$1,$4,$5,$6,$7,0*
20,1,$1+$1,$6,$7,$8,$9,0*
20,1,$1+$1,$8,$9,$2,$3,0*%
G04 Aperture macros list end*
%ADD10R,1.600000X1.600000*%
%ADD11O,1.600000X1.600000*%
%ADD12C,3.810000*%
%ADD13C,2.540000*%
%ADD14C,1.320800*%
%ADD15C,1.651000*%
%ADD16C,0.900000*%
%ADD17C,8.000000*%
%ADD18R,1.500000X1.050000*%
%ADD19O,1.500000X1.050000*%
%ADD20C,1.600000*%
%ADD21R,2.200000X2.200000*%
%ADD22O,2.200000X2.200000*%
%ADD23C,1.700000*%
%ADD24R,1.422400X1.422400*%
%ADD25C,1.422400*%
%ADD26O,2.159000X1.651000*%
%ADD27R,1.800000X1.800000*%
%ADD28C,1.800000*%
%ADD29C,2.000000*%
%ADD30RoundRect,0.250000X1.800000X-1.330000X1.800000X1.330000X-1.800000X1.330000X-1.800000X-1.330000X0*%
%ADD31O,4.100000X3.160000*%
%ADD32R,1.700000X1.700000*%
%ADD33O,1.700000X1.700000*%
%ADD34C,1.270000*%
%ADD35RoundRect,0.250001X1.399999X-1.099999X1.399999X1.099999X-1.399999X1.099999X-1.399999X-1.099999X0*%
%ADD36O,3.300000X2.700000*%
%ADD37C,5.000000*%
%ADD38C,1.750000*%
%ADD39C,1.500000*%
%ADD40RoundRect,0.155000X0.212500X0.155000X-0.212500X0.155000X-0.212500X-0.155000X0.212500X-0.155000X0*%
%ADD41RoundRect,0.155000X-0.212500X-0.155000X0.212500X-0.155000X0.212500X0.155000X-0.212500X0.155000X0*%
%ADD42R,0.900000X0.900000*%
%ADD43RoundRect,0.155000X0.155000X-0.212500X0.155000X0.212500X-0.155000X0.212500X-0.155000X-0.212500X0*%
%ADD44RoundRect,0.155000X-0.155000X0.212500X-0.155000X-0.212500X0.155000X-0.212500X0.155000X0.212500X0*%
%ADD45RoundRect,0.250000X-0.450000X0.262500X-0.450000X-0.262500X0.450000X-0.262500X0.450000X0.262500X0*%
%ADD46RoundRect,0.150000X-0.150000X0.825000X-0.150000X-0.825000X0.150000X-0.825000X0.150000X0.825000X0*%
%ADD47RoundRect,0.250000X0.262500X0.450000X-0.262500X0.450000X-0.262500X-0.450000X0.262500X-0.450000X0*%
G04 APERTURE END LIST*
D10*
%TO.C,U6*%
X236219999Y-173989999D03*
D11*
X236219999Y-171449999D03*
X236219999Y-168909999D03*
X236219999Y-166369999D03*
X236219999Y-163829999D03*
X236219999Y-161289999D03*
X236219999Y-158749999D03*
X236219999Y-156209999D03*
X236219999Y-153669999D03*
X236219999Y-151129999D03*
X228599999Y-151129999D03*
X228599999Y-153669999D03*
X228599999Y-156209999D03*
X228599999Y-158749999D03*
X228599999Y-161289999D03*
X228599999Y-163829999D03*
X228599999Y-166369999D03*
X228599999Y-168909999D03*
X228599999Y-171449999D03*
X228599999Y-173989999D03*
%TD*%
D12*
%TO.C,U8*%
X254000000Y-64770000D03*
D13*
X254000000Y-120650000D03*
X254000000Y-176657000D03*
D14*
X252730000Y-168275000D03*
X255270000Y-167005000D03*
X252730000Y-165735000D03*
X255270000Y-164465000D03*
X252730000Y-163195000D03*
X255270000Y-161925000D03*
X252730000Y-160655000D03*
X255270000Y-159385000D03*
X252730000Y-158115000D03*
X255270000Y-156845000D03*
X252730000Y-155575000D03*
X255270000Y-154305000D03*
X252730000Y-153035000D03*
X255270000Y-151765000D03*
X252730000Y-150495000D03*
X255270000Y-149225000D03*
X252730000Y-147955000D03*
X255270000Y-146685000D03*
X252730000Y-145415000D03*
X255270000Y-144145000D03*
X252730000Y-142875000D03*
X255270000Y-141605000D03*
X252730000Y-140335000D03*
X255270000Y-139065000D03*
X252730000Y-137795000D03*
X255270000Y-136525000D03*
X252730000Y-135255000D03*
X255270000Y-133985000D03*
X252730000Y-132715000D03*
X255270000Y-131445000D03*
X252730000Y-130175000D03*
X255270000Y-128905000D03*
X252730000Y-127635000D03*
X255270000Y-126365000D03*
X252730000Y-125095000D03*
X255270000Y-123825000D03*
X252730000Y-117475000D03*
X255270000Y-116205000D03*
X252730000Y-114935000D03*
X255270000Y-113665000D03*
X252730000Y-112395000D03*
X255270000Y-111125000D03*
X252730000Y-109855000D03*
X255270000Y-108585000D03*
X252730000Y-107315000D03*
X255270000Y-106045000D03*
X252730000Y-104775000D03*
X255270000Y-103505000D03*
X252730000Y-102235000D03*
X255270000Y-100965000D03*
X252730000Y-99695000D03*
X255270000Y-98425000D03*
X252730000Y-97155000D03*
X255270000Y-95885000D03*
X252730000Y-94615000D03*
X255270000Y-93345000D03*
X252730000Y-92075000D03*
X255270000Y-90805000D03*
X252730000Y-89535000D03*
X255270000Y-88265000D03*
X252730000Y-86995000D03*
X255270000Y-85725000D03*
X252730000Y-84455000D03*
X255270000Y-83185000D03*
X252730000Y-81915000D03*
X255270000Y-80645000D03*
X252730000Y-79375000D03*
X255270000Y-78105000D03*
X252730000Y-76835000D03*
X255270000Y-75565000D03*
X252730000Y-74295000D03*
X255270000Y-73025000D03*
%TD*%
D12*
%TO.C,J13*%
X253593600Y-27101800D03*
X260350000Y-26289000D03*
X267106400Y-27101800D03*
D15*
X259054600Y-30099000D03*
X261645400Y-30099000D03*
X256997200Y-30099000D03*
X263702800Y-30099000D03*
X256997200Y-32588200D03*
X263702800Y-32588200D03*
%TD*%
D14*
%TO.C,U12*%
X93980000Y-69850000D03*
X93980000Y-67310000D03*
X93980000Y-64770000D03*
X93980000Y-62230000D03*
X93980000Y-59690000D03*
X93980000Y-57150000D03*
X93980000Y-54610000D03*
X93980000Y-52070000D03*
X93980000Y-49530000D03*
X93980000Y-46990000D03*
X86360000Y-46990000D03*
X86360000Y-49530000D03*
X86360000Y-52070000D03*
X86360000Y-54610000D03*
X86360000Y-57150000D03*
X86360000Y-59690000D03*
X86360000Y-62230000D03*
X86360000Y-64770000D03*
X86360000Y-67310000D03*
X86360000Y-69850000D03*
%TD*%
D16*
%TO.C,H5*%
X60500000Y-186690000D03*
X61378680Y-184568680D03*
X61378680Y-188811320D03*
X63500000Y-183690000D03*
D17*
X63500000Y-186690000D03*
D16*
X63500000Y-189690000D03*
X65621320Y-184568680D03*
X65621320Y-188811320D03*
X66500000Y-186690000D03*
%TD*%
D18*
%TO.C,Q1*%
X243839999Y-255269999D03*
D19*
X243839999Y-253999999D03*
X243839999Y-252729999D03*
%TD*%
D10*
%TO.C,X2*%
X139699999Y-113029999D03*
D20*
X139700000Y-105410000D03*
X132080000Y-105410000D03*
X132080000Y-113030000D03*
%TD*%
D21*
%TO.C,D10*%
X170179999Y-48259999D03*
D22*
X170179999Y-58419999D03*
%TD*%
D16*
%TO.C,H4*%
X40180000Y-186690000D03*
X41058680Y-184568680D03*
X41058680Y-188811320D03*
X43180000Y-183690000D03*
D17*
X43180000Y-186690000D03*
D16*
X43180000Y-189690000D03*
X45301320Y-184568680D03*
X45301320Y-188811320D03*
X46180000Y-186690000D03*
%TD*%
D10*
%TO.C,C84*%
X231139999Y-229869999D03*
D20*
X228640000Y-229870000D03*
%TD*%
D10*
%TO.C,VRAM1*%
X172719999Y-97789999D03*
D11*
X172719999Y-95249999D03*
X172719999Y-92709999D03*
X172719999Y-90169999D03*
X172719999Y-87629999D03*
X172719999Y-85089999D03*
X172719999Y-82549999D03*
X172719999Y-80009999D03*
X172719999Y-77469999D03*
X172719999Y-74929999D03*
X172719999Y-72389999D03*
X172719999Y-69849999D03*
X172719999Y-67309999D03*
X172719999Y-64769999D03*
X165099999Y-64769999D03*
X165099999Y-67309999D03*
X165099999Y-69849999D03*
X165099999Y-72389999D03*
X165099999Y-74929999D03*
X165099999Y-77469999D03*
X165099999Y-80009999D03*
X165099999Y-82549999D03*
X165099999Y-85089999D03*
X165099999Y-87629999D03*
X165099999Y-90169999D03*
X165099999Y-92709999D03*
X165099999Y-95249999D03*
X165099999Y-97789999D03*
%TD*%
D10*
%TO.C,C85*%
X238759999Y-229869999D03*
D20*
X236260000Y-229870000D03*
%TD*%
D23*
%TO.C,Y1*%
X245150000Y-45720000D03*
X247650000Y-45720000D03*
X250150000Y-45720000D03*
%TD*%
D24*
%TO.C,VGEN1*%
X144779999Y-95249999D03*
D25*
X144780000Y-92710000D03*
X147320000Y-95250000D03*
X147320000Y-92710000D03*
X149860000Y-95250000D03*
X149860000Y-92710000D03*
X152400000Y-95250000D03*
X152400000Y-92710000D03*
X154940000Y-95250000D03*
X154940000Y-92710000D03*
X157480000Y-95250000D03*
X160020000Y-92710000D03*
X157480000Y-92710000D03*
X160020000Y-90170000D03*
X157480000Y-90170000D03*
X160020000Y-87630000D03*
X157480000Y-87630000D03*
X160020000Y-85090000D03*
X157480000Y-85090000D03*
X160020000Y-82550000D03*
X157480000Y-82550000D03*
X160020000Y-80010000D03*
X157480000Y-80010000D03*
X160020000Y-77470000D03*
X157480000Y-77470000D03*
X160020000Y-74930000D03*
X157480000Y-74930000D03*
X160020000Y-72390000D03*
X157480000Y-72390000D03*
X160020000Y-69850000D03*
X157480000Y-69850000D03*
X160020000Y-67310000D03*
X157480000Y-64770000D03*
X157480000Y-67310000D03*
X154940000Y-64770000D03*
X154940000Y-67310000D03*
X152400000Y-64770000D03*
X152400000Y-67310000D03*
X149860000Y-64770000D03*
X149860000Y-67310000D03*
X147320000Y-64770000D03*
X147320000Y-67310000D03*
X144780000Y-64770000D03*
X144780000Y-67310000D03*
X142240000Y-64770000D03*
X142240000Y-67310000D03*
X139700000Y-64770000D03*
X139700000Y-67310000D03*
X137160000Y-64770000D03*
X137160000Y-67310000D03*
X134620000Y-64770000D03*
X134620000Y-67310000D03*
X132080000Y-64770000D03*
X129540000Y-67310000D03*
X132080000Y-67310000D03*
X129540000Y-69850000D03*
X132080000Y-69850000D03*
X129540000Y-72390000D03*
X132080000Y-72390000D03*
X129540000Y-74930000D03*
X132080000Y-74930000D03*
X129540000Y-77470000D03*
X132080000Y-77470000D03*
X129540000Y-80010000D03*
X132080000Y-80010000D03*
X129540000Y-82550000D03*
X132080000Y-82550000D03*
X129540000Y-85090000D03*
X132080000Y-85090000D03*
X129540000Y-87630000D03*
X132080000Y-87630000D03*
X129540000Y-90170000D03*
X132080000Y-90170000D03*
X129540000Y-92710000D03*
X132080000Y-95250000D03*
X132080000Y-92710000D03*
X134620000Y-95250000D03*
X134620000Y-92710000D03*
X137160000Y-95250000D03*
X137160000Y-92710000D03*
X139700000Y-95250000D03*
X139700000Y-92710000D03*
X142240000Y-95250000D03*
X142240000Y-92710000D03*
%TD*%
D14*
%TO.C,U15*%
X106680000Y-97790000D03*
X106680000Y-95250000D03*
X106680000Y-92710000D03*
X106680000Y-90170000D03*
X106680000Y-87630000D03*
X106680000Y-85090000D03*
X106680000Y-82550000D03*
X106680000Y-80010000D03*
X106680000Y-77470000D03*
X106680000Y-74930000D03*
X99060000Y-74930000D03*
X99060000Y-77470000D03*
X99060000Y-80010000D03*
X99060000Y-82550000D03*
X99060000Y-85090000D03*
X99060000Y-87630000D03*
X99060000Y-90170000D03*
X99060000Y-92710000D03*
X99060000Y-95250000D03*
X99060000Y-97790000D03*
%TD*%
D26*
%TO.C,J6*%
X73659999Y-46989999D03*
X73659999Y-49529999D03*
X73659999Y-52069999D03*
X73659999Y-54609999D03*
X73659999Y-57149999D03*
X73659999Y-59689999D03*
X73659999Y-62229999D03*
X73659999Y-64769999D03*
X73659999Y-67309999D03*
X73659999Y-69849999D03*
X73659999Y-72389999D03*
X73659999Y-74929999D03*
X73659999Y-77469999D03*
X73659999Y-80009999D03*
X73659999Y-82549999D03*
X73659999Y-85089999D03*
X73659999Y-87629999D03*
X73659999Y-90169999D03*
X73659999Y-92709999D03*
X73659999Y-95249999D03*
X73659999Y-97789999D03*
X73659999Y-100329999D03*
X73659999Y-102869999D03*
X73659999Y-105409999D03*
X73659999Y-107949999D03*
X73659999Y-110489999D03*
X73659999Y-113029999D03*
X73659999Y-115569999D03*
X73659999Y-118109999D03*
X73659999Y-120649999D03*
X73659999Y-123189999D03*
X78739999Y-46989999D03*
X78739999Y-49529999D03*
X78739999Y-52069999D03*
X78739999Y-54609999D03*
X78739999Y-57149999D03*
X78739999Y-59689999D03*
X78739999Y-62229999D03*
X78739999Y-64769999D03*
X78739999Y-67309999D03*
X78739999Y-69849999D03*
X78739999Y-72389999D03*
X78739999Y-74929999D03*
X78739999Y-77469999D03*
X78739999Y-80009999D03*
X78739999Y-82549999D03*
X78739999Y-85089999D03*
X78739999Y-87629999D03*
X78739999Y-90169999D03*
X78739999Y-92709999D03*
X78739999Y-95249999D03*
X78739999Y-97789999D03*
X78739999Y-100329999D03*
X78739999Y-102869999D03*
X78739999Y-105409999D03*
X78739999Y-107949999D03*
X78739999Y-110489999D03*
X78739999Y-113029999D03*
X78739999Y-115569999D03*
X78739999Y-118109999D03*
X78739999Y-120649999D03*
X78739999Y-123189999D03*
X73659999Y-133349999D03*
X73659999Y-135889999D03*
X73659999Y-138429999D03*
X73659999Y-140969999D03*
X73659999Y-143509999D03*
X73659999Y-146049999D03*
X73659999Y-148589999D03*
X73659999Y-151129999D03*
X73659999Y-153669999D03*
X73659999Y-156209999D03*
X73659999Y-158749999D03*
X73659999Y-161289999D03*
X73659999Y-163829999D03*
X73659999Y-166369999D03*
X73659999Y-168909999D03*
X73659999Y-171449999D03*
X73659999Y-173989999D03*
X73659999Y-176529999D03*
X78739999Y-133349999D03*
X78739999Y-135889999D03*
X78739999Y-138429999D03*
X78739999Y-140969999D03*
X78739999Y-143509999D03*
X78739999Y-146049999D03*
X78739999Y-148589999D03*
X78739999Y-151129999D03*
X78739999Y-153669999D03*
X78739999Y-156209999D03*
X78739999Y-158749999D03*
X78739999Y-161289999D03*
X78739999Y-163829999D03*
X78739999Y-166369999D03*
X78739999Y-168909999D03*
X78739999Y-171449999D03*
X78739999Y-173989999D03*
X78739999Y-176529999D03*
%TD*%
D10*
%TO.C,C73*%
X231139999Y-201929999D03*
D20*
X228640000Y-201930000D03*
%TD*%
D27*
%TO.C,D5*%
X200659999Y-262889999D03*
D28*
X200660000Y-260350000D03*
%TD*%
D29*
%TO.C,SW1*%
X230020000Y-260060000D03*
X223520000Y-260060000D03*
X230020000Y-255560000D03*
X223520000Y-255560000D03*
%TD*%
D30*
%TO.C,P2*%
X251460000Y-222250000D03*
D31*
X251459999Y-218289999D03*
X251459999Y-214329999D03*
X251459999Y-210369999D03*
X251459999Y-206409999D03*
X251459999Y-202449999D03*
%TD*%
D10*
%TO.C,VRAM2*%
X185419999Y-97789999D03*
D11*
X185419999Y-95249999D03*
X185419999Y-92709999D03*
X185419999Y-90169999D03*
X185419999Y-87629999D03*
X185419999Y-85089999D03*
X185419999Y-82549999D03*
X185419999Y-80009999D03*
X185419999Y-77469999D03*
X185419999Y-74929999D03*
X185419999Y-72389999D03*
X185419999Y-69849999D03*
X185419999Y-67309999D03*
X185419999Y-64769999D03*
X177799999Y-64769999D03*
X177799999Y-67309999D03*
X177799999Y-69849999D03*
X177799999Y-72389999D03*
X177799999Y-74929999D03*
X177799999Y-77469999D03*
X177799999Y-80009999D03*
X177799999Y-82549999D03*
X177799999Y-85089999D03*
X177799999Y-87629999D03*
X177799999Y-90169999D03*
X177799999Y-92709999D03*
X177799999Y-95249999D03*
X177799999Y-97789999D03*
%TD*%
D32*
%TO.C,J10*%
X208279999Y-105409999D03*
D33*
X208279999Y-107949999D03*
X208279999Y-110489999D03*
%TD*%
D16*
%TO.C,H6*%
X106220000Y-186690000D03*
X107098680Y-184568680D03*
X107098680Y-188811320D03*
X109220000Y-183690000D03*
D17*
X109220000Y-186690000D03*
D16*
X109220000Y-189690000D03*
X111341320Y-184568680D03*
X111341320Y-188811320D03*
X112220000Y-186690000D03*
%TD*%
D14*
%TO.C,U16*%
X93980000Y-158750000D03*
X93980000Y-156210000D03*
X93980000Y-153670000D03*
X93980000Y-151130000D03*
X93980000Y-148590000D03*
X93980000Y-146050000D03*
X93980000Y-143510000D03*
X93980000Y-140970000D03*
X93980000Y-138430000D03*
X93980000Y-135890000D03*
X86360000Y-135890000D03*
X86360000Y-138430000D03*
X86360000Y-140970000D03*
X86360000Y-143510000D03*
X86360000Y-146050000D03*
X86360000Y-148590000D03*
X86360000Y-151130000D03*
X86360000Y-153670000D03*
X86360000Y-156210000D03*
X86360000Y-158750000D03*
%TD*%
D10*
%TO.C,C74*%
X238759999Y-201929999D03*
D20*
X236260000Y-201930000D03*
%TD*%
D26*
%TO.C,J5*%
X53339999Y-46989999D03*
X53339999Y-49529999D03*
X53339999Y-52069999D03*
X53339999Y-54609999D03*
X53339999Y-57149999D03*
X53339999Y-59689999D03*
X53339999Y-62229999D03*
X53339999Y-64769999D03*
X53339999Y-67309999D03*
X53339999Y-69849999D03*
X53339999Y-72389999D03*
X53339999Y-74929999D03*
X53339999Y-77469999D03*
X53339999Y-80009999D03*
X53339999Y-82549999D03*
X53339999Y-85089999D03*
X53339999Y-87629999D03*
X53339999Y-90169999D03*
X53339999Y-92709999D03*
X53339999Y-95249999D03*
X53339999Y-97789999D03*
X53339999Y-100329999D03*
X53339999Y-102869999D03*
X53339999Y-105409999D03*
X53339999Y-107949999D03*
X53339999Y-110489999D03*
X53339999Y-113029999D03*
X53339999Y-115569999D03*
X53339999Y-118109999D03*
X53339999Y-120649999D03*
X53339999Y-123189999D03*
X58419999Y-46989999D03*
X58419999Y-49529999D03*
X58419999Y-52069999D03*
X58419999Y-54609999D03*
X58419999Y-57149999D03*
X58419999Y-59689999D03*
X58419999Y-62229999D03*
X58419999Y-64769999D03*
X58419999Y-67309999D03*
X58419999Y-69849999D03*
X58419999Y-72389999D03*
X58419999Y-74929999D03*
X58419999Y-77469999D03*
X58419999Y-80009999D03*
X58419999Y-82549999D03*
X58419999Y-85089999D03*
X58419999Y-87629999D03*
X58419999Y-90169999D03*
X58419999Y-92709999D03*
X58419999Y-95249999D03*
X58419999Y-97789999D03*
X58419999Y-100329999D03*
X58419999Y-102869999D03*
X58419999Y-105409999D03*
X58419999Y-107949999D03*
X58419999Y-110489999D03*
X58419999Y-113029999D03*
X58419999Y-115569999D03*
X58419999Y-118109999D03*
X58419999Y-120649999D03*
X58419999Y-123189999D03*
X53339999Y-133349999D03*
X53339999Y-135889999D03*
X53339999Y-138429999D03*
X53339999Y-140969999D03*
X53339999Y-143509999D03*
X53339999Y-146049999D03*
X53339999Y-148589999D03*
X53339999Y-151129999D03*
X53339999Y-153669999D03*
X53339999Y-156209999D03*
X53339999Y-158749999D03*
X53339999Y-161289999D03*
X53339999Y-163829999D03*
X53339999Y-166369999D03*
X53339999Y-168909999D03*
X53339999Y-171449999D03*
X53339999Y-173989999D03*
X53339999Y-176529999D03*
X58419999Y-133349999D03*
X58419999Y-135889999D03*
X58419999Y-138429999D03*
X58419999Y-140969999D03*
X58419999Y-143509999D03*
X58419999Y-146049999D03*
X58419999Y-148589999D03*
X58419999Y-151129999D03*
X58419999Y-153669999D03*
X58419999Y-156209999D03*
X58419999Y-158749999D03*
X58419999Y-161289999D03*
X58419999Y-163829999D03*
X58419999Y-166369999D03*
X58419999Y-168909999D03*
X58419999Y-171449999D03*
X58419999Y-173989999D03*
X58419999Y-176529999D03*
%TD*%
D24*
%TO.C,U32*%
X50799999Y-224789999D03*
D25*
X50800000Y-222250000D03*
X53340000Y-224790000D03*
X53340000Y-222250000D03*
X55880000Y-224790000D03*
X55880000Y-222250000D03*
X58420000Y-224790000D03*
X58420000Y-222250000D03*
X60960000Y-224790000D03*
X60960000Y-222250000D03*
X63500000Y-224790000D03*
X66040000Y-222250000D03*
X63500000Y-222250000D03*
X66040000Y-219710000D03*
X63500000Y-219710000D03*
X66040000Y-217170000D03*
X63500000Y-217170000D03*
X66040000Y-214630000D03*
X63500000Y-214630000D03*
X66040000Y-212090000D03*
X63500000Y-212090000D03*
X66040000Y-209550000D03*
X63500000Y-209550000D03*
X66040000Y-207010000D03*
X63500000Y-207010000D03*
X66040000Y-204470000D03*
X63500000Y-204470000D03*
X66040000Y-201930000D03*
X63500000Y-201930000D03*
X66040000Y-199390000D03*
X63500000Y-199390000D03*
X66040000Y-196850000D03*
X63500000Y-194310000D03*
X63500000Y-196850000D03*
X60960000Y-194310000D03*
X60960000Y-196850000D03*
X58420000Y-194310000D03*
X58420000Y-196850000D03*
X55880000Y-194310000D03*
X55880000Y-196850000D03*
X53340000Y-194310000D03*
X53340000Y-196850000D03*
X50800000Y-194310000D03*
X50800000Y-196850000D03*
X48260000Y-194310000D03*
X48260000Y-196850000D03*
X45720000Y-194310000D03*
X45720000Y-196850000D03*
X43180000Y-194310000D03*
X43180000Y-196850000D03*
X40640000Y-194310000D03*
X40640000Y-196850000D03*
X38100000Y-194310000D03*
X35560000Y-196850000D03*
X38100000Y-196850000D03*
X35560000Y-199390000D03*
X38100000Y-199390000D03*
X35560000Y-201930000D03*
X38100000Y-201930000D03*
X35560000Y-204470000D03*
X38100000Y-204470000D03*
X35560000Y-207010000D03*
X38100000Y-207010000D03*
X35560000Y-209550000D03*
X38100000Y-209550000D03*
X35560000Y-212090000D03*
X38100000Y-212090000D03*
X35560000Y-214630000D03*
X38100000Y-214630000D03*
X35560000Y-217170000D03*
X38100000Y-217170000D03*
X35560000Y-219710000D03*
X38100000Y-219710000D03*
X35560000Y-222250000D03*
X38100000Y-224790000D03*
X38100000Y-222250000D03*
X40640000Y-224790000D03*
X40640000Y-222250000D03*
X43180000Y-224790000D03*
X43180000Y-222250000D03*
X45720000Y-224790000D03*
X45720000Y-222250000D03*
X48260000Y-224790000D03*
X48260000Y-222250000D03*
%TD*%
D10*
%TO.C,C72*%
X238759999Y-240029999D03*
D20*
X236260000Y-240030000D03*
%TD*%
D10*
%TO.C,C83*%
X253999999Y-191769999D03*
D20*
X251500000Y-191770000D03*
%TD*%
D16*
%TO.C,H8*%
X106220000Y-259080000D03*
X107098680Y-256958680D03*
X107098680Y-261201320D03*
X109220000Y-256080000D03*
D17*
X109220000Y-259080000D03*
D16*
X109220000Y-262080000D03*
X111341320Y-256958680D03*
X111341320Y-261201320D03*
X112220000Y-259080000D03*
%TD*%
D18*
%TO.C,U9*%
X236219999Y-260349999D03*
D19*
X236219999Y-259079999D03*
X236219999Y-257809999D03*
%TD*%
D10*
%TO.C,C71*%
X231139999Y-240029999D03*
D20*
X228640000Y-240030000D03*
%TD*%
D24*
%TO.C,GLUE1*%
X101599999Y-227329999D03*
D25*
X101600000Y-224790000D03*
X104140000Y-227330000D03*
X104140000Y-224790000D03*
X106680000Y-227330000D03*
X106680000Y-224790000D03*
X109220000Y-227330000D03*
X109220000Y-224790000D03*
X111760000Y-227330000D03*
X111760000Y-224790000D03*
X114300000Y-227330000D03*
X116840000Y-224790000D03*
X114300000Y-224790000D03*
X116840000Y-222250000D03*
X114300000Y-222250000D03*
X116840000Y-219710000D03*
X114300000Y-219710000D03*
X116840000Y-217170000D03*
X114300000Y-217170000D03*
X116840000Y-214630000D03*
X114300000Y-214630000D03*
X116840000Y-212090000D03*
X114300000Y-212090000D03*
X116840000Y-209550000D03*
X114300000Y-209550000D03*
X116840000Y-207010000D03*
X114300000Y-207010000D03*
X116840000Y-204470000D03*
X114300000Y-204470000D03*
X116840000Y-201930000D03*
X114300000Y-201930000D03*
X116840000Y-199390000D03*
X114300000Y-196850000D03*
X114300000Y-199390000D03*
X111760000Y-196850000D03*
X111760000Y-199390000D03*
X109220000Y-196850000D03*
X109220000Y-199390000D03*
X106680000Y-196850000D03*
X106680000Y-199390000D03*
X104140000Y-196850000D03*
X104140000Y-199390000D03*
X101600000Y-196850000D03*
X101600000Y-199390000D03*
X99060000Y-196850000D03*
X99060000Y-199390000D03*
X96520000Y-196850000D03*
X96520000Y-199390000D03*
X93980000Y-196850000D03*
X93980000Y-199390000D03*
X91440000Y-196850000D03*
X91440000Y-199390000D03*
X88900000Y-196850000D03*
X86360000Y-199390000D03*
X88900000Y-199390000D03*
X86360000Y-201930000D03*
X88900000Y-201930000D03*
X86360000Y-204470000D03*
X88900000Y-204470000D03*
X86360000Y-207010000D03*
X88900000Y-207010000D03*
X86360000Y-209550000D03*
X88900000Y-209550000D03*
X86360000Y-212090000D03*
X88900000Y-212090000D03*
X86360000Y-214630000D03*
X88900000Y-214630000D03*
X86360000Y-217170000D03*
X88900000Y-217170000D03*
X86360000Y-219710000D03*
X88900000Y-219710000D03*
X86360000Y-222250000D03*
X88900000Y-222250000D03*
X86360000Y-224790000D03*
X88900000Y-227330000D03*
X88900000Y-224790000D03*
X91440000Y-227330000D03*
X91440000Y-224790000D03*
X93980000Y-227330000D03*
X93980000Y-224790000D03*
X96520000Y-227330000D03*
X96520000Y-224790000D03*
X99060000Y-227330000D03*
X99060000Y-224790000D03*
%TD*%
D10*
%TO.C,C75*%
X246379999Y-191769999D03*
D20*
X243880000Y-191770000D03*
%TD*%
D10*
%TO.C,U5*%
X236219999Y-115569999D03*
D11*
X236219999Y-113029999D03*
X236219999Y-110489999D03*
X236219999Y-107949999D03*
X236219999Y-105409999D03*
X236219999Y-102869999D03*
X236219999Y-100329999D03*
X236219999Y-97789999D03*
X236219999Y-95249999D03*
X236219999Y-92709999D03*
X228599999Y-92709999D03*
X228599999Y-95249999D03*
X228599999Y-97789999D03*
X228599999Y-100329999D03*
X228599999Y-102869999D03*
X228599999Y-105409999D03*
X228599999Y-107949999D03*
X228599999Y-110489999D03*
X228599999Y-113029999D03*
X228599999Y-115569999D03*
%TD*%
D32*
%TO.C,IDE0*%
X83819999Y-257809999D03*
D33*
X83819999Y-260349999D03*
X81279999Y-257809999D03*
X81279999Y-260349999D03*
X78739999Y-257809999D03*
X78739999Y-260349999D03*
X76199999Y-257809999D03*
X76199999Y-260349999D03*
X73659999Y-257809999D03*
X73659999Y-260349999D03*
X71119999Y-257809999D03*
X71119999Y-260349999D03*
X68579999Y-257809999D03*
X68579999Y-260349999D03*
X66039999Y-257809999D03*
X66039999Y-260349999D03*
X63499999Y-257809999D03*
X63499999Y-260349999D03*
X60959999Y-257809999D03*
X58419999Y-257809999D03*
X58419999Y-260349999D03*
X55879999Y-257809999D03*
X55879999Y-260349999D03*
X53339999Y-257809999D03*
X53339999Y-260349999D03*
X50799999Y-257809999D03*
X50799999Y-260349999D03*
X48259999Y-257809999D03*
X48259999Y-260349999D03*
X45719999Y-257809999D03*
X45719999Y-260349999D03*
X43179999Y-257809999D03*
X43179999Y-260349999D03*
X40639999Y-257809999D03*
X40639999Y-260349999D03*
X38099999Y-257809999D03*
X38099999Y-260349999D03*
X35559999Y-257809999D03*
X35559999Y-260349999D03*
%TD*%
D10*
%TO.C,U7*%
X236219999Y-87629999D03*
D11*
X236219999Y-85089999D03*
X236219999Y-82549999D03*
X236219999Y-80009999D03*
X236219999Y-77469999D03*
X236219999Y-74929999D03*
X236219999Y-72389999D03*
X236219999Y-69849999D03*
X236219999Y-67309999D03*
X236219999Y-64769999D03*
X228599999Y-64769999D03*
X228599999Y-67309999D03*
X228599999Y-69849999D03*
X228599999Y-72389999D03*
X228599999Y-74929999D03*
X228599999Y-77469999D03*
X228599999Y-80009999D03*
X228599999Y-82549999D03*
X228599999Y-85089999D03*
X228599999Y-87629999D03*
%TD*%
D16*
%TO.C,H3*%
X263700000Y-54610000D03*
X264578680Y-52488680D03*
X264578680Y-56731320D03*
X266700000Y-51610000D03*
D17*
X266700000Y-54610000D03*
D16*
X266700000Y-57610000D03*
X268821320Y-52488680D03*
X268821320Y-56731320D03*
X269700000Y-54610000D03*
%TD*%
D24*
%TO.C,U17*%
X55879999Y-247649999D03*
D25*
X58420000Y-250190000D03*
X58420000Y-247650000D03*
X60960000Y-250190000D03*
X60960000Y-247650000D03*
X63500000Y-250190000D03*
X66040000Y-247650000D03*
X63500000Y-247650000D03*
X66040000Y-245110000D03*
X63500000Y-245110000D03*
X66040000Y-242570000D03*
X63500000Y-242570000D03*
X66040000Y-240030000D03*
X63500000Y-240030000D03*
X66040000Y-237490000D03*
X63500000Y-237490000D03*
X66040000Y-234950000D03*
X63500000Y-232410000D03*
X63500000Y-234950000D03*
X60960000Y-232410000D03*
X60960000Y-234950000D03*
X58420000Y-232410000D03*
X58420000Y-234950000D03*
X55880000Y-232410000D03*
X55880000Y-234950000D03*
X53340000Y-232410000D03*
X53340000Y-234950000D03*
X50800000Y-232410000D03*
X48260000Y-234950000D03*
X50800000Y-234950000D03*
X48260000Y-237490000D03*
X50800000Y-237490000D03*
X48260000Y-240030000D03*
X50800000Y-240030000D03*
X48260000Y-242570000D03*
X50800000Y-242570000D03*
X48260000Y-245110000D03*
X50800000Y-245110000D03*
X48260000Y-247650000D03*
X50800000Y-250190000D03*
X50800000Y-247650000D03*
X53340000Y-250190000D03*
X53340000Y-247650000D03*
X55880000Y-250190000D03*
%TD*%
D27*
%TO.C,D6*%
X205739999Y-262889999D03*
D28*
X205740000Y-260350000D03*
%TD*%
D21*
%TO.C,D9*%
X175259998Y-48259999D03*
D22*
X175259998Y-58419999D03*
%TD*%
D16*
%TO.C,H2*%
X106220000Y-31750000D03*
X107098680Y-29628680D03*
X107098680Y-33871320D03*
X109220000Y-28750000D03*
D17*
X109220000Y-31750000D03*
D16*
X109220000Y-34750000D03*
X111341320Y-29628680D03*
X111341320Y-33871320D03*
X112220000Y-31750000D03*
%TD*%
D14*
%TO.C,U10*%
X93980000Y-186690000D03*
X93980000Y-184150000D03*
X93980000Y-181610000D03*
X93980000Y-179070000D03*
X93980000Y-176530000D03*
X93980000Y-173990000D03*
X93980000Y-171450000D03*
X93980000Y-168910000D03*
X93980000Y-166370000D03*
X93980000Y-163830000D03*
X86360000Y-163830000D03*
X86360000Y-166370000D03*
X86360000Y-168910000D03*
X86360000Y-171450000D03*
X86360000Y-173990000D03*
X86360000Y-176530000D03*
X86360000Y-179070000D03*
X86360000Y-181610000D03*
X86360000Y-184150000D03*
X86360000Y-186690000D03*
%TD*%
D34*
%TO.C,CPU1*%
X213360000Y-227330000D03*
X210820000Y-227330000D03*
X208280000Y-227330000D03*
X205740000Y-227330000D03*
X203200000Y-227330000D03*
X200660000Y-227330000D03*
X198120000Y-227330000D03*
X195580000Y-227330000D03*
X193040000Y-227330000D03*
X190500000Y-227330000D03*
X187960000Y-227330000D03*
X185420000Y-227330000D03*
X182880000Y-227330000D03*
X213360000Y-224790000D03*
X210820000Y-224790000D03*
X208280000Y-224790000D03*
X205740000Y-224790000D03*
X203200000Y-224790000D03*
X200660000Y-224790000D03*
X198120000Y-224790000D03*
X195580000Y-224790000D03*
X193040000Y-224790000D03*
X190500000Y-224790000D03*
X187960000Y-224790000D03*
X185420000Y-224790000D03*
X182880000Y-224790000D03*
X213360000Y-222250000D03*
X210820000Y-222250000D03*
X208280000Y-222250000D03*
X205740000Y-222250000D03*
X203200000Y-222250000D03*
X200660000Y-222250000D03*
X198120000Y-222250000D03*
X195580000Y-222250000D03*
X193040000Y-222250000D03*
X190500000Y-222250000D03*
X187960000Y-222250000D03*
X185420000Y-222250000D03*
X182880000Y-222250000D03*
X213360000Y-219710000D03*
X210820000Y-219710000D03*
X208280000Y-219710000D03*
X205740000Y-219710000D03*
X203200000Y-219710000D03*
X190500000Y-219710000D03*
X187960000Y-219710000D03*
X185420000Y-219710000D03*
X182880000Y-219710000D03*
X213360000Y-217170000D03*
X210820000Y-217170000D03*
X208280000Y-217170000D03*
X187960000Y-217170000D03*
X185420000Y-217170000D03*
X182880000Y-217170000D03*
X213360000Y-214630000D03*
X210820000Y-214630000D03*
X208280000Y-214630000D03*
X205740000Y-214630000D03*
X190500000Y-214630000D03*
X187960000Y-214630000D03*
X185420000Y-214630000D03*
X182880000Y-214630000D03*
X213360000Y-212090000D03*
X210820000Y-212090000D03*
X208280000Y-212090000D03*
X187960000Y-212090000D03*
X185420000Y-212090000D03*
X182880000Y-212090000D03*
X213360000Y-209550000D03*
X210820000Y-209550000D03*
X208280000Y-209550000D03*
X187960000Y-209550000D03*
X185420000Y-209550000D03*
X182880000Y-209550000D03*
X213360000Y-207010000D03*
X210820000Y-207010000D03*
X208280000Y-207010000D03*
X187960000Y-207010000D03*
X185420000Y-207010000D03*
X182880000Y-207010000D03*
X213360000Y-204470000D03*
X210820000Y-204470000D03*
X208280000Y-204470000D03*
X205740000Y-204470000D03*
X203200000Y-204470000D03*
X190500000Y-204470000D03*
X187960000Y-204470000D03*
X185420000Y-204470000D03*
X182880000Y-204470000D03*
X213360000Y-201930000D03*
X210820000Y-201930000D03*
X208280000Y-201930000D03*
X205740000Y-201930000D03*
X203200000Y-201930000D03*
X200660000Y-201930000D03*
X198120000Y-201930000D03*
X195580000Y-201930000D03*
X193040000Y-201930000D03*
X190500000Y-201930000D03*
X187960000Y-201930000D03*
X185420000Y-201930000D03*
X182880000Y-201930000D03*
X213360000Y-199390000D03*
X210820000Y-199390000D03*
X208280000Y-199390000D03*
X205740000Y-199390000D03*
X203200000Y-199390000D03*
X200660000Y-199390000D03*
X198120000Y-199390000D03*
X195580000Y-199390000D03*
X193040000Y-199390000D03*
X190500000Y-199390000D03*
X187960000Y-199390000D03*
X185420000Y-199390000D03*
X182880000Y-199390000D03*
X213360000Y-196850000D03*
X210820000Y-196850000D03*
X208280000Y-196850000D03*
X205740000Y-196850000D03*
X203200000Y-196850000D03*
X200660000Y-196850000D03*
X198120000Y-196850000D03*
X195580000Y-196850000D03*
X193040000Y-196850000D03*
X190500000Y-196850000D03*
X187960000Y-196850000D03*
X185420000Y-196850000D03*
X182880000Y-196850000D03*
%TD*%
D24*
%TO.C,RAMC1*%
X182879999Y-151129999D03*
D25*
X182880000Y-148590000D03*
X185420000Y-151130000D03*
X185420000Y-148590000D03*
X187960000Y-151130000D03*
X187960000Y-148590000D03*
X190500000Y-151130000D03*
X190500000Y-148590000D03*
X193040000Y-151130000D03*
X193040000Y-148590000D03*
X195580000Y-151130000D03*
X198120000Y-148590000D03*
X195580000Y-148590000D03*
X198120000Y-146050000D03*
X195580000Y-146050000D03*
X198120000Y-143510000D03*
X195580000Y-143510000D03*
X198120000Y-140970000D03*
X195580000Y-140970000D03*
X198120000Y-138430000D03*
X195580000Y-138430000D03*
X198120000Y-135890000D03*
X195580000Y-135890000D03*
X198120000Y-133350000D03*
X195580000Y-133350000D03*
X198120000Y-130810000D03*
X195580000Y-130810000D03*
X198120000Y-128270000D03*
X195580000Y-128270000D03*
X198120000Y-125730000D03*
X195580000Y-125730000D03*
X198120000Y-123190000D03*
X195580000Y-120650000D03*
X195580000Y-123190000D03*
X193040000Y-120650000D03*
X193040000Y-123190000D03*
X190500000Y-120650000D03*
X190500000Y-123190000D03*
X187960000Y-120650000D03*
X187960000Y-123190000D03*
X185420000Y-120650000D03*
X185420000Y-123190000D03*
X182880000Y-120650000D03*
X182880000Y-123190000D03*
X180340000Y-120650000D03*
X180340000Y-123190000D03*
X177800000Y-120650000D03*
X177800000Y-123190000D03*
X175260000Y-120650000D03*
X175260000Y-123190000D03*
X172720000Y-120650000D03*
X172720000Y-123190000D03*
X170180000Y-120650000D03*
X167640000Y-123190000D03*
X170180000Y-123190000D03*
X167640000Y-125730000D03*
X170180000Y-125730000D03*
X167640000Y-128270000D03*
X170180000Y-128270000D03*
X167640000Y-130810000D03*
X170180000Y-130810000D03*
X167640000Y-133350000D03*
X170180000Y-133350000D03*
X167640000Y-135890000D03*
X170180000Y-135890000D03*
X167640000Y-138430000D03*
X170180000Y-138430000D03*
X167640000Y-140970000D03*
X170180000Y-140970000D03*
X167640000Y-143510000D03*
X170180000Y-143510000D03*
X167640000Y-146050000D03*
X170180000Y-146050000D03*
X167640000Y-148590000D03*
X170180000Y-151130000D03*
X170180000Y-148590000D03*
X172720000Y-151130000D03*
X172720000Y-148590000D03*
X175260000Y-151130000D03*
X175260000Y-148590000D03*
X177800000Y-151130000D03*
X177800000Y-148590000D03*
X180340000Y-151130000D03*
X180340000Y-148590000D03*
%TD*%
D16*
%TO.C,H9*%
X263700000Y-259080000D03*
X264578680Y-256958680D03*
X264578680Y-261201320D03*
X266700000Y-256080000D03*
D17*
X266700000Y-259080000D03*
D16*
X266700000Y-262080000D03*
X268821320Y-256958680D03*
X268821320Y-261201320D03*
X269700000Y-259080000D03*
%TD*%
D10*
%TO.C,X1*%
X236219999Y-189229999D03*
D20*
X236220000Y-181610000D03*
X228600000Y-181610000D03*
X228600000Y-189230000D03*
%TD*%
D32*
%TO.C,J7*%
X251459999Y-260349999D03*
D33*
X253999999Y-260349999D03*
%TD*%
D10*
%TO.C,X3*%
X119379999Y-138429999D03*
D20*
X119380000Y-130810000D03*
X111760000Y-130810000D03*
X111760000Y-138430000D03*
%TD*%
D10*
%TO.C,X4*%
X200659999Y-113029999D03*
D20*
X200660000Y-105410000D03*
X193040000Y-105410000D03*
X193040000Y-113030000D03*
%TD*%
D27*
%TO.C,D7*%
X210819999Y-262889999D03*
D28*
X210820000Y-260350000D03*
%TD*%
D24*
%TO.C,U20*%
X205739999Y-97789999D03*
D25*
X205740000Y-95250000D03*
X208280000Y-97790000D03*
X208280000Y-95250000D03*
X210820000Y-97790000D03*
X210820000Y-95250000D03*
X213360000Y-97790000D03*
X213360000Y-95250000D03*
X215900000Y-97790000D03*
X218440000Y-95250000D03*
X215900000Y-95250000D03*
X218440000Y-92710000D03*
X215900000Y-92710000D03*
X218440000Y-90170000D03*
X215900000Y-90170000D03*
X218440000Y-87630000D03*
X215900000Y-87630000D03*
X218440000Y-85090000D03*
X215900000Y-85090000D03*
X218440000Y-82550000D03*
X215900000Y-82550000D03*
X218440000Y-80010000D03*
X215900000Y-80010000D03*
X218440000Y-77470000D03*
X215900000Y-77470000D03*
X218440000Y-74930000D03*
X215900000Y-72390000D03*
X215900000Y-74930000D03*
X213360000Y-72390000D03*
X213360000Y-74930000D03*
X210820000Y-72390000D03*
X210820000Y-74930000D03*
X208280000Y-72390000D03*
X208280000Y-74930000D03*
X205740000Y-72390000D03*
X205740000Y-74930000D03*
X203200000Y-72390000D03*
X203200000Y-74930000D03*
X200660000Y-72390000D03*
X200660000Y-74930000D03*
X198120000Y-72390000D03*
X198120000Y-74930000D03*
X195580000Y-72390000D03*
X193040000Y-74930000D03*
X195580000Y-74930000D03*
X193040000Y-77470000D03*
X195580000Y-77470000D03*
X193040000Y-80010000D03*
X195580000Y-80010000D03*
X193040000Y-82550000D03*
X195580000Y-82550000D03*
X193040000Y-85090000D03*
X195580000Y-85090000D03*
X193040000Y-87630000D03*
X195580000Y-87630000D03*
X193040000Y-90170000D03*
X195580000Y-90170000D03*
X193040000Y-92710000D03*
X195580000Y-92710000D03*
X193040000Y-95250000D03*
X195580000Y-97790000D03*
X195580000Y-95250000D03*
X198120000Y-97790000D03*
X198120000Y-95250000D03*
X200660000Y-97790000D03*
X200660000Y-95250000D03*
X203200000Y-97790000D03*
X203200000Y-95250000D03*
%TD*%
D10*
%TO.C,U4*%
X236219999Y-146049999D03*
D11*
X236219999Y-143509999D03*
X236219999Y-140969999D03*
X236219999Y-138429999D03*
X236219999Y-135889999D03*
X236219999Y-133349999D03*
X236219999Y-130809999D03*
X236219999Y-128269999D03*
X236219999Y-125729999D03*
X236219999Y-123189999D03*
X228599999Y-123189999D03*
X228599999Y-125729999D03*
X228599999Y-128269999D03*
X228599999Y-130809999D03*
X228599999Y-133349999D03*
X228599999Y-135889999D03*
X228599999Y-138429999D03*
X228599999Y-140969999D03*
X228599999Y-143509999D03*
X228599999Y-146049999D03*
%TD*%
D12*
%TO.C,U2*%
X266700000Y-64770000D03*
D13*
X266700000Y-120650000D03*
X266700000Y-176657000D03*
D14*
X265430000Y-168275000D03*
X267970000Y-167005000D03*
X265430000Y-165735000D03*
X267970000Y-164465000D03*
X265430000Y-163195000D03*
X267970000Y-161925000D03*
X265430000Y-160655000D03*
X267970000Y-159385000D03*
X265430000Y-158115000D03*
X267970000Y-156845000D03*
X265430000Y-155575000D03*
X267970000Y-154305000D03*
X265430000Y-153035000D03*
X267970000Y-151765000D03*
X265430000Y-150495000D03*
X267970000Y-149225000D03*
X265430000Y-147955000D03*
X267970000Y-146685000D03*
X265430000Y-145415000D03*
X267970000Y-144145000D03*
X265430000Y-142875000D03*
X267970000Y-141605000D03*
X265430000Y-140335000D03*
X267970000Y-139065000D03*
X265430000Y-137795000D03*
X267970000Y-136525000D03*
X265430000Y-135255000D03*
X267970000Y-133985000D03*
X265430000Y-132715000D03*
X267970000Y-131445000D03*
X265430000Y-130175000D03*
X267970000Y-128905000D03*
X265430000Y-127635000D03*
X267970000Y-126365000D03*
X265430000Y-125095000D03*
X267970000Y-123825000D03*
X265430000Y-117475000D03*
X267970000Y-116205000D03*
X265430000Y-114935000D03*
X267970000Y-113665000D03*
X265430000Y-112395000D03*
X267970000Y-111125000D03*
X265430000Y-109855000D03*
X267970000Y-108585000D03*
X265430000Y-107315000D03*
X267970000Y-106045000D03*
X265430000Y-104775000D03*
X267970000Y-103505000D03*
X265430000Y-102235000D03*
X267970000Y-100965000D03*
X265430000Y-99695000D03*
X267970000Y-98425000D03*
X265430000Y-97155000D03*
X267970000Y-95885000D03*
X265430000Y-94615000D03*
X267970000Y-93345000D03*
X265430000Y-92075000D03*
X267970000Y-90805000D03*
X265430000Y-89535000D03*
X267970000Y-88265000D03*
X265430000Y-86995000D03*
X267970000Y-85725000D03*
X265430000Y-84455000D03*
X267970000Y-83185000D03*
X265430000Y-81915000D03*
X267970000Y-80645000D03*
X265430000Y-79375000D03*
X267970000Y-78105000D03*
X265430000Y-76835000D03*
X267970000Y-75565000D03*
X265430000Y-74295000D03*
X267970000Y-73025000D03*
%TD*%
D35*
%TO.C,J8*%
X263450000Y-247890000D03*
D36*
X263449999Y-243689999D03*
X263449999Y-239489999D03*
X263449999Y-235289999D03*
X263449999Y-231089999D03*
X263449999Y-226889999D03*
X263449999Y-222689999D03*
X263449999Y-218489999D03*
X263449999Y-214289999D03*
X263449999Y-210089999D03*
X263449999Y-205889999D03*
X263449999Y-201689999D03*
X268949999Y-247889999D03*
X268949999Y-243689999D03*
X268949999Y-239489999D03*
X268949999Y-235289999D03*
X268949999Y-231089999D03*
X268949999Y-226889999D03*
X268949999Y-222689999D03*
X268949999Y-218489999D03*
X268949999Y-214289999D03*
X268949999Y-210089999D03*
X268949999Y-205889999D03*
X268949999Y-201689999D03*
%TD*%
D32*
%TO.C,J9*%
X243839999Y-260349999D03*
D33*
X246379999Y-260349999D03*
%TD*%
D37*
%TO.C,J3*%
X123395000Y-33020000D03*
X148385000Y-33020000D03*
D38*
X131060000Y-35560000D03*
X133350000Y-35560000D03*
X135640000Y-35560000D03*
X137930000Y-35560000D03*
X140220000Y-35560000D03*
X132205000Y-33020000D03*
X134495000Y-33020000D03*
X136785000Y-33020000D03*
X139075000Y-33020000D03*
X141365000Y-33020000D03*
X131060000Y-30480000D03*
X133350000Y-30480000D03*
X135640000Y-30480000D03*
X137930000Y-30480000D03*
X140220000Y-30480000D03*
%TD*%
D32*
%TO.C,J2*%
X106679999Y-135889999D03*
D33*
X106679999Y-133349999D03*
X106679999Y-130809999D03*
%TD*%
D14*
%TO.C,U14*%
X93980000Y-97790000D03*
X93980000Y-95250000D03*
X93980000Y-92710000D03*
X93980000Y-90170000D03*
X93980000Y-87630000D03*
X93980000Y-85090000D03*
X93980000Y-82550000D03*
X93980000Y-80010000D03*
X93980000Y-77470000D03*
X93980000Y-74930000D03*
X86360000Y-74930000D03*
X86360000Y-77470000D03*
X86360000Y-80010000D03*
X86360000Y-82550000D03*
X86360000Y-85090000D03*
X86360000Y-87630000D03*
X86360000Y-90170000D03*
X86360000Y-92710000D03*
X86360000Y-95250000D03*
X86360000Y-97790000D03*
%TD*%
%TO.C,U18*%
X106680000Y-125730000D03*
X106680000Y-123190000D03*
X106680000Y-120650000D03*
X106680000Y-118110000D03*
X106680000Y-115570000D03*
X106680000Y-113030000D03*
X106680000Y-110490000D03*
X106680000Y-107950000D03*
X106680000Y-105410000D03*
X106680000Y-102870000D03*
X99060000Y-102870000D03*
X99060000Y-105410000D03*
X99060000Y-107950000D03*
X99060000Y-110490000D03*
X99060000Y-113030000D03*
X99060000Y-115570000D03*
X99060000Y-118110000D03*
X99060000Y-120650000D03*
X99060000Y-123190000D03*
X99060000Y-125730000D03*
%TD*%
D27*
%TO.C,D3*%
X190499999Y-262889999D03*
D28*
X190500000Y-260350000D03*
%TD*%
D14*
%TO.C,U11*%
X106680000Y-69850000D03*
X106680000Y-67310000D03*
X106680000Y-64770000D03*
X106680000Y-62230000D03*
X106680000Y-59690000D03*
X106680000Y-57150000D03*
X106680000Y-54610000D03*
X106680000Y-52070000D03*
X106680000Y-49530000D03*
X106680000Y-46990000D03*
X99060000Y-46990000D03*
X99060000Y-49530000D03*
X99060000Y-52070000D03*
X99060000Y-54610000D03*
X99060000Y-57150000D03*
X99060000Y-59690000D03*
X99060000Y-62230000D03*
X99060000Y-64770000D03*
X99060000Y-67310000D03*
X99060000Y-69850000D03*
%TD*%
D10*
%TO.C,C87*%
X238759999Y-212089999D03*
D20*
X236260000Y-212090000D03*
%TD*%
D14*
%TO.C,U19*%
X119380000Y-120650000D03*
X119380000Y-118110000D03*
X119380000Y-115570000D03*
X119380000Y-113030000D03*
X119380000Y-110490000D03*
X119380000Y-107950000D03*
X119380000Y-105410000D03*
X119380000Y-102870000D03*
X111760000Y-102870000D03*
X111760000Y-105410000D03*
X111760000Y-107950000D03*
X111760000Y-110490000D03*
X111760000Y-113030000D03*
X111760000Y-115570000D03*
X111760000Y-118110000D03*
X111760000Y-120650000D03*
%TD*%
D10*
%TO.C,C86*%
X231139999Y-212089999D03*
D20*
X228640000Y-212090000D03*
%TD*%
D10*
%TO.C,U3*%
X172719999Y-255269999D03*
D11*
X170179999Y-255269999D03*
X167639999Y-255269999D03*
X165099999Y-255269999D03*
X162559999Y-255269999D03*
X160019999Y-255269999D03*
X157479999Y-255269999D03*
X157479999Y-262889999D03*
X160019999Y-262889999D03*
X162559999Y-262889999D03*
X165099999Y-262889999D03*
X167639999Y-262889999D03*
X170179999Y-262889999D03*
X172719999Y-262889999D03*
%TD*%
D27*
%TO.C,D2*%
X185419999Y-262889999D03*
D28*
X185420000Y-260350000D03*
%TD*%
D14*
%TO.C,U1*%
X109220000Y-146050000D03*
X111760000Y-146050000D03*
X114300000Y-146050000D03*
X116840000Y-146050000D03*
X119380000Y-146050000D03*
X121920000Y-146050000D03*
X124460000Y-146050000D03*
X127000000Y-146050000D03*
X129540000Y-146050000D03*
X132080000Y-146050000D03*
X109220000Y-148590000D03*
X111760000Y-148590000D03*
X114300000Y-148590000D03*
X116840000Y-148590000D03*
X119380000Y-148590000D03*
X121920000Y-148590000D03*
X124460000Y-148590000D03*
X127000000Y-148590000D03*
X129540000Y-148590000D03*
X132080000Y-148590000D03*
X109220000Y-151130000D03*
X111760000Y-151130000D03*
X114300000Y-151130000D03*
X127000000Y-151130000D03*
X129540000Y-151130000D03*
X132080000Y-151130000D03*
X109220000Y-153670000D03*
X111760000Y-153670000D03*
X129540000Y-153670000D03*
X132080000Y-153670000D03*
X109220000Y-156210000D03*
X111760000Y-156210000D03*
X129540000Y-156210000D03*
X132080000Y-156210000D03*
X109220000Y-158750000D03*
X111760000Y-158750000D03*
X129540000Y-158750000D03*
X132080000Y-158750000D03*
X109220000Y-161290000D03*
X111760000Y-161290000D03*
X129540000Y-161290000D03*
X132080000Y-161290000D03*
X109220000Y-163830000D03*
X111760000Y-163830000D03*
X114300000Y-163830000D03*
X127000000Y-163830000D03*
X129540000Y-163830000D03*
X132080000Y-163830000D03*
X109220000Y-166370000D03*
X111760000Y-166370000D03*
X114300000Y-166370000D03*
X116840000Y-166370000D03*
X119380000Y-166370000D03*
X121920000Y-166370000D03*
X124460000Y-166370000D03*
X127000000Y-166370000D03*
X129540000Y-166370000D03*
X132080000Y-166370000D03*
X109220000Y-168910000D03*
X111760000Y-168910000D03*
X114300000Y-168910000D03*
X116840000Y-168910000D03*
X119380000Y-168910000D03*
X121920000Y-168910000D03*
X124460000Y-168910000D03*
X127000000Y-168910000D03*
X129540000Y-168910000D03*
X132080000Y-168910000D03*
%TD*%
D37*
%TO.C,J14*%
X172710000Y-29670000D03*
X172710000Y-37670000D03*
X233690000Y-29670000D03*
X233690000Y-37670000D03*
D39*
X226730000Y-32510000D03*
X223960000Y-32510000D03*
X221190000Y-32510000D03*
X218420000Y-32510000D03*
X215650000Y-32510000D03*
X225350000Y-29670000D03*
X222580000Y-29670000D03*
X219810000Y-29670000D03*
X217040000Y-29670000D03*
X190750000Y-32510000D03*
X187980000Y-32510000D03*
X185210000Y-32510000D03*
X182440000Y-32510000D03*
X179670000Y-32510000D03*
X189370000Y-29670000D03*
X186600000Y-29670000D03*
X183830000Y-29670000D03*
X181060000Y-29670000D03*
X186580000Y-39270000D03*
X189350000Y-39270000D03*
X192120000Y-39270000D03*
X194890000Y-39270000D03*
X197660000Y-39270000D03*
X200430000Y-39270000D03*
X203200000Y-39270000D03*
X205970000Y-39270000D03*
X208740000Y-39270000D03*
X211510000Y-39270000D03*
X214280000Y-39270000D03*
X217050000Y-39270000D03*
X219820000Y-39270000D03*
X187970000Y-36430000D03*
X190740000Y-36430000D03*
X193510000Y-36430000D03*
X196280000Y-36430000D03*
X199050000Y-36430000D03*
X201820000Y-36430000D03*
X204590000Y-36430000D03*
X207360000Y-36430000D03*
X210130000Y-36430000D03*
X212900000Y-36430000D03*
X215670000Y-36430000D03*
X218440000Y-36430000D03*
%TD*%
D10*
%TO.C,X5*%
X93979999Y-41909999D03*
D20*
X93980000Y-34290000D03*
X86360000Y-34290000D03*
X86360000Y-41910000D03*
%TD*%
D27*
%TO.C,D4*%
X195579999Y-262889999D03*
D28*
X195580000Y-260350000D03*
%TD*%
D27*
%TO.C,D1*%
X180339999Y-262889999D03*
D28*
X180340000Y-260350000D03*
%TD*%
D27*
%TO.C,D8*%
X215899999Y-262889999D03*
D28*
X215900000Y-260350000D03*
%TD*%
D30*
%TO.C,P1*%
X251460000Y-246010000D03*
D31*
X251459999Y-242049999D03*
X251459999Y-238089999D03*
X251459999Y-234129999D03*
X251459999Y-230169999D03*
X251459999Y-226209999D03*
%TD*%
D14*
%TO.C,U13*%
X93980000Y-125730000D03*
X93980000Y-123190000D03*
X93980000Y-120650000D03*
X93980000Y-118110000D03*
X93980000Y-115570000D03*
X93980000Y-113030000D03*
X93980000Y-110490000D03*
X93980000Y-107950000D03*
X93980000Y-105410000D03*
X93980000Y-102870000D03*
X86360000Y-102870000D03*
X86360000Y-105410000D03*
X86360000Y-107950000D03*
X86360000Y-110490000D03*
X86360000Y-113030000D03*
X86360000Y-115570000D03*
X86360000Y-118110000D03*
X86360000Y-120650000D03*
X86360000Y-123190000D03*
X86360000Y-125730000D03*
%TD*%
D16*
%TO.C,H1*%
X60500000Y-31750000D03*
X61378680Y-29628680D03*
X61378680Y-33871320D03*
X63500000Y-28750000D03*
D17*
X63500000Y-31750000D03*
D16*
X63500000Y-34750000D03*
X65621320Y-29628680D03*
X65621320Y-33871320D03*
X66500000Y-31750000D03*
%TD*%
D26*
%TO.C,J4*%
X33019999Y-46989999D03*
X33019999Y-49529999D03*
X33019999Y-52069999D03*
X33019999Y-54609999D03*
X33019999Y-57149999D03*
X33019999Y-59689999D03*
X33019999Y-62229999D03*
X33019999Y-64769999D03*
X33019999Y-67309999D03*
X33019999Y-69849999D03*
X33019999Y-72389999D03*
X33019999Y-74929999D03*
X33019999Y-77469999D03*
X33019999Y-80009999D03*
X33019999Y-82549999D03*
X33019999Y-85089999D03*
X33019999Y-87629999D03*
X33019999Y-90169999D03*
X33019999Y-92709999D03*
X33019999Y-95249999D03*
X33019999Y-97789999D03*
X33019999Y-100329999D03*
X33019999Y-102869999D03*
X33019999Y-105409999D03*
X33019999Y-107949999D03*
X33019999Y-110489999D03*
X33019999Y-113029999D03*
X33019999Y-115569999D03*
X33019999Y-118109999D03*
X33019999Y-120649999D03*
X33019999Y-123189999D03*
X38099999Y-46989999D03*
X38099999Y-49529999D03*
X38099999Y-52069999D03*
X38099999Y-54609999D03*
X38099999Y-57149999D03*
X38099999Y-59689999D03*
X38099999Y-62229999D03*
X38099999Y-64769999D03*
X38099999Y-67309999D03*
X38099999Y-69849999D03*
X38099999Y-72389999D03*
X38099999Y-74929999D03*
X38099999Y-77469999D03*
X38099999Y-80009999D03*
X38099999Y-82549999D03*
X38099999Y-85089999D03*
X38099999Y-87629999D03*
X38099999Y-90169999D03*
X38099999Y-92709999D03*
X38099999Y-95249999D03*
X38099999Y-97789999D03*
X38099999Y-100329999D03*
X38099999Y-102869999D03*
X38099999Y-105409999D03*
X38099999Y-107949999D03*
X38099999Y-110489999D03*
X38099999Y-113029999D03*
X38099999Y-115569999D03*
X38099999Y-118109999D03*
X38099999Y-120649999D03*
X38099999Y-123189999D03*
X33019999Y-133349999D03*
X33019999Y-135889999D03*
X33019999Y-138429999D03*
X33019999Y-140969999D03*
X33019999Y-143509999D03*
X33019999Y-146049999D03*
X33019999Y-148589999D03*
X33019999Y-151129999D03*
X33019999Y-153669999D03*
X33019999Y-156209999D03*
X33019999Y-158749999D03*
X33019999Y-161289999D03*
X33019999Y-163829999D03*
X33019999Y-166369999D03*
X33019999Y-168909999D03*
X33019999Y-171449999D03*
X33019999Y-173989999D03*
X33019999Y-176529999D03*
X38099999Y-133349999D03*
X38099999Y-135889999D03*
X38099999Y-138429999D03*
X38099999Y-140969999D03*
X38099999Y-143509999D03*
X38099999Y-146049999D03*
X38099999Y-148589999D03*
X38099999Y-151129999D03*
X38099999Y-153669999D03*
X38099999Y-156209999D03*
X38099999Y-158749999D03*
X38099999Y-161289999D03*
X38099999Y-163829999D03*
X38099999Y-166369999D03*
X38099999Y-168909999D03*
X38099999Y-171449999D03*
X38099999Y-173989999D03*
X38099999Y-176529999D03*
%TD*%
D16*
%TO.C,H7*%
X263700000Y-186690000D03*
X264578680Y-184568680D03*
X264578680Y-188811320D03*
X266700000Y-183690000D03*
D17*
X266700000Y-186690000D03*
D16*
X266700000Y-189690000D03*
X268821320Y-184568680D03*
X268821320Y-188811320D03*
X269700000Y-186690000D03*
%TD*%
D10*
%TO.C,U24*%
X256539999Y-49529999D03*
D11*
X253999999Y-49529999D03*
X251459999Y-49529999D03*
X248919999Y-49529999D03*
X246379999Y-49529999D03*
X243839999Y-49529999D03*
X241299999Y-49529999D03*
X238759999Y-49529999D03*
X236219999Y-49529999D03*
X233679999Y-49529999D03*
X233679999Y-57149999D03*
X236219999Y-57149999D03*
X238759999Y-57149999D03*
X241299999Y-57149999D03*
X243839999Y-57149999D03*
X246379999Y-57149999D03*
X248919999Y-57149999D03*
X251459999Y-57149999D03*
X253999999Y-57149999D03*
X256539999Y-57149999D03*
%TD*%
D24*
%TO.C,ROM1*%
X142239999Y-209549999D03*
D25*
X144780000Y-212090000D03*
X144780000Y-209550000D03*
X147320000Y-212090000D03*
X149860000Y-209550000D03*
X147320000Y-209550000D03*
X149860000Y-207010000D03*
X147320000Y-207010000D03*
X149860000Y-204470000D03*
X147320000Y-204470000D03*
X149860000Y-201930000D03*
X147320000Y-201930000D03*
X149860000Y-199390000D03*
X147320000Y-196850000D03*
X147320000Y-199390000D03*
X144780000Y-196850000D03*
X144780000Y-199390000D03*
X142240000Y-196850000D03*
X142240000Y-199390000D03*
X139700000Y-196850000D03*
X137160000Y-199390000D03*
X139700000Y-199390000D03*
X137160000Y-201930000D03*
X139700000Y-201930000D03*
X137160000Y-204470000D03*
X139700000Y-204470000D03*
X137160000Y-207010000D03*
X139700000Y-207010000D03*
X137160000Y-209550000D03*
X139700000Y-212090000D03*
X139700000Y-209550000D03*
X142240000Y-212090000D03*
%TD*%
D40*
%TO.C,C53*%
X165667500Y-138430000D03*
X164532500Y-138430000D03*
%TD*%
%TO.C,C92*%
X206307500Y-86360000D03*
X205172500Y-86360000D03*
%TD*%
%TO.C,C112*%
X36127500Y-194310000D03*
X34992500Y-194310000D03*
%TD*%
D41*
%TO.C,C43*%
X102302500Y-198120000D03*
X103437500Y-198120000D03*
%TD*%
D42*
%TO.C,RN10*%
X219479999Y-224249999D03*
X219479999Y-222909999D03*
X219479999Y-221589999D03*
X219479999Y-220249999D03*
X222479999Y-220249999D03*
X222479999Y-221589999D03*
X222479999Y-222909999D03*
X222479999Y-224249999D03*
%TD*%
D41*
%TO.C,C33*%
X113732500Y-138430000D03*
X114867500Y-138430000D03*
%TD*%
D40*
%TO.C,C50*%
X112327500Y-222250000D03*
X111192500Y-222250000D03*
%TD*%
%TO.C,C67*%
X57717500Y-242570000D03*
X56582500Y-242570000D03*
%TD*%
D42*
%TO.C,RN12*%
X174219999Y-210089999D03*
X174219999Y-211429999D03*
X174219999Y-212749999D03*
X174219999Y-214089999D03*
X171219999Y-214089999D03*
X171219999Y-212749999D03*
X171219999Y-211429999D03*
X171219999Y-210089999D03*
%TD*%
D41*
%TO.C,C70*%
X68012500Y-237490000D03*
X69147500Y-237490000D03*
%TD*%
%TO.C,C3*%
X200092500Y-204470000D03*
X201227500Y-204470000D03*
%TD*%
%TO.C,C30*%
X134052500Y-113030000D03*
X135187500Y-113030000D03*
%TD*%
D43*
%TO.C,C94*%
X191770000Y-43747500D03*
X191770000Y-42612500D03*
%TD*%
D40*
%TO.C,C113*%
X55812500Y-205740000D03*
X54677500Y-205740000D03*
%TD*%
D42*
%TO.C,RN9*%
X174219999Y-202469999D03*
X174219999Y-203809999D03*
X174219999Y-205129999D03*
X174219999Y-206469999D03*
X171219999Y-206469999D03*
X171219999Y-205129999D03*
X171219999Y-203809999D03*
X171219999Y-202469999D03*
%TD*%
D40*
%TO.C,C49*%
X89467500Y-194310000D03*
X88332500Y-194310000D03*
%TD*%
D41*
%TO.C,C15*%
X200092500Y-208280000D03*
X201227500Y-208280000D03*
%TD*%
D43*
%TO.C,C60*%
X229870000Y-146617500D03*
X229870000Y-145482500D03*
%TD*%
D41*
%TO.C,C7*%
X192472500Y-219710000D03*
X193607500Y-219710000D03*
%TD*%
%TO.C,C54*%
X173422500Y-118745000D03*
X174557500Y-118745000D03*
%TD*%
%TO.C,C51*%
X188662500Y-139700000D03*
X189797500Y-139700000D03*
%TD*%
D42*
%TO.C,RN1*%
X147859999Y-55649999D03*
X149199999Y-55649999D03*
X150519999Y-55649999D03*
X151859999Y-55649999D03*
X151859999Y-58649999D03*
X150519999Y-58649999D03*
X149199999Y-58649999D03*
X147859999Y-58649999D03*
%TD*%
D41*
%TO.C,C18*%
X143577500Y-203200000D03*
X144712500Y-203200000D03*
%TD*%
D40*
%TO.C,C78*%
X97087500Y-69850000D03*
X95952500Y-69850000D03*
%TD*%
D43*
%TO.C,C55*%
X193040000Y-146617500D03*
X193040000Y-145482500D03*
%TD*%
D40*
%TO.C,C23*%
X155507500Y-90170000D03*
X154372500Y-90170000D03*
%TD*%
%TO.C,C6*%
X206307500Y-217170000D03*
X205172500Y-217170000D03*
%TD*%
%TO.C,C81*%
X97087500Y-97790000D03*
X95952500Y-97790000D03*
%TD*%
D44*
%TO.C,C59*%
X185420000Y-153102500D03*
X185420000Y-154237500D03*
%TD*%
D40*
%TO.C,C20*%
X152967500Y-69850000D03*
X151832500Y-69850000D03*
%TD*%
%TO.C,C11*%
X206307500Y-207010000D03*
X205172500Y-207010000D03*
%TD*%
D41*
%TO.C,C47*%
X90872500Y-214630000D03*
X92007500Y-214630000D03*
%TD*%
D42*
%TO.C,RN17*%
X242339999Y-135349999D03*
X242339999Y-134009999D03*
X242339999Y-132689999D03*
X242339999Y-131349999D03*
X245339999Y-131349999D03*
X245339999Y-132689999D03*
X245339999Y-134009999D03*
X245339999Y-135349999D03*
%TD*%
D41*
%TO.C,C46*%
X118812500Y-207010000D03*
X119947500Y-207010000D03*
%TD*%
D40*
%TO.C,C12*%
X206307500Y-209550000D03*
X205172500Y-209550000D03*
%TD*%
%TO.C,C77*%
X84387500Y-69850000D03*
X83252500Y-69850000D03*
%TD*%
%TO.C,C32*%
X136457500Y-49530000D03*
X135322500Y-49530000D03*
%TD*%
D42*
%TO.C,RN2*%
X147859999Y-50569999D03*
X149199999Y-50569999D03*
X150519999Y-50569999D03*
X151859999Y-50569999D03*
X151859999Y-53569999D03*
X150519999Y-53569999D03*
X149199999Y-53569999D03*
X147859999Y-53569999D03*
%TD*%
D43*
%TO.C,C31*%
X228600000Y-187257500D03*
X228600000Y-186122500D03*
%TD*%
D42*
%TO.C,RN19*%
X242339999Y-127729999D03*
X242339999Y-126389999D03*
X242339999Y-125069999D03*
X242339999Y-123729999D03*
X245339999Y-123729999D03*
X245339999Y-125069999D03*
X245339999Y-126389999D03*
X245339999Y-127729999D03*
%TD*%
%TO.C,RN21*%
X234719999Y-254729999D03*
X234719999Y-253389999D03*
X234719999Y-252069999D03*
X234719999Y-250729999D03*
X237719999Y-250729999D03*
X237719999Y-252069999D03*
X237719999Y-253389999D03*
X237719999Y-254729999D03*
%TD*%
%TO.C,RN16*%
X242339999Y-142969999D03*
X242339999Y-141629999D03*
X242339999Y-140309999D03*
X242339999Y-138969999D03*
X245339999Y-138969999D03*
X245339999Y-140309999D03*
X245339999Y-141629999D03*
X245339999Y-142969999D03*
%TD*%
D40*
%TO.C,C65*%
X250757500Y-156210000D03*
X249622500Y-156210000D03*
%TD*%
%TO.C,C35*%
X107247500Y-148590000D03*
X106112500Y-148590000D03*
%TD*%
D45*
%TO.C,R2*%
X48260000Y-253087500D03*
X48260000Y-254912500D03*
%TD*%
D40*
%TO.C,C79*%
X84387500Y-125730000D03*
X83252500Y-125730000D03*
%TD*%
D41*
%TO.C,C25*%
X134052500Y-90170000D03*
X135187500Y-90170000D03*
%TD*%
D43*
%TO.C,C95*%
X194310000Y-43747500D03*
X194310000Y-42612500D03*
%TD*%
D40*
%TO.C,C24*%
X147887500Y-97790000D03*
X146752500Y-97790000D03*
%TD*%
D41*
%TO.C,C4*%
X200092500Y-212090000D03*
X201227500Y-212090000D03*
%TD*%
D42*
%TO.C,RN5*%
X163099999Y-55649999D03*
X164439999Y-55649999D03*
X165759999Y-55649999D03*
X167099999Y-55649999D03*
X167099999Y-58649999D03*
X165759999Y-58649999D03*
X164439999Y-58649999D03*
X163099999Y-58649999D03*
%TD*%
D43*
%TO.C,C93*%
X189230000Y-43747500D03*
X189230000Y-42612500D03*
%TD*%
D42*
%TO.C,RN14*%
X206279999Y-253769999D03*
X207619999Y-253769999D03*
X208939999Y-253769999D03*
X210279999Y-253769999D03*
X210279999Y-256769999D03*
X208939999Y-256769999D03*
X207619999Y-256769999D03*
X206279999Y-256769999D03*
%TD*%
D41*
%TO.C,C34*%
X113732500Y-156210000D03*
X114867500Y-156210000D03*
%TD*%
%TO.C,C36*%
X116272500Y-163830000D03*
X117407500Y-163830000D03*
%TD*%
%TO.C,C29*%
X179772500Y-97790000D03*
X180907500Y-97790000D03*
%TD*%
D44*
%TO.C,C114*%
X40640000Y-211522500D03*
X40640000Y-212657500D03*
%TD*%
D46*
%TO.C,VBUF1*%
X133350000Y-52135000D03*
X134620000Y-52135000D03*
X135890000Y-52135000D03*
X137160000Y-52135000D03*
X138430000Y-52135000D03*
X139700000Y-52135000D03*
X140970000Y-52135000D03*
X140970000Y-57085000D03*
X139700000Y-57085000D03*
X138430000Y-57085000D03*
X137160000Y-57085000D03*
X135890000Y-57085000D03*
X134620000Y-57085000D03*
X133350000Y-57085000D03*
%TD*%
D43*
%TO.C,C97*%
X199390000Y-43747500D03*
X199390000Y-42612500D03*
%TD*%
D41*
%TO.C,C14*%
X200092500Y-219710000D03*
X201227500Y-219710000D03*
%TD*%
D40*
%TO.C,C76*%
X86927500Y-188595000D03*
X85792500Y-188595000D03*
%TD*%
D43*
%TO.C,C66*%
X234315000Y-259012500D03*
X234315000Y-257877500D03*
%TD*%
D42*
%TO.C,RN4*%
X155479999Y-50569999D03*
X156819999Y-50569999D03*
X158139999Y-50569999D03*
X159479999Y-50569999D03*
X159479999Y-53569999D03*
X158139999Y-53569999D03*
X156819999Y-53569999D03*
X155479999Y-53569999D03*
%TD*%
%TO.C,RN15*%
X242339999Y-150589999D03*
X242339999Y-149249999D03*
X242339999Y-147929999D03*
X242339999Y-146589999D03*
X245339999Y-146589999D03*
X245339999Y-147929999D03*
X245339999Y-149249999D03*
X245339999Y-150589999D03*
%TD*%
D40*
%TO.C,C37*%
X125027500Y-163830000D03*
X123892500Y-163830000D03*
%TD*%
D43*
%TO.C,C96*%
X196850000Y-43747500D03*
X196850000Y-42612500D03*
%TD*%
D29*
%TO.C,FID1*%
X259080000Y-254000000D03*
%TD*%
D41*
%TO.C,C16*%
X195012500Y-208280000D03*
X196147500Y-208280000D03*
%TD*%
D44*
%TO.C,C58*%
X182880000Y-125162500D03*
X182880000Y-126297500D03*
%TD*%
D41*
%TO.C,C26*%
X161992500Y-74930000D03*
X163127500Y-74930000D03*
%TD*%
%TO.C,C44*%
X92142500Y-226060000D03*
X93277500Y-226060000D03*
%TD*%
%TO.C,C1*%
X192472500Y-204470000D03*
X193607500Y-204470000D03*
%TD*%
D43*
%TO.C,C110*%
X256540000Y-55177500D03*
X256540000Y-54042500D03*
%TD*%
D40*
%TO.C,C90*%
X213927500Y-80010000D03*
X212792500Y-80010000D03*
%TD*%
D44*
%TO.C,C68*%
X46355000Y-244542500D03*
X46355000Y-245677500D03*
%TD*%
D40*
%TO.C,C42*%
X107247500Y-217170000D03*
X106112500Y-217170000D03*
%TD*%
%TO.C,C40*%
X121217500Y-156210000D03*
X120082500Y-156210000D03*
%TD*%
D41*
%TO.C,C101*%
X196282500Y-113030000D03*
X197417500Y-113030000D03*
%TD*%
D44*
%TO.C,C63*%
X228600000Y-89602500D03*
X228600000Y-90737500D03*
%TD*%
D40*
%TO.C,C19*%
X145347500Y-80010000D03*
X144212500Y-80010000D03*
%TD*%
D41*
%TO.C,C17*%
X143577500Y-205740000D03*
X144712500Y-205740000D03*
%TD*%
D40*
%TO.C,C69*%
X57717500Y-237490000D03*
X56582500Y-237490000D03*
%TD*%
%TO.C,C64*%
X263457500Y-156210000D03*
X262322500Y-156210000D03*
%TD*%
%TO.C,C82*%
X84387500Y-158750000D03*
X83252500Y-158750000D03*
%TD*%
D42*
%TO.C,RN18*%
X242339999Y-115029999D03*
X242339999Y-113689999D03*
X242339999Y-112369999D03*
X242339999Y-111029999D03*
X245339999Y-111029999D03*
X245339999Y-112369999D03*
X245339999Y-113689999D03*
X245339999Y-115029999D03*
%TD*%
D40*
%TO.C,C5*%
X206307500Y-212090000D03*
X205172500Y-212090000D03*
%TD*%
D41*
%TO.C,C2*%
X189932500Y-209550000D03*
X191067500Y-209550000D03*
%TD*%
%TO.C,C45*%
X109922500Y-198120000D03*
X111057500Y-198120000D03*
%TD*%
D44*
%TO.C,C61*%
X226695000Y-115002500D03*
X226695000Y-116137500D03*
%TD*%
%TO.C,C56*%
X190500000Y-125162500D03*
X190500000Y-126297500D03*
%TD*%
D42*
%TO.C,RN3*%
X155479999Y-55649999D03*
X156819999Y-55649999D03*
X158139999Y-55649999D03*
X159479999Y-55649999D03*
X159479999Y-58649999D03*
X158139999Y-58649999D03*
X156819999Y-58649999D03*
X155479999Y-58649999D03*
%TD*%
D40*
%TO.C,C38*%
X125027500Y-151130000D03*
X123892500Y-151130000D03*
%TD*%
D42*
%TO.C,RN6*%
X163099999Y-50569999D03*
X164439999Y-50569999D03*
X165759999Y-50569999D03*
X167099999Y-50569999D03*
X167099999Y-53569999D03*
X165759999Y-53569999D03*
X164439999Y-53569999D03*
X163099999Y-53569999D03*
%TD*%
D40*
%TO.C,C88*%
X216467500Y-69850000D03*
X215332500Y-69850000D03*
%TD*%
D41*
%TO.C,C10*%
X195012500Y-217170000D03*
X196147500Y-217170000D03*
%TD*%
D42*
%TO.C,RN7*%
X128499999Y-52609999D03*
X128499999Y-53949999D03*
X128499999Y-55269999D03*
X128499999Y-56609999D03*
X125499999Y-56609999D03*
X125499999Y-55269999D03*
X125499999Y-53949999D03*
X125499999Y-52609999D03*
%TD*%
D43*
%TO.C,C91*%
X198120000Y-93912500D03*
X198120000Y-92777500D03*
%TD*%
D42*
%TO.C,RN11*%
X219479999Y-211549999D03*
X219479999Y-210209999D03*
X219479999Y-208889999D03*
X219479999Y-207549999D03*
X222479999Y-207549999D03*
X222479999Y-208889999D03*
X222479999Y-210209999D03*
X222479999Y-211549999D03*
%TD*%
%TO.C,RN13*%
X185959999Y-253769999D03*
X187299999Y-253769999D03*
X188619999Y-253769999D03*
X189959999Y-253769999D03*
X189959999Y-256769999D03*
X188619999Y-256769999D03*
X187299999Y-256769999D03*
X185959999Y-256769999D03*
%TD*%
D41*
%TO.C,C116*%
X55312500Y-226695000D03*
X56447500Y-226695000D03*
%TD*%
D40*
%TO.C,C41*%
X121217500Y-160020000D03*
X120082500Y-160020000D03*
%TD*%
D41*
%TO.C,C9*%
X189932500Y-217170000D03*
X191067500Y-217170000D03*
%TD*%
D45*
%TO.C,R1*%
X50800000Y-253087500D03*
X50800000Y-254912500D03*
%TD*%
D40*
%TO.C,C27*%
X127567500Y-82550000D03*
X126432500Y-82550000D03*
%TD*%
D29*
%TO.C,FID2*%
X259080000Y-43180000D03*
%TD*%
D43*
%TO.C,C100*%
X207010000Y-43747500D03*
X207010000Y-42612500D03*
%TD*%
D41*
%TO.C,C48*%
X104842500Y-226060000D03*
X105977500Y-226060000D03*
%TD*%
D42*
%TO.C,RN20*%
X242339999Y-104869999D03*
X242339999Y-103529999D03*
X242339999Y-102209999D03*
X242339999Y-100869999D03*
X245339999Y-100869999D03*
X245339999Y-102209999D03*
X245339999Y-103529999D03*
X245339999Y-104869999D03*
%TD*%
D44*
%TO.C,C62*%
X228600000Y-175962500D03*
X228600000Y-177097500D03*
%TD*%
D41*
%TO.C,C52*%
X200092500Y-130810000D03*
X201227500Y-130810000D03*
%TD*%
D40*
%TO.C,C80*%
X84387500Y-97790000D03*
X83252500Y-97790000D03*
%TD*%
%TO.C,C39*%
X127567500Y-156210000D03*
X126432500Y-156210000D03*
%TD*%
%TO.C,C21*%
X145347500Y-62230000D03*
X144212500Y-62230000D03*
%TD*%
%TO.C,C89*%
X199957500Y-77470000D03*
X198822500Y-77470000D03*
%TD*%
D47*
%TO.C,R3*%
X93622500Y-201295000D03*
X91797500Y-201295000D03*
%TD*%
D29*
%TO.C,FID3*%
X44450000Y-44450000D03*
%TD*%
D42*
%TO.C,RN22*%
X119919999Y-195984999D03*
X121259999Y-195984999D03*
X122579999Y-195984999D03*
X123919999Y-195984999D03*
X123919999Y-198984999D03*
X122579999Y-198984999D03*
X121259999Y-198984999D03*
X119919999Y-198984999D03*
%TD*%
D43*
%TO.C,C98*%
X201930000Y-43747500D03*
X201930000Y-42612500D03*
%TD*%
D40*
%TO.C,C22*%
X130107500Y-64770000D03*
X128972500Y-64770000D03*
%TD*%
%TO.C,C8*%
X203767500Y-217170000D03*
X202632500Y-217170000D03*
%TD*%
D43*
%TO.C,C99*%
X204470000Y-43747500D03*
X204470000Y-42612500D03*
%TD*%
D41*
%TO.C,C28*%
X167072500Y-97790000D03*
X168207500Y-97790000D03*
%TD*%
D42*
%TO.C,RN8*%
X219479999Y-203929999D03*
X219479999Y-202589999D03*
X219479999Y-201269999D03*
X219479999Y-199929999D03*
X222479999Y-199929999D03*
X222479999Y-201269999D03*
X222479999Y-202589999D03*
X222479999Y-203929999D03*
%TD*%
D41*
%TO.C,C117*%
X88900000Y-41910000D03*
X90035000Y-41910000D03*
%TD*%
D40*
%TO.C,C111*%
X55812500Y-208280000D03*
X54677500Y-208280000D03*
%TD*%
D41*
%TO.C,C13*%
X195012500Y-212090000D03*
X196147500Y-212090000D03*
%TD*%
%TO.C,C57*%
X173422500Y-146685000D03*
X174557500Y-146685000D03*
%TD*%
D40*
%TO.C,C115*%
X55812500Y-201295000D03*
X54677500Y-201295000D03*
%TD*%
M02*
