%TF.GenerationSoftware,KiCad,Pcbnew,(7.0.0)*%
%TF.CreationDate,2023-03-28T13:15:18-05:00*%
%TF.ProjectId,Wrap030-ITX,57726170-3033-4302-9d49-54582e6b6963,1*%
%TF.SameCoordinates,Original*%
%TF.FileFunction,Paste,Bot*%
%TF.FilePolarity,Positive*%
%FSLAX46Y46*%
G04 Gerber Fmt 4.6, Leading zero omitted, Abs format (unit mm)*
G04 Created by KiCad (PCBNEW (7.0.0)) date 2023-03-28 13:15:18*
%MOMM*%
%LPD*%
G01*
G04 APERTURE LIST*
G04 Aperture macros list*
%AMRoundRect*
0 Rectangle with rounded corners*
0 $1 Rounding radius*
0 $2 $3 $4 $5 $6 $7 $8 $9 X,Y pos of 4 corners*
0 Add a 4 corners polygon primitive as box body*
4,1,4,$2,$3,$4,$5,$6,$7,$8,$9,$2,$3,0*
0 Add four circle primitives for the rounded corners*
1,1,$1+$1,$2,$3*
1,1,$1+$1,$4,$5*
1,1,$1+$1,$6,$7*
1,1,$1+$1,$8,$9*
0 Add four rect primitives between the rounded corners*
20,1,$1+$1,$2,$3,$4,$5,0*
20,1,$1+$1,$4,$5,$6,$7,0*
20,1,$1+$1,$6,$7,$8,$9,0*
20,1,$1+$1,$8,$9,$2,$3,0*%
G04 Aperture macros list end*
%ADD10RoundRect,0.155000X0.212500X0.155000X-0.212500X0.155000X-0.212500X-0.155000X0.212500X-0.155000X0*%
%ADD11RoundRect,0.155000X-0.212500X-0.155000X0.212500X-0.155000X0.212500X0.155000X-0.212500X0.155000X0*%
%ADD12R,0.900000X0.900000*%
%ADD13RoundRect,0.155000X0.155000X-0.212500X0.155000X0.212500X-0.155000X0.212500X-0.155000X-0.212500X0*%
%ADD14RoundRect,0.155000X-0.155000X0.212500X-0.155000X-0.212500X0.155000X-0.212500X0.155000X0.212500X0*%
%ADD15RoundRect,0.250000X-0.450000X0.262500X-0.450000X-0.262500X0.450000X-0.262500X0.450000X0.262500X0*%
%ADD16RoundRect,0.150000X-0.150000X0.825000X-0.150000X-0.825000X0.150000X-0.825000X0.150000X0.825000X0*%
%ADD17RoundRect,0.250000X0.262500X0.450000X-0.262500X0.450000X-0.262500X-0.450000X0.262500X-0.450000X0*%
G04 APERTURE END LIST*
D10*
%TO.C,C53*%
X165667500Y-138430000D03*
X164532500Y-138430000D03*
%TD*%
%TO.C,C92*%
X206307500Y-86360000D03*
X205172500Y-86360000D03*
%TD*%
%TO.C,C112*%
X36127500Y-194310000D03*
X34992500Y-194310000D03*
%TD*%
D11*
%TO.C,C43*%
X102302500Y-198120000D03*
X103437500Y-198120000D03*
%TD*%
D12*
%TO.C,RN10*%
X219479999Y-224249999D03*
X219479999Y-222909999D03*
X219479999Y-221589999D03*
X219479999Y-220249999D03*
X222479999Y-220249999D03*
X222479999Y-221589999D03*
X222479999Y-222909999D03*
X222479999Y-224249999D03*
%TD*%
D11*
%TO.C,C33*%
X113732500Y-138430000D03*
X114867500Y-138430000D03*
%TD*%
D10*
%TO.C,C50*%
X112327500Y-222250000D03*
X111192500Y-222250000D03*
%TD*%
%TO.C,C67*%
X57717500Y-242570000D03*
X56582500Y-242570000D03*
%TD*%
D12*
%TO.C,RN12*%
X174219999Y-210089999D03*
X174219999Y-211429999D03*
X174219999Y-212749999D03*
X174219999Y-214089999D03*
X171219999Y-214089999D03*
X171219999Y-212749999D03*
X171219999Y-211429999D03*
X171219999Y-210089999D03*
%TD*%
D11*
%TO.C,C70*%
X68012500Y-237490000D03*
X69147500Y-237490000D03*
%TD*%
%TO.C,C3*%
X200092500Y-204470000D03*
X201227500Y-204470000D03*
%TD*%
%TO.C,C30*%
X134052500Y-113030000D03*
X135187500Y-113030000D03*
%TD*%
D13*
%TO.C,C94*%
X191770000Y-43747500D03*
X191770000Y-42612500D03*
%TD*%
D10*
%TO.C,C113*%
X55812500Y-205740000D03*
X54677500Y-205740000D03*
%TD*%
D12*
%TO.C,RN9*%
X174219999Y-202469999D03*
X174219999Y-203809999D03*
X174219999Y-205129999D03*
X174219999Y-206469999D03*
X171219999Y-206469999D03*
X171219999Y-205129999D03*
X171219999Y-203809999D03*
X171219999Y-202469999D03*
%TD*%
D10*
%TO.C,C49*%
X89467500Y-194310000D03*
X88332500Y-194310000D03*
%TD*%
D11*
%TO.C,C15*%
X200092500Y-208280000D03*
X201227500Y-208280000D03*
%TD*%
D13*
%TO.C,C60*%
X229870000Y-146617500D03*
X229870000Y-145482500D03*
%TD*%
D11*
%TO.C,C7*%
X192472500Y-219710000D03*
X193607500Y-219710000D03*
%TD*%
%TO.C,C54*%
X173422500Y-118745000D03*
X174557500Y-118745000D03*
%TD*%
%TO.C,C51*%
X188662500Y-139700000D03*
X189797500Y-139700000D03*
%TD*%
D12*
%TO.C,RN1*%
X147859999Y-55649999D03*
X149199999Y-55649999D03*
X150519999Y-55649999D03*
X151859999Y-55649999D03*
X151859999Y-58649999D03*
X150519999Y-58649999D03*
X149199999Y-58649999D03*
X147859999Y-58649999D03*
%TD*%
D11*
%TO.C,C18*%
X143577500Y-203200000D03*
X144712500Y-203200000D03*
%TD*%
D10*
%TO.C,C78*%
X97087500Y-69850000D03*
X95952500Y-69850000D03*
%TD*%
D13*
%TO.C,C55*%
X193040000Y-146617500D03*
X193040000Y-145482500D03*
%TD*%
D10*
%TO.C,C23*%
X155507500Y-90170000D03*
X154372500Y-90170000D03*
%TD*%
%TO.C,C6*%
X206307500Y-217170000D03*
X205172500Y-217170000D03*
%TD*%
%TO.C,C81*%
X97087500Y-97790000D03*
X95952500Y-97790000D03*
%TD*%
D14*
%TO.C,C59*%
X185420000Y-153102500D03*
X185420000Y-154237500D03*
%TD*%
D10*
%TO.C,C20*%
X152967500Y-69850000D03*
X151832500Y-69850000D03*
%TD*%
%TO.C,C11*%
X206307500Y-207010000D03*
X205172500Y-207010000D03*
%TD*%
D11*
%TO.C,C47*%
X90872500Y-214630000D03*
X92007500Y-214630000D03*
%TD*%
D12*
%TO.C,RN17*%
X242339999Y-135349999D03*
X242339999Y-134009999D03*
X242339999Y-132689999D03*
X242339999Y-131349999D03*
X245339999Y-131349999D03*
X245339999Y-132689999D03*
X245339999Y-134009999D03*
X245339999Y-135349999D03*
%TD*%
D11*
%TO.C,C46*%
X118812500Y-207010000D03*
X119947500Y-207010000D03*
%TD*%
D10*
%TO.C,C12*%
X206307500Y-209550000D03*
X205172500Y-209550000D03*
%TD*%
%TO.C,C77*%
X84387500Y-69850000D03*
X83252500Y-69850000D03*
%TD*%
%TO.C,C32*%
X136457500Y-49530000D03*
X135322500Y-49530000D03*
%TD*%
D12*
%TO.C,RN2*%
X147859999Y-50569999D03*
X149199999Y-50569999D03*
X150519999Y-50569999D03*
X151859999Y-50569999D03*
X151859999Y-53569999D03*
X150519999Y-53569999D03*
X149199999Y-53569999D03*
X147859999Y-53569999D03*
%TD*%
D13*
%TO.C,C31*%
X228600000Y-187257500D03*
X228600000Y-186122500D03*
%TD*%
D12*
%TO.C,RN19*%
X242339999Y-127729999D03*
X242339999Y-126389999D03*
X242339999Y-125069999D03*
X242339999Y-123729999D03*
X245339999Y-123729999D03*
X245339999Y-125069999D03*
X245339999Y-126389999D03*
X245339999Y-127729999D03*
%TD*%
%TO.C,RN21*%
X234719999Y-254729999D03*
X234719999Y-253389999D03*
X234719999Y-252069999D03*
X234719999Y-250729999D03*
X237719999Y-250729999D03*
X237719999Y-252069999D03*
X237719999Y-253389999D03*
X237719999Y-254729999D03*
%TD*%
%TO.C,RN16*%
X242339999Y-142969999D03*
X242339999Y-141629999D03*
X242339999Y-140309999D03*
X242339999Y-138969999D03*
X245339999Y-138969999D03*
X245339999Y-140309999D03*
X245339999Y-141629999D03*
X245339999Y-142969999D03*
%TD*%
D10*
%TO.C,C65*%
X250757500Y-156210000D03*
X249622500Y-156210000D03*
%TD*%
%TO.C,C35*%
X107247500Y-148590000D03*
X106112500Y-148590000D03*
%TD*%
D15*
%TO.C,R2*%
X48260000Y-253087500D03*
X48260000Y-254912500D03*
%TD*%
D10*
%TO.C,C79*%
X84387500Y-125730000D03*
X83252500Y-125730000D03*
%TD*%
D11*
%TO.C,C25*%
X134052500Y-90170000D03*
X135187500Y-90170000D03*
%TD*%
D13*
%TO.C,C95*%
X194310000Y-43747500D03*
X194310000Y-42612500D03*
%TD*%
D10*
%TO.C,C24*%
X147887500Y-97790000D03*
X146752500Y-97790000D03*
%TD*%
D11*
%TO.C,C4*%
X200092500Y-212090000D03*
X201227500Y-212090000D03*
%TD*%
D12*
%TO.C,RN5*%
X163099999Y-55649999D03*
X164439999Y-55649999D03*
X165759999Y-55649999D03*
X167099999Y-55649999D03*
X167099999Y-58649999D03*
X165759999Y-58649999D03*
X164439999Y-58649999D03*
X163099999Y-58649999D03*
%TD*%
D13*
%TO.C,C93*%
X189230000Y-43747500D03*
X189230000Y-42612500D03*
%TD*%
D12*
%TO.C,RN14*%
X206279999Y-253769999D03*
X207619999Y-253769999D03*
X208939999Y-253769999D03*
X210279999Y-253769999D03*
X210279999Y-256769999D03*
X208939999Y-256769999D03*
X207619999Y-256769999D03*
X206279999Y-256769999D03*
%TD*%
D11*
%TO.C,C34*%
X113732500Y-156210000D03*
X114867500Y-156210000D03*
%TD*%
%TO.C,C36*%
X116272500Y-163830000D03*
X117407500Y-163830000D03*
%TD*%
%TO.C,C29*%
X179772500Y-97790000D03*
X180907500Y-97790000D03*
%TD*%
D14*
%TO.C,C114*%
X40640000Y-211522500D03*
X40640000Y-212657500D03*
%TD*%
D16*
%TO.C,VBUF1*%
X133350000Y-52135000D03*
X134620000Y-52135000D03*
X135890000Y-52135000D03*
X137160000Y-52135000D03*
X138430000Y-52135000D03*
X139700000Y-52135000D03*
X140970000Y-52135000D03*
X140970000Y-57085000D03*
X139700000Y-57085000D03*
X138430000Y-57085000D03*
X137160000Y-57085000D03*
X135890000Y-57085000D03*
X134620000Y-57085000D03*
X133350000Y-57085000D03*
%TD*%
D13*
%TO.C,C97*%
X199390000Y-43747500D03*
X199390000Y-42612500D03*
%TD*%
D11*
%TO.C,C14*%
X200092500Y-219710000D03*
X201227500Y-219710000D03*
%TD*%
D10*
%TO.C,C76*%
X86927500Y-188595000D03*
X85792500Y-188595000D03*
%TD*%
D13*
%TO.C,C66*%
X234315000Y-259012500D03*
X234315000Y-257877500D03*
%TD*%
D12*
%TO.C,RN4*%
X155479999Y-50569999D03*
X156819999Y-50569999D03*
X158139999Y-50569999D03*
X159479999Y-50569999D03*
X159479999Y-53569999D03*
X158139999Y-53569999D03*
X156819999Y-53569999D03*
X155479999Y-53569999D03*
%TD*%
%TO.C,RN15*%
X242339999Y-150589999D03*
X242339999Y-149249999D03*
X242339999Y-147929999D03*
X242339999Y-146589999D03*
X245339999Y-146589999D03*
X245339999Y-147929999D03*
X245339999Y-149249999D03*
X245339999Y-150589999D03*
%TD*%
D10*
%TO.C,C37*%
X125027500Y-163830000D03*
X123892500Y-163830000D03*
%TD*%
D13*
%TO.C,C96*%
X196850000Y-43747500D03*
X196850000Y-42612500D03*
%TD*%
D11*
%TO.C,C16*%
X195012500Y-208280000D03*
X196147500Y-208280000D03*
%TD*%
D14*
%TO.C,C58*%
X182880000Y-125162500D03*
X182880000Y-126297500D03*
%TD*%
D11*
%TO.C,C26*%
X161992500Y-74930000D03*
X163127500Y-74930000D03*
%TD*%
%TO.C,C44*%
X92142500Y-226060000D03*
X93277500Y-226060000D03*
%TD*%
%TO.C,C1*%
X192472500Y-204470000D03*
X193607500Y-204470000D03*
%TD*%
D13*
%TO.C,C110*%
X256540000Y-55177500D03*
X256540000Y-54042500D03*
%TD*%
D10*
%TO.C,C90*%
X213927500Y-80010000D03*
X212792500Y-80010000D03*
%TD*%
D14*
%TO.C,C68*%
X46355000Y-244542500D03*
X46355000Y-245677500D03*
%TD*%
D10*
%TO.C,C42*%
X107247500Y-217170000D03*
X106112500Y-217170000D03*
%TD*%
%TO.C,C40*%
X121217500Y-156210000D03*
X120082500Y-156210000D03*
%TD*%
D11*
%TO.C,C101*%
X196282500Y-113030000D03*
X197417500Y-113030000D03*
%TD*%
D14*
%TO.C,C63*%
X228600000Y-89602500D03*
X228600000Y-90737500D03*
%TD*%
D10*
%TO.C,C19*%
X145347500Y-80010000D03*
X144212500Y-80010000D03*
%TD*%
D11*
%TO.C,C17*%
X143577500Y-205740000D03*
X144712500Y-205740000D03*
%TD*%
D10*
%TO.C,C69*%
X57717500Y-237490000D03*
X56582500Y-237490000D03*
%TD*%
%TO.C,C64*%
X263457500Y-156210000D03*
X262322500Y-156210000D03*
%TD*%
%TO.C,C82*%
X84387500Y-158750000D03*
X83252500Y-158750000D03*
%TD*%
D12*
%TO.C,RN18*%
X242339999Y-115029999D03*
X242339999Y-113689999D03*
X242339999Y-112369999D03*
X242339999Y-111029999D03*
X245339999Y-111029999D03*
X245339999Y-112369999D03*
X245339999Y-113689999D03*
X245339999Y-115029999D03*
%TD*%
D10*
%TO.C,C5*%
X206307500Y-212090000D03*
X205172500Y-212090000D03*
%TD*%
D11*
%TO.C,C2*%
X189932500Y-209550000D03*
X191067500Y-209550000D03*
%TD*%
%TO.C,C45*%
X109922500Y-198120000D03*
X111057500Y-198120000D03*
%TD*%
D14*
%TO.C,C61*%
X226695000Y-115002500D03*
X226695000Y-116137500D03*
%TD*%
%TO.C,C56*%
X190500000Y-125162500D03*
X190500000Y-126297500D03*
%TD*%
D12*
%TO.C,RN3*%
X155479999Y-55649999D03*
X156819999Y-55649999D03*
X158139999Y-55649999D03*
X159479999Y-55649999D03*
X159479999Y-58649999D03*
X158139999Y-58649999D03*
X156819999Y-58649999D03*
X155479999Y-58649999D03*
%TD*%
D10*
%TO.C,C38*%
X125027500Y-151130000D03*
X123892500Y-151130000D03*
%TD*%
D12*
%TO.C,RN6*%
X163099999Y-50569999D03*
X164439999Y-50569999D03*
X165759999Y-50569999D03*
X167099999Y-50569999D03*
X167099999Y-53569999D03*
X165759999Y-53569999D03*
X164439999Y-53569999D03*
X163099999Y-53569999D03*
%TD*%
D10*
%TO.C,C88*%
X216467500Y-69850000D03*
X215332500Y-69850000D03*
%TD*%
D11*
%TO.C,C10*%
X195012500Y-217170000D03*
X196147500Y-217170000D03*
%TD*%
D12*
%TO.C,RN7*%
X128499999Y-52609999D03*
X128499999Y-53949999D03*
X128499999Y-55269999D03*
X128499999Y-56609999D03*
X125499999Y-56609999D03*
X125499999Y-55269999D03*
X125499999Y-53949999D03*
X125499999Y-52609999D03*
%TD*%
D13*
%TO.C,C91*%
X198120000Y-93912500D03*
X198120000Y-92777500D03*
%TD*%
D12*
%TO.C,RN11*%
X219479999Y-211549999D03*
X219479999Y-210209999D03*
X219479999Y-208889999D03*
X219479999Y-207549999D03*
X222479999Y-207549999D03*
X222479999Y-208889999D03*
X222479999Y-210209999D03*
X222479999Y-211549999D03*
%TD*%
%TO.C,RN13*%
X185959999Y-253769999D03*
X187299999Y-253769999D03*
X188619999Y-253769999D03*
X189959999Y-253769999D03*
X189959999Y-256769999D03*
X188619999Y-256769999D03*
X187299999Y-256769999D03*
X185959999Y-256769999D03*
%TD*%
D11*
%TO.C,C116*%
X55312500Y-226695000D03*
X56447500Y-226695000D03*
%TD*%
D10*
%TO.C,C41*%
X121217500Y-160020000D03*
X120082500Y-160020000D03*
%TD*%
D11*
%TO.C,C9*%
X189932500Y-217170000D03*
X191067500Y-217170000D03*
%TD*%
D15*
%TO.C,R1*%
X50800000Y-253087500D03*
X50800000Y-254912500D03*
%TD*%
D10*
%TO.C,C27*%
X127567500Y-82550000D03*
X126432500Y-82550000D03*
%TD*%
D13*
%TO.C,C100*%
X207010000Y-43747500D03*
X207010000Y-42612500D03*
%TD*%
D11*
%TO.C,C48*%
X104842500Y-226060000D03*
X105977500Y-226060000D03*
%TD*%
D12*
%TO.C,RN20*%
X242339999Y-104869999D03*
X242339999Y-103529999D03*
X242339999Y-102209999D03*
X242339999Y-100869999D03*
X245339999Y-100869999D03*
X245339999Y-102209999D03*
X245339999Y-103529999D03*
X245339999Y-104869999D03*
%TD*%
D14*
%TO.C,C62*%
X228600000Y-175962500D03*
X228600000Y-177097500D03*
%TD*%
D11*
%TO.C,C52*%
X200092500Y-130810000D03*
X201227500Y-130810000D03*
%TD*%
D10*
%TO.C,C80*%
X84387500Y-97790000D03*
X83252500Y-97790000D03*
%TD*%
%TO.C,C39*%
X127567500Y-156210000D03*
X126432500Y-156210000D03*
%TD*%
%TO.C,C21*%
X145347500Y-62230000D03*
X144212500Y-62230000D03*
%TD*%
%TO.C,C89*%
X199957500Y-77470000D03*
X198822500Y-77470000D03*
%TD*%
D17*
%TO.C,R3*%
X93622500Y-201295000D03*
X91797500Y-201295000D03*
%TD*%
D12*
%TO.C,RN22*%
X119919999Y-195984999D03*
X121259999Y-195984999D03*
X122579999Y-195984999D03*
X123919999Y-195984999D03*
X123919999Y-198984999D03*
X122579999Y-198984999D03*
X121259999Y-198984999D03*
X119919999Y-198984999D03*
%TD*%
D13*
%TO.C,C98*%
X201930000Y-43747500D03*
X201930000Y-42612500D03*
%TD*%
D10*
%TO.C,C22*%
X130107500Y-64770000D03*
X128972500Y-64770000D03*
%TD*%
%TO.C,C8*%
X203767500Y-217170000D03*
X202632500Y-217170000D03*
%TD*%
D13*
%TO.C,C99*%
X204470000Y-43747500D03*
X204470000Y-42612500D03*
%TD*%
D11*
%TO.C,C28*%
X167072500Y-97790000D03*
X168207500Y-97790000D03*
%TD*%
D12*
%TO.C,RN8*%
X219479999Y-203929999D03*
X219479999Y-202589999D03*
X219479999Y-201269999D03*
X219479999Y-199929999D03*
X222479999Y-199929999D03*
X222479999Y-201269999D03*
X222479999Y-202589999D03*
X222479999Y-203929999D03*
%TD*%
D11*
%TO.C,C117*%
X88900000Y-41910000D03*
X90035000Y-41910000D03*
%TD*%
D10*
%TO.C,C111*%
X55812500Y-208280000D03*
X54677500Y-208280000D03*
%TD*%
D11*
%TO.C,C13*%
X195012500Y-212090000D03*
X196147500Y-212090000D03*
%TD*%
%TO.C,C57*%
X173422500Y-146685000D03*
X174557500Y-146685000D03*
%TD*%
D10*
%TO.C,C115*%
X55812500Y-201295000D03*
X54677500Y-201295000D03*
%TD*%
M02*
